<?xml version="1.0" encoding="UTF-8"?>
<svg width="787px" height="307px" viewBox="0 0 787 307" version="1.1" xmlns="http://www.w3.org/2000/svg" xmlns:xlink="http://www.w3.org/1999/xlink">
    <!-- Generator: Sketch 40.3 (33839) - http://www.bohemiancoding.com/sketch -->
    <title>Group 16</title>
    <desc>Created with Sketch.</desc>
    <defs>
        <path d="M14.5986,5.2086 L9,0.4092 L3.4014,5.2086 C1.2396,7.0608 0,9.7566 0,12.6042 L0,29.3904 C0,31.7112 1.8882,33.6 4.209,33.6 L6,33.6 L6,31.2 L4.8,31.2 C3.4764,31.2 2.4,30.1236 2.4,28.8 L2.4,27.384 C2.4,26.841 2.841,26.4 3.384,26.4 L5.124,26.4 C4.6788,25.9038 4.3698,25.2852 4.254,24.6 L2.4,24.6 L2.4,14.5242 C2.4,13.1328 3.5328,12 4.9242,12 L13.0758,12 C14.4672,12 15.6,13.1328 15.6,14.5242 L15.6,24.6 L13.746,24.6 C13.6302,25.2852 13.3212,25.9038 12.876,26.4 L14.616,26.4 C15.159,26.4 15.6,26.841 15.6,27.384 L15.6,28.8 C15.6,30.1236 14.5236,31.2 13.2,31.2 L12,31.2 L12,33.6 L13.791,33.6 C16.1118,33.6 18,31.7112 18,29.3904 L18,12.6042 C18,9.7566 16.7604,7.0608 14.5986,5.2086 L14.5986,5.2086 L14.5986,5.2086 Z M9.6,6 C7.6146,6 6,7.6146 6,9.6 C6,9.9318 5.7312,10.2 5.4,10.2 C5.0688,10.2 4.8,9.9318 4.8,9.6 C4.8,6.9534 6.9534,4.8 9.6,4.8 C9.9312,4.8 10.2,5.0682 10.2,5.4 C10.2,5.7318 9.9312,6 9.6,6 L9.6,6 L9.6,6 Z" id="path-1"></path>
        <mask id="mask-2" maskContentUnits="userSpaceOnUse" maskUnits="objectBoundingBox" x="-1" y="-1" width="20" height="35.1908">
            <rect x="-1" y="-0.5908" width="20" height="35.1908" fill="white"></rect>
            <use xlink:href="#path-1" fill="black"></use>
        </mask>
    </defs>
    <g id="Page-1" stroke="none" stroke-width="1" fill="none" fill-rule="evenodd">
        <g id="Group-16" transform="translate(-1.000000, 0.000000)">
            <g id="Group-11" transform="translate(625.000000, 5.000000)">
                <g id="noun_276552_cc" transform="translate(47.000000, 0.000000)" fill="#000000">
                    <g id="57---Led-Bulb-(Solid)">
                        <g id="Group">
                            <g id="Shape">
                                <path d="M17.5328276,28.8888889 L11.618069,28.8888889 C11.9468276,40.1093333 16.0411034,47.4052222 20.0615172,53.0732222 C21.7473103,55.4493333 23.3433103,57.7171111 24.4541379,66.4444444 L25.9255862,66.4444444 C24.8958621,55.705 24.4483448,53.8445556 23.1796552,51.1911111 C20.858069,46.3334444 18.9593793,41.5407778 17.5328276,28.8888889"></path>
                                <path d="M17.6964828,54.7415556 C13.4124828,48.7008889 9.05027586,40.9153333 8.72151724,28.8888889 L0.042,28.8888889 C0.483724138,42.9823333 7.22544828,52.5301111 11.7513103,58.9116667 C13.9555862,62.0172222 15.8528276,64.7024444 15.9194483,66.4444444 L21.5373103,66.4444444 C20.5293103,58.7354444 19.209931,56.8735556 17.6964828,54.7415556"></path>
                                <path d="M29.0958621,66.4444444 C30.1053103,55.796 30.534,53.0356667 32.1589655,49.9055556 C34.6963448,45.0088889 36.1793793,40.4848889 37.4857241,28.8888889 L20.4467586,28.8888889 C21.813931,40.8662222 23.5373793,45.2255556 25.7952414,49.9474444 C27.3333103,53.1656667 27.804,55.6241111 28.8351724,66.4444444 L29.0958621,66.4444444"></path>
                                <path d="M37.8695172,53.0717778 C41.889931,47.4052222 45.9842069,40.1093333 46.3129655,28.8888889 L40.3996552,28.8888889 C39.0368276,41.1074444 37.4002759,46.0835556 34.7311034,51.2315556 C33.4146207,53.7737778 33.0091034,55.9101111 32.0054483,66.4444444 L33.4768966,66.4444444 C34.5877241,57.7171111 36.1837241,55.4493333 37.8695172,53.0717778"></path>
                                <path d="M28.9655172,0.179111111 C11.3530345,0.179111111 0.664758621,9.81066667 0.0579310345,26 L57.8731034,26 C57.2677241,9.81066667 46.578,0.179111111 28.9655172,0.179111111"></path>
                                <polygon points="15.9310345 69.3333333 42 69.3333333 42 72.2222222 15.9310345 72.2222222"></polygon>
                                <path d="M15.9310345,80.8888889 L19.5517241,80.8888889 L23.8965517,86.6666667 L34.0344828,86.6666667 L38.3793103,80.8888889 L42,80.8888889 L42,75.1111111 L15.9310345,75.1111111 L15.9310345,80.8888889 L15.9310345,80.8888889 L15.9310345,80.8888889 Z M32.5862069,83.7777778 L25.3448276,83.7777778 L23.1724138,80.8888889 L34.7586207,80.8888889 L32.5862069,83.7777778 L32.5862069,83.7777778 L32.5862069,83.7777778 Z"></path>
                                <path d="M49.2095172,28.8888889 C48.8807586,40.9153333 44.5185517,48.7008889 40.2345517,54.7401111 C38.7211034,56.8735556 37.4017241,58.7354444 36.3937241,66.4444444 L42.0115862,66.4444444 C42.0782069,64.7024444 43.9754483,62.0172222 46.1797241,58.9116667 C50.7055862,52.5301111 57.4473103,42.9823333 57.8890345,28.8888889 L49.2095172,28.8888889"></path>
                            </g>
                        </g>
                    </g>
                </g>
                <g id="Group-10" transform="translate(0.000000, 135.000000)">
                    <rect id="Rectangle-2" fill="#7ED321" x="0" y="0" width="152" height="167" rx="4"></rect>
                    <text id="15-25-years" font-family="Avenir-Black, Avenir" font-size="18" font-weight="700" fill="#000000">
                        <tspan x="27.027" y="130">15-25 years</tspan>
                    </text>
                    <text id="8-W" font-family="Avenir-Black, Avenir" font-size="18" font-weight="700" fill="#000000">
                        <tspan x="59.508" y="30">8 W</tspan>
                    </text>
                    <text id="20-W" font-family="Avenir-Black, Avenir" font-size="18" font-weight="700" fill="#000000">
                        <tspan x="54.18" y="80">20 W</tspan>
                    </text>
                </g>
                <text id="LED" font-family="Avenir-Black, Avenir" font-size="18" font-weight="700" fill="#000000">
                    <tspan x="59.166" y="115">LED</tspan>
                </text>
            </g>
            <g id="Group-15" transform="translate(0.000000, 152.000000)" font-size="18" font-family="Avenir-Black, Avenir" fill="#000000" font-weight="700">
                <text id="Lifespan">
                    <tspan x="20.995" y="118">Lifespan</tspan>
                </text>
                <text id="800-Lumens">
                    <tspan x="5.524" y="18">800 Lumens</tspan>
                </text>
                <text id="1600-Lumens">
                    <tspan x="0.196" y="68">1600 Lumens</tspan>
                </text>
            </g>
            <path d="M786.742231,186.242726 L144,186.242726" id="Line-Copy" stroke="#000000" stroke-width="2" stroke-linecap="round" stroke-linejoin="round"></path>
            <path d="M786.742231,238.242726 L144,238.242726" id="Line-Copy-2" stroke="#000000" stroke-width="2" stroke-linecap="round" stroke-linejoin="round"></path>
            <path d="M786.742231,290.242726 L144,290.242726" id="Line-Copy-3" stroke="#000000" stroke-width="2" stroke-linecap="round" stroke-linejoin="round"></path>
            <g id="Group-14" transform="translate(158.000000, 0.000000)" fill="#000000">
                <g id="noun_706235_cc" transform="translate(20.000000, 0.000000)">
                    <g id="Group">
                        <path d="M29.934,90 L29.934,90 C27.521,90 25.564,88.044 25.564,85.63 L25.564,84.26 L34.304,84.26 L34.304,85.631 C34.304,88.044 32.348,90 29.934,90 L29.934,90 Z" id="Shape"></path>
                        <path d="M18.601,64.666 L41.268,64.666 L41.268,59.774 C38.269,59.776 35.799,59.784 33.47,59.792 C31.168,59.8 28.998,59.808 26.579,59.808 C24.263,59.808 21.712,59.801 18.602,59.781 L18.601,64.666 L18.601,64.666 Z" id="Shape"></path>
                        <path d="M32.076,58.008 C32.804,58.009 33.448,57.537 33.667,56.843 L41.105,33.326 L41.171,33.347 L40.486,31.798 C39.909,30.494 38.067,30.469 37.455,31.757 L37.455,31.757 C36.852,33.026 35.045,33.026 34.443,31.756 L34.375,31.613 C33.772,30.343 31.965,30.343 31.362,31.613 L31.296,31.753 C30.693,33.023 28.886,33.023 28.283,31.753 L28.219,31.617 C27.616,30.346 25.808,30.347 25.205,31.618 L25.046,31.954 C24.469,33.17 22.764,33.238 22.093,32.07 L21.942,31.807 C21.219,30.548 19.343,30.751 18.906,32.135 L18.674,32.871 C18.57,33.201 18.571,33.555 18.677,33.884 L26.069,56.847 C26.291,57.536 26.931,58.003 27.655,58.004 L32.076,58.008 L32.076,58.008 Z" id="Shape"></path>
                        <rect id="Rectangle-path" x="18.601" y="65.726" width="22.667" height="5.456"></rect>
                        <rect id="Rectangle-path" x="18.601" y="72.241" width="22.667" height="5.447"></rect>
                        <path d="M22.353,82.499 L37.515,82.499 C39.587,82.499 41.267,80.819 41.267,78.747 L41.267,78.747 L18.601,78.747 L18.601,78.747 C18.601,80.819 20.281,82.499 22.353,82.499 L22.353,82.499 Z" id="Shape"></path>
                        <path d="M28.962,0 C13.644,0.373 0.689,13.307 0.751,28.243 C0.774,38.43 9.435,50.957 18.122,58.279 C20.461,58.295 22.472,58.303 24.312,58.307 L16.479,33.971 L17.3,33.707 L18.624,29.517 C19.061,28.132 20.937,27.929 21.66,29.189 L22.004,29.788 C22.675,30.955 24.38,30.888 24.957,29.671 L25.206,29.146 C25.808,27.875 27.617,27.875 28.22,29.145 L28.285,29.282 C28.888,30.552 30.695,30.552 31.298,29.282 L31.364,29.142 C31.967,27.872 33.774,27.872 34.377,29.142 L34.446,29.287 C35.049,30.557 36.855,30.557 37.459,29.288 L37.493,29.216 C38.105,27.928 39.947,27.953 40.524,29.258 L42.506,33.739 L42.467,33.756 L43.129,33.965 L35.437,58.286 C37.332,58.28 39.374,58.275 41.754,58.274 C50.599,50.762 57.231,37.956 57.253,28.245 C57.311,13.307 44.356,0.373 28.962,0 L28.962,0 Z M21.908,7.112 C21.874,7.563 21.528,7.92 21.081,7.992 C19.811,8.195 17.059,8.997 13.594,12.127 C9.898,15.465 8.407,18.968 7.89,20.519 C7.735,20.983 7.265,21.263 6.786,21.167 L6.706,21.151 C6.137,21.037 5.803,20.453 5.984,19.901 C6.571,18.108 8.205,14.3 12.254,10.643 C16.061,7.205 19.18,6.263 20.799,6.013 C21.416,5.918 21.961,6.413 21.914,7.036 L21.908,7.112 L21.908,7.112 Z" id="Shape"></path>
                    </g>
                </g>
                <text id="Standard" font-family="Avenir-Black, Avenir" font-size="18" font-weight="700">
                    <tspan x="10.836" y="120">Standard</tspan>
                </text>
                <text id="1-year" font-family="Avenir-Black, Avenir" font-size="18" font-weight="700">
                    <tspan x="22.842" y="270">1 year</tspan>
                </text>
                <text id="60-W" font-family="Avenir-Black, Avenir" font-size="18" font-weight="700">
                    <tspan x="27.18" y="170">60 W</tspan>
                </text>
                <text id="100-W" font-family="Avenir-Black, Avenir" font-size="18" font-weight="700">
                    <tspan x="21.852" y="220">100 W</tspan>
                </text>
            </g>
            <g id="Group-13" transform="translate(314.000000, 0.000000)">
                <g id="Group-9" transform="translate(21.000000, 0.000000)">
                    <g id="noun_706235_cc-copy">
                        <g id="Group">
                            <path d="M29.934,90 L29.934,90 C27.521,90 25.564,88.044 25.564,85.63 L25.564,84.26 L34.304,84.26 L34.304,85.631 C34.304,88.044 32.348,90 29.934,90 L29.934,90 Z" id="Shape" fill="#000000"></path>
                            <path d="M18.601,64.666 L41.268,64.666 L41.268,59.774 C38.269,59.776 35.799,59.784 33.47,59.792 C31.168,59.8 28.998,59.808 26.579,59.808 C24.263,59.808 21.712,59.801 18.602,59.781 L18.601,64.666 L18.601,64.666 Z" id="Shape" fill="#000000"></path>
                            <rect id="Rectangle-path" fill="#000000" x="18.601" y="65.726" width="22.667" height="5.456"></rect>
                            <rect id="Rectangle-path" fill="#000000" x="18.601" y="72.241" width="22.667" height="5.447"></rect>
                            <path d="M22.353,82.499 L37.515,82.499 C39.587,82.499 41.267,80.819 41.267,78.747 L41.267,78.747 L18.601,78.747 L18.601,78.747 C18.601,80.819 20.281,82.499 22.353,82.499 L22.353,82.499 Z" id="Shape" fill="#000000"></path>
                            <path d="M21.908,7.112 C21.874,7.563 21.528,7.92 21.081,7.992 C19.811,8.195 17.059,8.997 13.594,12.127 C9.898,15.465 8.407,18.968 7.89,20.519 C7.735,20.983 7.265,21.263 6.786,21.167 L6.706,21.151 C6.137,21.037 5.803,20.453 5.984,19.901 C6.571,18.108 8.205,14.3 12.254,10.643 C16.061,7.205 19.18,6.263 20.799,6.013 C21.416,5.918 21.961,6.413 21.914,7.036 L21.908,7.112 L21.908,7.112 Z" id="Combined-Shape" fill="#FFFFFF"></path>
                            <path d="M36.9851577,58.2814777 C36.3482846,58.4245193 35.6858596,58.5 35.0057994,58.5 L24.9942006,58.5 C24.3507778,58.5 23.723135,58.4323855 23.1179797,58.3038809 C21.6051521,58.299251 19.9654455,58.2916101 18.122,58.279 C9.435,50.957 0.774,38.43 0.751,28.243 C0.689,13.307 13.644,0.373 28.962,0 C44.356,0.373 57.311,13.307 57.253,28.245 C57.231,37.956 50.599,50.762 41.754,58.274 C40.007539,58.2747338 38.4430818,58.2776215 36.9851577,58.2814777 Z" id="Combined-Shape" fill="#000000"></path>
                        </g>
                    </g>
                    <rect id="Rectangle" fill="#FFFFFF" x="23" y="42" width="13" height="17"></rect>
                    <g id="noun_276550_cc" transform="translate(20.000000, 15.000000)">
                        <g id="58---Halogen-Bulb-(Solid)">
                            <path d="M12.6,19.2 C12.9312,19.2 13.2,19.4682 13.2,19.8 C13.2,20.1318 12.9312,20.4 12.6,20.4 L9.6,20.4 L9.6,21.6 C9.6,21.9318 9.3312,22.2 9,22.2 C8.6688,22.2 8.4,21.9318 8.4,21.6 L8.4,20.4 L5.4,20.4 C5.0688,20.4 4.8,20.1318 4.8,19.8 C4.8,19.4682 5.0688,19.2 5.4,19.2 L8.4,19.2 L8.4,18 L5.4,18 C5.0688,18 4.8,17.7318 4.8,17.4 C4.8,17.0682 5.0688,16.8 5.4,16.8 L8.4,16.8 L8.4,15.6 C8.4,15.2682 8.6688,15 9,15 C9.3312,15 9.6,15.2682 9.6,15.6 L9.6,16.8 L12.6,16.8 C12.9312,16.8 13.2,17.0682 13.2,17.4 C13.2,17.7318 12.9312,18 12.6,18 L9.6,18 L9.6,19.2 L12.6,19.2 L12.6,19.2 L12.6,19.2 Z" id="Path" fill="#FFFFFF"></path>
                            <path d="M8.4,24.6 L5.4852,24.6 C5.7534,25.632 6.6852,26.4 7.8,26.4 L8.4,26.4 L8.4,24.6" id="Shape" fill="#000000"></path>
                            <path d="M9.6,24.6 L9.6,26.4 L10.2,26.4 C11.3148,26.4 12.2466,25.632 12.5148,24.6 L9.6,24.6" id="Shape" fill="#000000"></path>
                            <polygon id="Shape" fill="#000000" points="9.6 31.2 10.8 31.2 10.8 36 9.6 36"></polygon>
                            <g id="Shape">
                                <use fill="#000000" fill-rule="evenodd" xlink:href="#path-1"></use>
                                <use stroke="#FFFFFF" mask="url(#mask-2)" stroke-width="2" xlink:href="#path-1"></use>
                            </g>
                            <polygon id="Shape" fill="#000000" points="7.2 31.2 8.4 31.2 8.4 36 7.2 36"></polygon>
                        </g>
                    </g>
                </g>
                <text id="1-3-years" font-family="Avenir-Black, Avenir" font-size="18" font-weight="700" fill="#000000">
                    <tspan x="10.683" y="270">1-3 years</tspan>
                </text>
                <text id="43-W" font-family="Avenir-Black, Avenir" font-size="18" font-weight="700" fill="#000000">
                    <tspan x="27.18" y="170">43 W</tspan>
                </text>
                <text id="72-W" font-family="Avenir-Black, Avenir" font-size="18" font-weight="700" fill="#000000">
                    <tspan x="27.18" y="220">72 W</tspan>
                </text>
                <text id="Halogen" font-family="Avenir-Black, Avenir" font-size="18" font-weight="700" fill="#000000">
                    <tspan x="14.004" y="120">Halogen</tspan>
                </text>
            </g>
            <g id="Group-12" transform="translate(470.000000, 4.000000)" fill="#000000">
                <g id="noun_591536_cc" transform="translate(29.000000, 0.000000)">
                    <g id="Group">
                        <g transform="translate(0.068182, 0.000000)" id="Shape">
                            <path d="M24.22,81.9085593 C23.7127273,82.0453482 21.7032727,82.3914407 20.1012727,82.4013291 L20.1012727,82.4029771 C20.1012727,82.4029771 20.1012727,82.4029771 20.0996364,82.4029771 L20.062,82.4029771 L20.0243636,82.4029771 C20.0243636,82.4029771 20.0243636,82.4029771 20.0227273,82.4029771 L20.0227273,82.4013291 C18.4207273,82.3914407 16.4096364,82.0469963 15.904,81.9085593 C15.6487273,81.7421053 14.9565455,80.7203083 14.4018182,79.8550771 C16.246,80.0808612 18.1654545,80.2011696 20.062,80.2028177 C21.9601818,80.2011696 23.878,80.0792132 25.7221818,79.8550771 C25.1674545,80.7203083 24.4769091,81.7421053 24.22,81.9085593 L24.22,81.9085593 Z"></path>
                            <path d="M31.2661818,59.7487507 L31.2661818,72.7865497 C31.2661818,72.7865497 28.8721818,76.5111643 27.7790909,77.9515683 C25.5209091,78.3652313 22.906,78.6140883 20.0227273,78.6140883 C17.1394545,78.6140883 14.5245455,78.3652313 12.2663636,77.9515683 C11.1732727,76.5111643 8.77927273,72.7865497 8.77927273,72.7865497 L8.77927273,59.7487507 C12.0307273,60.6139819 16.0790909,61.0639022 20.0227273,61.0639022 C23.9663636,61.0639022 28.0147273,60.6139819 31.2661818,59.7487507 L31.2661818,59.7487507 Z"></path>
                            <path d="M39.7114545,17.8781499 C40.0223636,19.8475811 38.6887273,21.6967039 36.7349091,22.0098352 L4.438,27.1715577 C2.48254545,27.484689 0.646545455,26.1398724 0.337272727,24.1704413 L0.337272727,24.1704413 C0.0247272727,22.2010101 1.36,20.3518873 3.31381818,20.038756 L35.6090909,14.8786816 C37.5645455,14.5639022 39.4021818,15.9070707 39.7114545,17.8781499 L39.7114545,17.8781499 L39.7114545,17.8781499 Z"></path>
                            <path d="M39.7114545,9.3774588 C39.4038182,7.40802764 37.5645455,6.06485912 35.6107273,6.37634237 L3.31545455,11.5380649 C1.36163636,11.8495481 0.0263636364,13.700319 0.338909091,15.6697501 L0.338909091,15.6697501 C0.648181818,17.6391813 2.48581818,18.9823498 4.44127273,18.6708666 L36.7365455,13.5107921 C38.6887273,13.1976608 40.024,11.34689 39.7114545,9.3774588 L39.7114545,9.3774588 L39.7114545,9.3774588 Z"></path>
                            <path d="M22.0567273,0.0461456672 L19.4630909,0.458160553 L5.90745455,2.62700691 L3.31545455,3.0390218 C1.36163636,3.35215311 0.0263636364,5.20292398 0.338909091,7.17235513 C0.648181818,9.14178628 2.48581818,10.4849548 4.44127273,10.1718235 L7.03327273,9.75816055 L20.5872727,7.59096225 L23.1809091,7.17729931 C25.1347273,6.86581606 26.47,5.01504519 26.1590909,3.04561404 C25.8481818,1.07618288 24.0105455,-0.268633705 22.0567273,0.0461456672 L22.0567273,0.0461456672 Z"></path>
                            <path d="M36.7349091,30.5088783 C38.6887273,30.1957469 40.024,28.3449761 39.7130909,26.3755449 C39.5036364,25.0455609 38.5905455,24.0171717 37.4254545,23.5754918 C36.8625455,23.3628921 36.2472727,23.2738969 35.6123636,23.3760766 L29.4007273,24.3682084 L11.5872727,27.2160553 L4.41672727,28.3614567 L3.31709091,28.537799 C1.36163636,28.8492823 0.028,30.7000532 0.338909091,32.6694843 C0.648181818,34.6389155 2.48581818,35.982084 4.44127273,35.6689527 L6.12509091,35.3986709 C6.454,37.3021797 6.68472727,39.2386497 6.80581818,41.2047847 L4.23181818,41.2047847 C3.36618182,41.2047847 2.66254545,41.9118022 2.66254545,42.7852738 L2.66254545,50.1092504 C2.66254545,51.1046784 2.85727273,51.8611377 3.28763636,52.6340776 C3.52,53.0493886 3.82436364,53.4729399 4.20890909,53.9360447 C4.20727273,53.9376927 4.204,53.9393408 4.20236364,53.9409888 C4.618,54.4337586 5.13018182,54.9908028 5.74054545,55.6434343 C6.31163636,56.2548644 6.96781818,56.9503456 7.72218182,57.7727273 C8.99690909,58.2111111 10.5661818,58.595109 12.3727273,58.8884636 C14.5703636,59.2477406 17.1263636,59.4735247 20.0194545,59.4735247 L20.0243636,59.4735247 L20.0292727,59.4735247 C22.9289091,59.4735247 25.4898182,59.2477406 27.6907273,58.8868155 C29.4923636,58.5918129 31.0550909,58.2094631 32.3265455,57.7727273 C33.0874545,56.9454014 33.7485455,56.2449761 34.3212727,55.6302499 C34.9250909,54.9825625 35.434,54.4304625 35.8463636,53.9409888 C35.8447273,53.9393408 35.8414545,53.9376927 35.8398182,53.9360447 C36.2243636,53.4729399 36.5270909,53.0493886 36.7610909,52.6340776 C37.1930909,51.8627858 37.3878182,51.1046784 37.3878182,50.1092504 L37.3878182,42.7852738 C37.3878182,41.9118022 36.6825455,41.2047847 35.8169091,41.2047847 L33.2592727,41.2047847 C33.4769091,37.6284955 34.048,34.1461457 34.9381818,30.7939926 L36.7349091,30.5088783 L36.7349091,30.5088783 Z M26.0494545,41.2064327 L20.0227273,41.2064327 L14.0123636,41.2064327 C13.8863636,38.8530037 13.6130909,36.5391281 13.2252727,34.264806 L27.2538182,32.023445 C26.6270909,35.0097289 26.218,38.0767677 26.0494545,41.2064327 L26.0494545,41.2064327 Z"></path>
                        </g>
                    </g>
                </g>
                <text id="6-10-years" font-family="Avenir-Black, Avenir" font-size="18" font-weight="700">
                    <tspan x="5.355" y="266">6-10 years</tspan>
                </text>
                <text id="14-W" font-family="Avenir-Black, Avenir" font-size="18" font-weight="700">
                    <tspan x="27.18" y="166">14 W</tspan>
                </text>
                <text id="23-W" font-family="Avenir-Black, Avenir" font-size="18" font-weight="700">
                    <tspan x="27.18" y="216">23 W</tspan>
                </text>
                <text id="CFL" font-family="Avenir-Black, Avenir" font-size="18" font-weight="700">
                    <tspan x="33.165" y="116">CFL</tspan>
                </text>
            </g>
        </g>
    </g>
</svg>