<?xml version="1.0" encoding="UTF-8"?>
<svg width="960px" height="209px" viewBox="0 0 960 209" version="1.1" xmlns="http://www.w3.org/2000/svg" xmlns:xlink="http://www.w3.org/1999/xlink">
    <!-- Generator: Sketch 40.3 (33839) - http://www.bohemiancoding.com/sketch -->
    <title>Group 8</title>
    <desc>Created with Sketch.</desc>
    <defs></defs>
    <g id="Page-1" stroke="none" stroke-width="1" fill="none" fill-rule="evenodd">
        <g id="Group-8">
            <g id="Group-5" transform="translate(361.000000, 0.000000)" fill="#000000">
                <text id="Buy-energy-efficient" font-family="Avenir-Black, Avenir" font-size="18" font-weight="700">
                    <tspan x="21.335" y="154">Buy energy-</tspan>
                    <tspan x="0.023" y="179">efficient, or solar </tspan>
                    <tspan x="13.19" y="204">water heaters</tspan>
                </text>
                <g id="noun_514218_cc" transform="translate(55.000000, 0.000000)">
                    <g id="Group">
                        <g>
                            <path d="M19.1571429,0.954545455 L14.9528571,0.954545455 C14.5928571,0.954545455 14.31,1.24727273 14.31,1.59090909 L14.31,2.78727273 L19.8,2.78727273 L19.8,1.59090909 C19.8,1.24727273 19.5171429,0.954545455 19.1571429,0.954545455 L19.1571429,0.954545455 Z" id="Shape"></path>
                            <polygon id="Shape" points="11.61 5.14181818 11.61 6.91090909 14.31 6.91090909 19.8 6.91090909 22.5385714 6.91090909 22.5385714 5.14181818"></polygon>
                            <polygon id="Shape" points="22.2042857 4.67090909 20.1342857 3.24545455 13.9885714 3.24545455 11.9442857 4.67090909"></polygon>
                            <path d="M34.5085714,7.36909091 L1.64571429,7.36909091 C0.912857143,7.36909091 0.308571429,7.95454545 0.308571429,8.69272727 L0.308571429,10.2709091 L0.308571429,10.3218182 L0.308571429,10.5509091 L0.308571429,11.0727273 L0.308571429,11.0727273 L35.7942857,11.0727273 L35.7942857,10.5509091 L35.7942857,10.3218182 L35.7942857,10.2709091 L35.7942857,8.65454545 C35.7942857,7.94181818 35.2157143,7.36909091 34.5085714,7.36909091 L34.5085714,7.36909091 Z" id="Shape"></path>
                            <rect id="Rectangle-path" x="3.93428571" y="108.309091" width="28.2214286" height="2.72363636"></rect>
                            <polygon id="Shape" points="4.56428571 34.0709091 5.34857143 34.0709091 5.34857143 38.5763636 12.1242857 38.5763636 12.1242857 28.2927273 5.34857143 28.2927273 5.34857143 32.7472727 4.56428571 32.7472727"></polygon>
                            <path d="M30.6257143,20.3254545 C30.2271429,19.6381818 29.4557143,19.2690909 28.6457143,19.3709091 C27.8228571,19.4727273 27.18,20.0327273 26.9614286,20.8218182 L26.8842857,21.3818182 L26.9742857,21.9036364 C27.18,22.6672727 27.8357143,23.2272727 28.6585714,23.3290909 C29.4685714,23.4309091 30.2271429,23.0618182 30.6385714,22.3618182 L30.8442857,21.84 L30.9085714,21.3690909 L30.8314286,20.8090909 L30.6257143,20.3254545 L30.6257143,20.3254545 Z" id="Shape"></path>
                            <path d="M0.308571429,11.7218182 L0.308571429,106.12 C0.308571429,106.832727 0.887142857,107.405455 1.60714286,107.405455 L34.4957143,107.405455 C35.2157143,107.405455 35.7942857,106.832727 35.7942857,106.12 L35.7942857,11.7218182 L0.308571429,11.7218182 L0.308571429,11.7218182 Z M12.6514286,39.0854545 L4.83428571,39.0854545 L4.83428571,34.58 L4.05,34.58 L4.05,32.2381818 L4.83428571,32.2381818 L4.83428571,27.7709091 L12.6514286,27.7709091 L12.6514286,39.0854545 L12.6514286,39.0854545 Z M31.3328571,21.98 L31.0885714,22.6036364 C30.6385714,23.3927273 29.8285714,23.8636364 28.9285714,23.8636364 C28.8128571,23.8636364 28.71,23.8509091 28.5942857,23.8381818 C27.5528571,23.7109091 26.7428571,23.0109091 26.4728571,22.0054545 L26.3571429,21.3818182 L26.4471429,20.72 C26.73,19.7018182 27.54,19.0018182 28.5685714,18.8745455 C29.5971429,18.7472727 30.5614286,19.2181818 31.0757143,20.1090909 L31.32,20.72 L31.41,21.3818182 L31.3328571,21.98 L31.3328571,21.98 Z" id="Shape"></path>
                        </g>
                    </g>
                </g>
            </g>
            <g id="Group-4" transform="translate(166.000000, 28.000000)" fill="#000000">
                <text id="Use-low-flow-faucets" font-family="Avenir-Black, Avenir" font-size="18" font-weight="700">
                    <tspan x="9.686" y="126">Use low-flow</tspan>
                    <tspan x="16.004" y="151">faucets and </tspan>
                    <tspan x="8.849" y="176">showerheads</tspan>
                </text>
                <g id="noun_294_cc" transform="translate(25.000000, 0.000000)">
                    <g id="Group">
                        <path d="M70.7656,44.0522796 C72.732,51.1737849 75.4344,53.6993333 78.836,60.590086 C82.136,67.2771398 77.2456,74 70.7656,74 C64.2888,74 59.3976,67.2787312 62.7,60.590086 C66.0976,53.6993333 68.8024,51.1745806 70.7656,44.0522796 L70.7656,44.0522796 Z" id="Shape"></path>
                        <path d="M52.8336,14.332129 L30.4192,14.332129 L30.4192,6.36956989 L40.8264,6.36956989 C42.5944,6.36956989 44.028,4.94367742 44.028,3.1851828 C44.028,1.42589247 42.5944,0 40.8264,0 L12.008,0 C10.2392,0 8.8056,1.42589247 8.8056,3.1851828 C8.8056,4.94367742 10.2392,6.36956989 12.008,6.36956989 L22.4152,6.36956989 L22.4152,14.332129 L0,14.332129 L0,30.2564516 L52.8336,30.2564516 C56.0696,30.2564516 59.0208,31.465914 61.2776,33.4416344 L80,33.4416344 C76.0352,22.3209462 65.3568,14.332129 52.8336,14.332129 L52.8336,14.332129 Z" id="Shape"></path>
                    </g>
                </g>
            </g>
            <g id="Group-6" transform="translate(572.000000, 9.000000)">
                <text id="Purchase-appliances" font-family="Avenir-Black, Avenir" font-size="18" font-weight="700" fill="#000000">
                    <tspan x="43.831" y="145">Purchase </tspan>
                    <tspan x="3.628" y="170">appliances labeled </tspan>
                    <tspan x="0.982" y="195">with “Energy Star”</tspan>
                </text>
                <g id="Energy_Star_logo" transform="translate(36.000000, 0.000000)">
                    <g id="Layer_x0020_1">
                        <g id="_148220104">
                            <polygon id="_24510480" fill="#0093DD" points="89.7865052 92.7576104 2.21272252 92.7576104 2.21272252 73.0097476 89.7865052 73.0097476"></polygon>
                            <g id="Group">
                                <polygon id="_24509704" fill="#FFFFFF" points="91.9420823 73.0097476 0.0581745924 73.0097476 0.0581745924 0.0681959298 91.9420823 0.0681959298"></polygon>
                                <g transform="translate(2.153349, 2.172713)">
                                    <g>
                                        <path d="M43.8422696,8.23922713 C61.8493204,8.23922713 77.8172978,17.1861593 87.6330815,30.9049685 L87.6330815,0.0731979495 L0.0622986279,0.0731979495 L0.0622986279,30.8936554 C9.86909766,17.1836869 25.8389314,8.23922713 43.8421953,8.23922713 L43.8422696,8.23922713 Z" id="_24509072" fill="#0093DD"></path>
                                        <path d="M43.8422696,10.4168849 C25.6106764,10.4168849 9.51483454,19.8176893 0.0623728814,34.0666404 L0.0623728814,68.6579535 L87.6331558,68.6579535 L87.6331558,34.0785528 C78.1810654,19.8232334 62.0798773,10.4169598 43.8423438,10.4169598 L43.8422696,10.4168849 Z" id="_24503008" fill="#0093DD"></path>
                                        <path d="M43.8422696,10.4168849 C62.0798773,10.4168849 78.1810654,19.8231585 87.6330815,34.0784779 L87.6330815,30.9049759 C77.8172236,17.1861668 61.8492462,8.23923462 43.8422696,8.23923462 C25.8390056,8.23923462 9.86917191,17.1836944 0.0623728814,30.8936629 L0.0623728814,34.0666329 C9.51476029,19.8176818 25.6106021,10.4168774 43.8422696,10.4168774 L43.8422696,10.4168849 Z" id="_24502744" fill="#FFFFFF"></path>
                                    </g>
                                    <g transform="translate(1.262308, 23.075710)" fill="#FFFFFF">
                                        <path d="M7.42519451,23.635071 C7.24067177,23.9997369 7.10464765,24.3386516 6.99344274,24.6666826 C3.47383015,25.7282027 1.12958253,24.7856124 0.973383019,24.7172986 C0.623193446,24.570406 0.217401421,24.7337577 0.0712038418,25.0868314 C-0.0807817918,25.4416744 0.0799739144,25.8458949 0.432531429,25.9971232 C0.598374237,26.0726931 3.03672546,27.0787296 6.67859632,26.1928621 C6.67771931,26.2391422 6.66956309,26.2909968 6.66956309,26.3367459 C6.66956309,27.3702156 7.10070078,28.0744143 7.66576196,28.4438579 C9.24710014,29.4846698 12.7280341,28.596945 17.7792277,23.3936714 C17.4531556,24.3337818 17.1601464,25.3623891 16.9722043,26.4281572 C16.9649251,26.4739063 16.9618556,26.5220446 16.9618556,26.564166 C16.9618556,26.8568013 17.1322583,27.1220041 17.4033419,27.2305813 C17.949017,27.4542831 18.2628997,26.9964378 18.5393303,26.5970841 L19.2394474,25.54415 C19.8464253,24.6234142 21.2096507,22.5516125 22.1344549,21.4686725 C22.021759,22.0636767 21.9084498,22.7357537 21.9084498,23.3722612 C21.9084498,24.232648 22.1148105,25.0203763 22.8046664,25.4276102 C23.3829662,25.7654633 24.3083875,25.8861635 26.3163859,24.6782789 C26.4846842,25.1471856 26.8248763,25.369117 27.0203611,25.4617667 C28.3026362,26.0617262 30.7191472,24.7642921 33.2410759,22.3304753 C32.9006209,23.1003349 32.6407629,23.7411729 32.5730578,24.0100948 C32.5567455,24.0844261 32.5498171,24.155749 32.5498171,24.2198148 C32.5498171,24.5429789 32.743724,24.7765028 32.9676248,24.8795044 C33.52207,25.1258593 33.8743632,24.6356271 34.1529026,24.2356539 L34.9130944,23.1272331 C35.5442783,22.187827 37.0268594,19.9867414 37.893085,19.0728159 C38.1498735,19.7056935 38.6067956,20.5044015 39.4295147,20.9698565 C39.1904417,21.5155716 39.0702915,21.9872181 39.0702915,22.3819701 C39.0702915,22.8680435 39.2512189,23.2350971 39.6125465,23.4833108 C40.2610076,23.9283251 41.2456244,23.6839166 42.2719925,23.1205037 C38.9959237,26.4007233 37.489136,29.6681989 37.441688,31.1186346 C37.4401971,31.1455354 37.4401971,31.174737 37.4401971,31.2015491 C37.4401971,32.0100755 37.8338866,32.3343941 38.0764673,32.4558038 C38.5738198,32.7075568 39.1808015,32.5509304 39.8853849,31.988756 C42.3529377,30.010838 44.1492322,25.3191191 45.0671085,22.4473995 C46.2976438,21.4354322 47.7391776,20.4498372 49.3939227,19.5496298 C48.8567541,20.5007161 48.5524309,21.3997698 48.5524309,22.1274188 C48.5524309,22.3896136 48.5917209,22.6321632 48.6666178,22.8443616 C48.8567533,23.3534425 49.2646505,23.6789981 49.7836641,23.732709 C50.9218504,23.8582761 52.4962533,22.6547287 54.3532351,20.343112 C54.1948473,20.8025502 54.0371605,21.2488936 53.8809654,21.6863806 C48.7252899,25.7849563 46.4073577,30.1682023 46.110641,32.545375 C46.0840676,32.7393444 46.070737,32.917297 46.070737,33.0825955 C46.070737,34.0300557 46.4493419,34.4690486 46.7970767,34.6684138 C47.1892751,34.8934431 47.8564132,35.0013116 48.8358605,34.2452562 C49.9265988,33.4051355 52.5279861,29.2919652 55.0465808,22.5156781 C58.3909701,19.9239987 62.9746938,17.4438993 69.0723855,15.7438339 C69.3778477,15.6566714 69.5814892,15.3777527 69.5814892,15.0685697 C69.5814892,15.0094586 69.5709652,14.9457462 69.5552666,14.8860153 C69.4524813,14.5128549 69.0723855,14.2976484 68.7005354,14.3991456 C63.3759482,15.8886901 59.1571875,17.9691677 55.8617461,20.2242414 C56.2545586,19.0483916 56.6451792,17.8045809 57.0246587,16.4965328 C57.0434267,16.431316 57.051583,16.3669844 57.051583,16.3002627 C57.051583,16.0334662 56.8968782,15.7801212 56.6451769,15.6657923 C56.331295,15.5240317 55.9623371,15.6371217 55.7798348,15.9273674 C52.3439727,21.3716916 50.3976269,22.3600287 49.9685089,22.3515326 C49.9437772,22.3039253 49.9265879,22.2365849 49.9265879,22.1387154 C49.9265879,21.5180492 50.4537583,19.9671787 52.1539309,18.1496969 C52.2747828,18.0176701 52.3439788,17.8457351 52.3439788,17.6713224 C52.3439788,17.5326591 52.2986374,17.3940843 52.2167248,17.2742696 C52.0282555,17.0059696 51.6804331,16.901994 51.3807574,17.0294191 C49.211384,17.9554593 47.3418683,19.0514057 45.7160671,20.2135374 C45.7332565,20.1474357 45.7478149,20.0958461 45.7514107,20.0739009 C45.7634257,20.0162942 45.777107,19.961696 45.777107,19.9050631 C45.777107,19.6510977 45.6326633,19.4093444 45.4020975,19.2895298 C45.3878899,19.2843089 45.3779798,19.2843089 45.3652631,19.2788226 C45.8399007,18.9020337 46.3290949,18.4874606 46.8436415,18.0085572 C47.38537,17.4985031 47.5249026,17.0376467 47.5249026,16.6943956 C47.5249026,16.5444057 47.4971891,16.4199894 47.4657044,16.3222083 C47.3065274,15.8294985 46.8547799,15.5051859 46.2351692,15.4301448 C44.7096102,15.2505993 42.2937154,16.554756 40.128025,19.7700265 C39.3895828,19.3712041 39.1004318,18.3981756 38.9666048,17.9533388 L38.9124933,17.7759174 C38.823038,17.484167 38.5601987,17.3013474 38.2544728,17.3029402 C37.7879036,17.3083381 37.2845893,17.633272 36.4980822,18.5658633 C36.5086939,18.5444489 36.5192181,18.5201142 36.5328994,18.5021509 C36.577013,18.4048126 36.5965703,18.3018102 36.5965703,18.1996935 C36.5965703,17.9621875 36.4763325,17.7336188 36.2651483,17.6030965 C35.9588091,17.4180645 35.5651189,17.4961128 35.3541998,17.782642 C31.5056223,23.011935 28.13641,24.464933 27.60927,24.200349 C27.6055866,24.1844208 27.5934838,24.1472552 27.5934838,24.0576152 C27.5934838,23.9985042 27.6040956,23.9124923 27.6212851,23.8106407 C28.4820679,23.190063 29.4970307,22.3789652 30.6998545,21.3238209 C31.8143614,20.3468044 32.0706174,19.557218 32.0706174,19.0356545 C32.0706174,18.7975289 32.0158921,18.6179834 31.9685338,18.500558 C31.7400731,17.9621875 31.1901871,17.6637114 30.5255001,17.7229141 C29.0972873,17.847242 27.3124873,19.5337654 26.4139911,22.9656554 C24.1829651,24.5027225 23.580547,24.2691933 23.4995143,24.2215884 C23.1958935,24.0454053 23.2200994,23.081491 23.5663424,21.3585971 C23.7173635,20.5930754 23.7877877,20.2453065 23.6173844,19.9270115 C23.4511911,19.6139356 23.1620408,19.428284 22.8239568,19.4129753 C22.0991082,19.377314 21.2773469,20.1437224 19.570513,22.5790451 C20.2476524,20.9561484 20.9068966,19.8419738 20.9198835,19.8255136 C20.9882025,19.7108311 21.0195992,19.587388 21.0195992,19.4639449 C21.0195992,19.2456412 20.9190058,19.0304348 20.7273793,18.8932759 C20.4347212,18.6816971 20.0274382,18.7383307 19.7944146,19.0228243 C13.7248056,26.4983353 9.59785932,28.0524694 8.41982865,27.2793582 C8.1681266,27.11229 8.04578442,26.7885064 8.04578442,26.3549962 C8.04578442,26.1758051 8.0741995,25.97396 8.11647139,25.7587536 C10.3894134,24.9423454 13.0164998,23.3747555 15.7988798,20.497694 C17.4409944,18.8045363 18.3220336,17.2157063 18.3220336,16.0090564 C18.3220336,15.7371279 18.278534,15.4862597 18.1885527,15.2573352 C17.9450074,14.6311826 17.383898,14.2491739 16.6536972,14.2113912 C14.4731041,14.1098933 10.7755432,16.9809409 7.42510958,23.6351215 L7.42519451,23.635071 Z M16.5884391,15.6045741 C16.844701,15.6179361 16.8851313,15.7182834 16.9063551,15.7667754 C16.9271402,15.8295145 16.9428387,15.9130484 16.9428387,16.0090599 C16.9428387,16.615479 16.4165453,17.8683177 14.8103916,19.5260752 C12.6588242,21.7497271 10.6239832,23.1308757 8.80839773,23.9692282 C12.0001889,17.7704408 15.2611693,15.5414995 16.5884494,15.6045831 L16.5884391,15.6045741 Z M30.1994641,19.2591073 C30.4255569,19.1370802 30.5856116,19.1115066 30.6792764,19.1115066 C30.6442837,19.2767167 30.4683558,19.6791676 29.7937597,20.2742602 C29.2912333,20.7113988 28.8278191,21.1065066 28.402733,21.4549798 C29.1048668,19.9672034 29.9048725,19.4145851 30.1994656,19.2591088 L30.1994641,19.2591073 Z M45.5179467,16.8633391 C45.7701745,16.8041396 45.9430335,16.8026352 46.0536243,16.817236 C46.01679,16.8648434 45.9768856,16.9188223 45.9016387,16.9855434 C44.3160087,18.4695138 42.9201556,19.414584 41.8145963,19.7806636 C43.5452878,17.5143592 45.0444497,16.9770473 45.5179415,16.8633395 L45.5179467,16.8633391 Z M43.4346999,20.5863651 C42.0977001,21.7792969 40.8816368,22.3289933 40.4510263,22.3304917 C40.4562007,22.1994389 40.514171,21.896096 40.7821855,21.3330367 C41.5701777,21.3625922 42.4521006,21.1183606 43.4347036,20.5863614 L43.4346999,20.5863651 Z M42.8992859,24.4423837 C41.9602696,26.8793884 40.6289724,29.6132756 39.0258854,30.8954834 C38.9470424,30.9589305 38.8802143,31.0083079 38.8231208,31.0485705 C38.8953864,30.0412933 40.1160067,27.3354566 42.8992852,24.4423769 L42.8992859,24.4423837 Z M47.4536869,33.079517 C47.4536869,32.7594501 47.5249878,32.2466562 47.783355,31.5101514 C48.4165556,29.6846979 50.0040301,27.0872646 52.8157253,24.4277965 C50.7004679,29.5486861 48.7201809,32.5771932 47.9944501,33.1447208 C47.7570433,33.32462 47.5912013,33.4051459 47.5026229,33.4313384 C47.4764003,33.3678913 47.4536857,33.2636506 47.4536857,33.0795035 L47.4536869,33.079517 Z" id="_24502000"></path>
                                        <path d="M67.2221501,0.0657807571 C66.7940821,0.0657807571 66.4139832,0.327002287 66.2559496,0.729452405 C66.2559496,0.729452405 62.4656016,10.5390265 62.0306027,11.6593972 C60.8413747,11.7252335 50.4734276,12.2770545 50.4734276,12.2770545 C49.9235423,12.30661 49.4924061,12.767552 49.4924061,13.317784 C49.4924061,13.3352165 49.495388,13.3546842 49.495388,13.3738864 C49.5247678,13.9476527 50.0099293,14.3887756 50.5846338,14.3613395 L62.8073424,13.7074016 C63.2106789,13.6875799 63.5684104,13.4260045 63.7170658,13.045588 C63.7170658,13.045588 66.0314041,7.04573112 67.219756,3.97735848 C68.4014399,7.04024689 70.7061328,13.0093261 70.7061328,13.0093261 C70.8526808,13.3897427 71.2064665,13.6468054 71.6068194,13.6717593 C71.6068194,13.6717593 77.9184798,14.0363361 81.1441528,14.2250849 C78.6569525,16.3083944 73.7779749,20.401396 73.7779749,20.401396 C73.5350429,20.6022671 73.4005974,20.8949023 73.4005974,21.2018759 C73.4005974,21.2897464 73.4112092,21.3762886 73.4323451,21.4604422 C73.4323451,21.4604422 74.998595,27.6384316 75.8059748,30.8052806 C73.0890864,29.0377037 67.7959603,25.5910317 67.7959603,25.5910317 C67.4587502,25.3690996 67.0194551,25.3690996 66.6804882,25.5855454 C66.6804882,25.5855454 61.3289766,29.0249575 58.5571629,30.8021842 C59.4028649,27.7261996 60.9216669,22.1893254 60.9216669,22.1893254 C60.9413119,22.0984468 60.9555194,22.0021701 60.9555194,21.9119104 C60.9555194,21.4534455 60.6567222,21.0366592 60.196293,20.9071131 C59.6463201,20.7537607 59.0738113,21.0799329 58.9236634,21.6360021 L55.8490442,32.8624098 C55.7354714,33.2745944 55.8856155,33.7215529 56.2297542,33.9770265 C56.5738928,34.2331152 57.0409878,34.2452382 57.4024015,34.0166698 C57.4024015,34.0166698 66.2266049,28.3487361 67.2303627,27.7048863 C68.2243637,28.3536921 76.9026146,34.0007416 76.9026146,34.0007416 C77.2619254,34.2331155 77.7202488,34.2227621 78.0686013,33.972071 C78.3399479,33.7715536 78.499739,33.4563536 78.499739,33.1264661 C78.499739,33.0404544 78.4855314,32.9496642 78.4637816,32.8673686 C78.4637816,32.8673686 75.8872173,22.7278418 75.5986759,21.5829719 C76.4962959,20.8275346 84.4814653,14.1363055 84.4814653,14.1363055 C84.7198366,13.93393 84.8558607,13.6390824 84.8558607,13.3352113 C84.8558607,13.223626 84.8377066,13.1160227 84.8017492,13.0093043 C84.6724777,12.6023409 84.3059754,12.3193511 83.881415,12.2943971 C83.881415,12.2943971 73.5773408,11.6978001 72.3902512,11.6273622 C71.9555174,10.5115992 68.1835865,0.729408771 68.1835865,0.729408771 C68.0303727,0.328550727 67.6458045,0.065737123 67.2221234,0.065737123 L67.2221501,0.0657807571 Z" id="_24501840"></path>
                                    </g>
                                </g>
                            </g>
                            <polygon id="_24499960" fill="#FFFFFF" points="89.7865052 73.0097476 89.7865052 92.7576104 2.21272252 92.7576104 2.21272252 73.0097476 0.0581745924 73.0097476 0.0581745924 92.7576104 0.0581745924 94.9318218 2.21272252 94.9318218 89.7865052 94.9318218 91.9391122 94.9318218 91.9420823 94.9318218 91.9420823 73.0097476"></polygon>
                            <g id="Group" transform="translate(5.940274, 77.093849)" fill="#FFFFFF">
                                <polygon id="_24499296" points="0.0494676352 11.3153391 0.0494676352 0.264471609 5.69249072 0.264471609 5.69249072 1.49018139 1.44443713 1.49018139 1.44443713 5.04069401 5.38886844 5.04069401 5.38886844 6.26640379 1.44443713 6.26640379 1.44443713 10.0911278 5.78345117 10.0911278 5.78345117 11.3153391"></polygon>
                                <polygon id="_24498632" points="15.0404036 0.264471609 15.0404036 11.3153391 13.1283777 11.3153391 8.80608555 1.7351735 8.77556739 1.7351735 8.77556739 11.3153391 7.53130266 11.3153391 7.53130266 0.264471609 9.50250847 0.264471609 13.7662147 9.7240142 13.7955448 9.7240142 13.7955448 0.264471609"></polygon>
                                <polygon id="_148225832" points="16.9761905 11.3153391 16.9761905 0.264471609 22.6201195 0.264471609 22.6201195 1.49018139 18.3720065 1.49018139 18.3720065 5.04069401 22.3164229 5.04069401 22.3164229 6.26640379 18.3720065 6.26640379 18.3720065 10.0911278 22.7107829 10.0911278 22.7107829 11.3153391"></polygon>
                                <path d="M25.7862115,1.49018139 L27.8957737,1.49018139 C28.9713346,1.49018139 29.3671351,2.37676065 29.3671351,3.17298502 C29.3671351,4.13937776 28.8813595,5.01002879 27.8791112,5.01002879 L25.7862189,5.01002879 L25.7862189,1.49018139 L25.7862115,1.49018139 Z M27.4238486,6.23552129 C27.8957677,6.23552129 28.9713346,6.29534028 29.0774502,7.64339432 C29.1989162,9.11223068 29.1088472,10.5523123 29.5031503,11.3157137 L30.9597724,11.3157137 C30.7457822,10.6297425 30.5947611,8.8969373 30.5796765,8.42316601 C30.5046925,6.20269834 30.0509275,5.77706388 28.7903991,5.57707689 L28.7903991,5.54539761 C30.0787258,5.31612096 30.7923458,4.32291694 30.7923458,3.02122963 C30.7923458,1.64379706 30.1101201,0.26469375 28.1667519,0.26469375 L24.3906086,0.26469375 L24.3906086,11.3157111 L25.7861944,11.3157111 L25.7861944,6.23552616 L27.4238315,6.23552616 L27.4238486,6.23552129 Z" id="_148224968"></path>
                                <path d="M37.5499596,3.2193612 C37.5499596,1.91635528 37.0197196,1.21339274 35.6065914,1.21339274 C35.167297,1.21339274 33.5904326,1.28958229 33.5904326,3.60226065 L33.5904326,7.33731901 C33.5904326,9.75600552 34.2883569,10.3670248 35.6065914,10.3670248 C36.6093617,10.3670248 37.2758902,10.0907606 37.5659167,9.87741222 L37.5659167,6.57091025 L35.5473892,6.57091025 L35.5473892,5.34657153 L38.9609753,5.34657153 L38.9609753,10.7206346 C38.065375,11.2101588 37.0197159,11.546775 35.6065914,11.546775 C33.2870776,11.546775 32.1639797,10.3346409 32.1639797,7.27449464 L32.1639797,3.64739763 C32.1639797,1.44392208 33.2870776,0.0348128549 35.6065914,0.0348128549 C37.9753947,0.0348128549 39.0984036,0.907321924 39.0059655,3.21937319 L37.5499522,3.21937319 L37.5499596,3.2193612 Z" id="_148224128"></path>
                                <polygon id="_148223496" points="45.6462567 0.264471609 47.0563293 0.264471609 44.0698563 7.10402208 44.0698563 11.3153391 42.6754512 11.3153391 42.6754512 7.10402208 39.7307829 0.264471609 41.2939661 0.264471609 43.4326134 5.60634858"></polygon>
                                <path d="M51.7709023,8.02480284 L51.7709023,8.34557768 C51.7709023,9.84663013 52.7135125,10.3216376 53.6075387,10.3216376 C54.7155558,10.3216376 55.5644952,9.84662563 55.5644952,8.53025079 C55.5644952,6.08165576 50.6484207,6.3585418 50.6484207,3.03433596 C50.6484207,1.07659424 52.0291855,0.035160489 53.867396,0.035160489 C55.8693427,0.035160489 56.9924407,1.01500907 56.8993937,3.2660071 L55.4433805,3.2660071 C55.4578511,2.05511672 55.0793337,1.2595067 53.7607532,1.2595067 C52.9247858,1.2595067 52.0766334,1.68753115 52.0766334,2.8824933 C52.0766334,5.31587185 56.9924481,4.9652709 56.9924481,8.46866562 C56.9924481,10.795319 55.3983086,11.5471301 53.5918415,11.5471301 C50.3607629,11.5751813 50.3607629,9.08145308 50.39163,8.02480284 L51.7709023,8.02480284 L51.7709023,8.02480284 Z" id="_148223112"></path>
                                <polygon id="_148222488" points="64.7809944 0.264471609 64.7809944 1.49018139 61.8991445 1.49018139 61.8991445 11.3153391 60.5027345 11.3153391 60.5027345 1.49018139 57.6205876 1.49018139 57.6205876 0.264471609"></polygon>
                                <path d="M69.7046651,7.45914826 L66.2010986,7.45914826 L67.9138951,1.5663612 L67.9438011,1.5663612 L69.7046618,7.45914826 L69.7046651,7.45914826 Z M63.6229527,11.3149945 L65.0323942,11.3149945 L65.8527461,8.68163644 L70.0857188,8.68163644 L70.8727458,11.3149945 L72.4354018,11.3149945 L68.8710589,0.263977129 L67.0957262,0.263977129 L63.6229453,11.3149945 L63.6229527,11.3149945 Z" id="_148222104"></path>
                                <path d="M74.9068604,1.49018139 L77.0154573,1.49018139 C78.0925998,1.49018139 78.4869004,2.37676065 78.4869004,3.17298502 C78.4869004,4.13937776 77.9985816,5.01002879 76.9997527,5.01002879 L74.9068604,5.01002879 L74.9068604,1.49018139 L74.9068604,1.49018139 Z M76.5444158,6.23552129 C77.0154573,6.23552129 78.0925998,6.29534028 78.1986337,7.64339432 C78.3194856,9.11223068 78.2285398,10.5523123 78.6243338,11.3157137 L80.0788546,11.3157137 C79.8661794,10.6297425 79.717527,8.8969373 79.7017407,8.42316601 C79.6265807,6.20269834 79.1697468,5.77706388 77.9107109,5.57707689 L77.9107109,5.54539761 C79.1975451,5.31612096 79.9111725,4.32291694 79.9111725,3.02122963 C79.9111725,1.64379706 79.2292097,0.26469375 77.2874201,0.26469375 L73.5104006,0.26469375 L73.5104006,11.3157111 L74.9068626,11.3157111 L74.9068626,6.23552616 L76.544418,6.23552616 L76.5444158,6.23552129 Z" id="_148220648"></path>
                            </g>
                        </g>
                    </g>
                </g>
            </g>
            <g id="Group-7" transform="translate(801.000000, 8.000000)" fill="#000000">
                <text id="Set-your-water-heate" font-family="Avenir-Black, Avenir" font-size="18" font-weight="700">
                    <tspan x="18.532" y="146">Set your water </tspan>
                    <tspan x="4.375" y="171">heater thermostat </tspan>
                    <tspan x="45.262" y="196">to 120°F</tspan>
                </text>
                <g id="Group-3" transform="translate(47.000000, 0.000000)">
                    <text id="120°F" font-family="Avenir-Black, Avenir" font-size="25" font-weight="700">
                        <tspan x="0.3875" y="25">120°F</tspan>
                    </text>
                    <g id="noun_535382_cc" transform="translate(7.000000, 40.000000)">
                        <g id="Group">
                            <path d="M28,0 C12.5066667,0 0,12.5066667 0,28 C0,43.4933333 12.5066667,56 28,56 C43.4933333,56 56,43.4933333 56,28 C56,12.5066667 43.4933333,0 28,0 L28,0 Z M28.4355556,41.6266667 C24.7022222,41.6266667 21.7155556,38.64 21.7155556,34.9066667 C21.7155556,33.7866667 22.0266667,32.7288889 22.5244444,31.7955556 L22.5244444,31.7955556 L22.8977778,31.1733333 L22.8977778,31.1733333 L28.4977778,21.5288889 L34.0977778,31.1733333 L34.0977778,31.1733333 L34.4711111,31.7955556 L34.4711111,31.7955556 C34.9688889,32.7288889 35.28,33.7866667 35.28,34.9066667 C35.1555556,38.5777778 32.1066667,41.6266667 28.4355556,41.6266667 L28.4355556,41.6266667 Z M47.04,28 C47.04,17.4844444 38.5155556,8.96 28,8.96 C17.4844444,8.96 8.96,17.4844444 8.96,28 L5.6,28 C5.6,15.6177778 15.6177778,5.6 28,5.6 C40.3822222,5.6 50.4,15.6177778 50.4,28 L47.04,28 L47.04,28 Z" id="Shape"></path>
                        </g>
                    </g>
                </g>
            </g>
            <g id="Group-2" transform="translate(0.000000, 28.000000)" fill="#000000">
                <text id="Use-less-hot-water" font-family="Avenir-Black, Avenir" font-size="18" font-weight="700">
                    <tspan x="14.994" y="126">Use less </tspan>
                    <tspan x="7.695" y="151">hot water</tspan>
                </text>
                <g id="noun_439_cc">
                    <g id="Group">
                        <path d="M68.77,31.521 L75,31.521 C71.283,21.039 61.271,13.509 49.531,13.509 L28.518,13.509 L28.518,6.004 L38.276,6.004 C39.933,6.004 41.277,4.66 41.277,3.003 C41.276,1.344 39.933,0 38.275,0 L11.258,0 C9.6,0 8.255,1.344 8.255,3.002 C8.255,4.659 9.6,6.003 11.258,6.003 L21.015,6.003 L21.015,13.508 L0,13.508 L0,28.517 L49.531,28.517 C52.565,28.517 55.332,29.657 57.448,31.519 L63.23,31.519 L56.072,57.467 L59.927,58.529 L64,43.77 L64,58 L68,58 L68,43.77 L72.072,58.532 L75.927,57.47 L68.77,31.521 L68.77,31.521 Z" id="Shape"></path>
                        <path d="M100,64 L96,64 C96,65.881 95.129,67.561 93.77,68.662 C92.738,69.497 91.428,70 90,70 C89.789,70 89.582,69.988 89.377,69.967 C89.336,70.127 89.289,70.282 89.245,70.44 C90.72,71.038 91.906,72.202 92.526,73.665 C92.831,74.383 93,75.172 93,76 C93,79.13 90.59,81.704 87.529,81.973 C87.354,81.988 87.179,82 87,82 C85.623,82 84.355,81.529 83.342,80.746 C83.147,80.947 82.947,81.146 82.746,81.342 C83.529,82.355 84,83.623 84,85 C84,85.179 83.988,85.354 83.973,85.529 C83.704,88.59 81.13,91 78,91 C77.172,91 76.383,90.831 75.664,90.526 C74.201,89.906 73.037,88.719 72.439,87.245 C72.282,87.289 72.127,87.336 71.966,87.377 C71.988,87.582 72,87.789 72,88 C72,89.428 71.497,90.738 70.662,91.77 C69.561,93.129 67.881,94 66,94 C64.119,94 62.439,93.129 61.338,91.77 C60.503,90.738 60,89.428 60,88 C60,87.789 60.012,87.582 60.033,87.377 C59.873,87.336 59.718,87.289 59.56,87.245 C58.962,88.72 57.798,89.906 56.335,90.526 C55.617,90.831 54.828,91 54,91 C50.87,91 48.296,88.59 48.027,85.529 C48.012,85.354 48,85.179 48,85 C48,83.623 48.471,82.355 49.254,81.342 C49.053,81.147 48.854,80.947 48.658,80.746 C47.645,81.529 46.377,82 45,82 C44.821,82 44.646,81.988 44.471,81.973 C41.41,81.704 39,79.13 39,76 C39,75.172 39.169,74.383 39.474,73.664 C40.094,72.201 41.281,71.037 42.755,70.439 C42.711,70.282 42.664,70.127 42.623,69.966 C42.418,69.988 42.211,70 42,70 C40.572,70 39.262,69.497 38.23,68.662 C36.871,67.561 36,65.881 36,64 L32,64 C32,67.213 33.529,70.067 35.89,71.898 C35.323,73.152 35,74.537 35,76 C35,81.193 38.979,85.471 44.049,85.951 C44.529,91.021 48.808,95 54,95 C55.463,95 56.848,94.677 58.102,94.11 C59.933,96.471 62.788,98 66,98 C69.212,98 72.067,96.471 73.898,94.11 C75.152,94.677 76.537,95 78,95 C83.192,95 87.471,91.021 87.951,85.951 C93.021,85.471 97,81.193 97,76 C97,74.537 96.677,73.152 96.11,71.898 C98.471,70.068 100,67.213 100,64 L100,64 Z" id="Shape"></path>
                        <path d="M84,64 C84,64.008 83.999,64.016 83.999,64.023 C83.991,65.867 83.149,67.515 81.832,68.613 C81.52,68.873 81.18,69.1 80.818,69.294 C79.978,69.743 79.019,70 78,70 C77.525,70 77.071,69.929 76.629,69.824 C76.588,69.898 76.539,69.969 76.496,70.043 C77.429,71.1 78,72.482 78,74 C78,74.605 77.908,75.189 77.74,75.74 C77.366,76.973 76.601,78.035 75.595,78.792 C75.046,79.205 74.427,79.531 73.755,79.736 C73.199,79.907 72.611,80 72,80 C71.521,80 71.059,79.938 70.613,79.832 C69.906,79.663 69.244,79.375 68.658,78.98 C67.629,78.288 66.83,77.283 66.387,76.105 C66.258,76.109 66.131,76.125 66,76.125 C65.869,76.125 65.742,76.109 65.613,76.105 C65.17,77.283 64.371,78.288 63.342,78.98 C62.756,79.375 62.094,79.663 61.387,79.832 C60.941,79.938 60.479,80 60,80 C59.389,80 58.801,79.907 58.244,79.736 C57.572,79.531 56.953,79.205 56.404,78.792 C55.398,78.035 54.633,76.974 54.259,75.74 C54.092,75.189 54,74.605 54,74 C54,72.482 54.571,71.1 55.504,70.043 C55.461,69.969 55.412,69.898 55.371,69.824 C54.929,69.929 54.475,70 54,70 C52.981,70 52.022,69.743 51.182,69.294 C50.821,69.101 50.481,68.873 50.168,68.613 C48.851,67.515 48.009,65.867 48.001,64.023 C48.001,64.016 48,64.008 48,64 L44,64 C44,66.242 44.75,68.307 46.001,69.977 C47.043,71.366 48.43,72.481 50.041,73.18 C50.02,73.451 50,73.723 50,74 C50,75.73 50.443,77.359 51.22,78.78 C52.918,81.888 56.217,84 60,84 C60.008,84 60.016,83.999 60.023,83.999 C62.255,83.993 64.312,83.245 65.976,81.999 C65.984,81.999 65.992,82 66,82 C66.008,82 66.016,81.999 66.023,81.999 C67.687,83.245 69.744,83.993 71.976,83.999 C71.984,83.999 71.992,84 72,84 C75.783,84 79.082,81.888 80.78,78.78 C81.557,77.359 82,75.73 82,74 C82,73.723 81.98,73.451 81.959,73.18 C83.571,72.481 84.957,71.366 85.999,69.977 C87.25,68.307 88,66.242 88,64 L84,64 L84,64 Z" id="Shape"></path>
                        <path d="M66,70 C62.691,70 60,67.309 60,64 L56,64 C56,69.514 60.486,74 66,74 C71.514,74 76,69.514 76,64 L72,64 C72,67.309 69.309,70 66,70 L66,70 Z" id="Shape"></path>
                    </g>
                </g>
            </g>
        </g>
    </g>
</svg>