<?xml version="1.0" encoding="UTF-8"?>
<svg width="313px" height="330px" viewBox="0 0 313 330" version="1.1" xmlns="http://www.w3.org/2000/svg" xmlns:xlink="http://www.w3.org/1999/xlink">
    <!-- Generator: Sketch 40.3 (33839) - http://www.bohemiancoding.com/sketch -->
    <title>Group 4</title>
    <desc>Created with Sketch.</desc>
    <defs></defs>
    <g id="Page-1" stroke="none" stroke-width="1" fill="none" fill-rule="evenodd">
        <g id="Group-4">
            <path d="M254.075472,211.78419 C251.960137,209.94147 250.741455,207.128929 251.061282,204.143597 L251.163191,203.206113 C251.492464,200.134729 253.375516,197.586793 255.944659,196.263239 C255.641336,195.806073 255.499716,195.3177 255.543605,194.798623 C255.780932,191.800506 261.978038,190.83798 269.569053,191.21242 C269.572995,191.212615 269.576936,191.21281 269.580877,191.213005 C269.576924,191.212782 269.572972,191.212558 269.569018,191.212334 C261.978176,190.784525 255.928061,189.158437 255.998188,186.18709 C256.05847,183.22248 262.175258,181.883958 269.776291,181.770313 C262.171942,181.822127 256.034944,180.598804 255.904708,177.677717 C255.764281,174.766475 261.767415,173.005152 269.338566,172.335028 C269.341844,172.334738 269.345122,172.334448 269.348399,172.334159 C269.345099,172.33442 269.341798,172.334681 269.338497,172.334941 C261.759227,172.933217 255.550203,172.177946 255.204403,169.328707 C254.844958,166.49104 260.67951,164.261667 268.171897,162.963387 C268.174265,162.962977 268.176632,162.962567 268.179,162.962157 C268.176581,162.96255 268.174162,162.962942 268.171742,162.963335 C260.667781,164.181649 254.423866,163.957641 253.842294,161.213584 C253.541403,159.81824 254.798339,158.487835 257.039301,157.206136 C259.284064,155.927718 262.511126,154.711131 266.182961,153.730123 C266.185983,153.729319 266.189005,153.728515 266.192027,153.727711 C266.189046,153.728486 266.186064,153.729262 266.183082,153.730037 C258.826112,155.647146 252.595497,156.031432 251.763125,153.422782 C251.335279,152.095831 252.451788,150.66698 254.550769,149.163 C256.653377,147.665582 259.731894,146.113242 263.278501,144.747777 C266.821481,143.382484 270.164098,142.480061 272.794733,142.423239 C275.422087,142.356399 277.350586,143.146904 277.938895,144.975066 C279.10407,148.641625 273.677841,151.734512 266.488643,153.649623 C270.039757,152.724557 273.345633,152.218441 275.891611,152.419926 C278.510328,152.622173 280.333809,153.584872 280.733327,155.433069 C281.502608,159.088484 275.944374,161.620252 268.72565,162.87044 C275.958395,161.696375 282.035431,162.292452 282.501518,165.943023 C282.94112,169.60139 277.165458,171.646301 269.841046,172.292951 C277.171941,171.714066 283.204113,172.785361 283.380596,176.416052 C283.539673,180.056195 277.595816,181.654946 270.211638,181.765525 C277.596861,181.714016 283.568042,183.19934 283.497567,186.798838 C283.412196,190.398216 277.359327,191.599925 269.96284,191.233264 C277.359878,191.651388 283.238695,193.496024 282.956102,197.051313 C282.893695,197.787701 282.581286,198.407872 282.059463,198.921374 C284.41585,200.749383 285.807235,203.721369 285.468021,206.887654 L285.366112,207.82341 C285.084188,210.454104 283.661391,212.700763 281.643986,214.122744 C283.448761,217.186159 284.308173,220.840317 283.87197,224.643572 C283.067925,231.642229 278.107718,237.153658 271.741857,238.993565 L274.001302,219.289138 L261.020335,217.800184 L258.76089,237.506337 C252.974875,234.269359 249.389922,227.781931 250.19224,220.784829 C250.587523,217.336568 251.991377,214.249559 254.075472,211.78419 Z M233.194847,97.3709472 C232.163517,94.2364364 231.477075,92.4910981 231.477075,92.4910981 C231.477075,91.3695567 231.258105,90.2639632 230.832061,89.1782392 C231.481863,88.8775144 231.814826,88.7110251 231.814826,88.7110251 C231.814826,39.7164542 192.091716,0 143.096093,0 C118.725378,0 96.6501332,9.8251076 80.6158012,25.7301557 C64.5814347,41.6351554 54.5879819,63.6201346 54.3809175,87.939885 C53.549032,89.4195403 53.1158639,90.9400686 53.1158639,92.4910981 C53.1158639,92.4910981 52.516795,94.1527632 51.6095024,97.1452303 C50.7150437,96.8842056 49.7868581,96.694104 48.8305712,96.5820361 C39.5901844,95.5008551 31.2203427,102.115227 30.1371704,111.356556 C29.9779447,112.719362 29.9861069,114.063194 30.1453932,115.367471 C29.8893172,115.234679 29.6358347,115.112995 29.3852544,115.00307 C26.9686282,113.931907 24.8124746,113.980267 23.4938752,115.544524 C22.1785576,117.112063 22.5162393,119.217774 23.9870113,121.406905 C25.4510471,123.606054 28.0347005,125.910557 31.1166718,128.128186 C34.1984704,130.344088 37.1868237,132.075358 39.5683862,133.046348 C41.6198849,133.873286 43.2113039,134.152637 44.1384755,133.597493 C43.4114711,140.004485 42.9494866,146.865871 42.9494866,153.957586 C42.9494866,187.223227 53.1158639,218.371759 53.1158639,218.371759 C53.1158639,228.128895 70.2542821,236.677846 95.9574049,241.438791 C90.5249042,249.599897 86.3277337,258.405102 90.0496363,262.337787 C90.470832,262.782846 91.1290573,263.201787 91.9988209,263.595143 L93.3491063,269.651126 C99.0957403,295.426225 139.550522,329.314841 139.550522,329.314841 C141.261048,331.684412 187.505966,286.723941 195.076054,263.807132 C195.249156,263.704965 195.400543,263.601248 195.529471,263.495997 C199.379942,260.343692 194.388415,250.659311 188.353703,241.668819 C214.36242,236.956525 231.477075,228.28811 231.477075,218.371759 C231.477075,218.371759 242.567716,187.223227 242.567716,153.957586 C242.567716,146.837236 242.059653,139.949079 241.261011,133.519905 C242.167848,134.176007 243.809074,133.909425 245.948833,133.046348 C248.330396,132.075358 251.318749,130.344088 254.400548,128.128186 C257.482347,125.910557 260.066173,123.606054 261.530208,121.406905 C263.000808,119.217774 263.338489,117.112063 262.024899,115.544524 C260.704572,113.980267 258.548591,113.931907 256.131965,115.00307 C255.881393,115.11307 255.627894,115.234845 255.371778,115.367742 C255.531021,114.06338 255.539139,112.719456 255.379877,111.356556 C254.296877,102.115227 245.928763,95.5008551 236.68803,96.5820361 C235.474521,96.7242267 234.306301,96.9920383 233.194847,97.3709472 Z M240.792456,130.022195 C240.824592,130.245924 240.856407,130.470293 240.887891,130.695293 C240.974371,130.461872 241.078776,130.2183 241.199849,129.965026 C241.064647,129.985659 240.928844,130.004722 240.792456,130.022195 Z M259.326136,136.177054 C255.986114,137.943657 252.810785,139.239354 250.322511,139.857974 C247.819003,140.473004 246.024022,140.414454 245.328795,139.288196 C244.630113,138.165046 245.392358,136.550875 247.060212,134.587133 C248.73152,132.633582 251.320183,130.350841 254.4006,128.128203 C257.480671,125.905738 260.483879,124.187767 263.034369,123.492426 C265.57484,122.787241 267.667085,123.123167 268.72003,124.819377 C269.76952,126.517313 269.124557,128.522679 267.35963,130.477957 C265.617311,132.423802 262.778717,134.338438 259.46495,136.103373 C262.784682,134.346827 265.957608,133.071536 268.546353,132.713824 C271.155224,132.342838 273.170605,132.926088 273.981386,134.707445 C274.788368,136.490702 273.89105,138.377413 271.898987,140.091931 C269.906752,141.816638 266.824781,143.385731 263.278518,144.747742 C259.735193,146.108026 256.402767,147.020466 253.843986,147.319604 C251.278469,147.615461 249.493679,147.30976 248.93197,146.071411 C248.368707,144.831335 249.323197,143.304038 251.233387,141.571041 C253.134625,139.856119 255.990837,137.952853 259.326136,136.177054 Z M31.4422273,211.78438 C33.5576363,209.941663 34.7757586,207.129032 34.4559203,204.143597 L34.3555658,203.206113 C34.0253103,200.134746 32.1418471,197.58682 29.5725859,196.26326 C29.8758137,195.806088 30.0173624,195.317708 29.9734423,194.798623 C29.7362879,191.800506 23.5391815,190.83798 15.947994,191.21242 C15.9440983,191.212612 15.9402029,191.212805 15.9363079,191.212998 C15.9402202,191.212777 15.9441328,191.212556 15.9480458,191.212334 C23.5390606,190.784525 29.5890034,189.158437 29.5206034,186.18709 C29.4603216,183.22248 23.3435334,181.883958 15.7425005,181.770313 C23.3468325,181.822127 29.4838298,180.598804 29.6125116,177.677717 C29.7527661,174.766475 23.7513596,173.005152 16.1786539,172.335028 C16.1753756,172.334738 16.1720975,172.334448 16.1688197,172.334159 C16.1721205,172.33442 16.1754216,172.334681 16.178723,172.334941 C23.7597196,172.933217 29.9668441,172.177946 30.314544,169.328707 C30.6720893,166.49104 24.8377101,164.261667 17.3451497,162.963387 C17.342945,162.963005 17.3407404,162.962623 17.3385359,162.962241 C17.3407807,162.962606 17.3430256,162.962971 17.3452707,162.963335 C24.851131,164.181649 31.0931464,163.957641 31.6766188,161.213584 C31.9773369,159.81824 30.7188465,158.487835 28.4794384,157.206136 C26.2331213,155.927718 23.0076136,154.711131 19.3340516,153.730123 C19.3307741,153.729251 19.3274968,153.728379 19.3242197,153.727507 C19.3274621,153.728351 19.3307049,153.729194 19.333948,153.730037 C26.6926447,155.647146 32.9217056,156.031432 33.7539052,153.422782 C34.1834777,152.095831 33.0654146,150.66698 30.966261,149.163 C28.8655528,147.665582 25.7853087,146.113242 22.2404285,144.747777 C18.6974482,143.382484 15.3531043,142.480061 12.7240236,142.423239 C10.0952884,142.356399 8.16817112,143.146904 7.57830772,144.975066 C6.41464648,148.641684 11.8395811,151.734612 19.0287454,153.649716 C15.4777357,152.724591 12.173197,152.218434 9.62730142,152.419926 C7.00668432,152.622173 5.18337612,153.584872 4.78385802,155.433069 C4.01452409,159.088737 9.57522411,161.620603 16.792997,162.870699 C9.55955806,161.696287 3.48186647,162.292183 3.01742882,165.943023 C2.57613818,169.60139 8.35159821,171.646301 15.6761646,172.292952 C8.34511463,171.714066 2.31310727,172.785361 2.13662382,176.416052 C1.97754723,180.056206 7.92310183,181.654956 15.3072122,181.765526 C7.92051296,181.713997 1.95074949,183.199316 2.02122472,186.798838 C2.10659553,190.398193 8.15771722,191.599909 15.5540792,191.233271 C8.15711357,191.651409 2.27869564,193.496044 2.56111812,197.051313 C2.62354769,197.787962 2.93614848,198.408311 3.45830784,198.92192 C1.10202053,200.749974 -0.28939844,203.721684 0.0509083171,206.887654 L0.151090117,207.82341 C0.433043408,210.454376 1.85610524,212.701227 3.87408985,214.123184 C2.06938835,217.18651 1.20970353,220.8405 1.64524942,224.643572 C2.45067642,231.642229 7.40950142,237.153658 13.7753622,238.993565 L11.5159178,219.289138 L24.496712,217.800184 L26.7578837,237.506337 C32.5438994,234.269359 36.127125,227.781931 35.3249799,220.784829 C34.9296438,217.336657 33.5260483,214.249718 31.4422273,211.78438 Z M44.5793664,130.002723 C44.5607636,130.143905 44.5422778,130.285343 44.5239113,130.427033 C44.4616791,130.276785 44.392664,130.122657 44.3171703,129.964758 C44.4043209,129.978067 44.4917211,129.990724 44.5793664,130.002723 Z M26.1916715,136.176543 C29.5320317,137.943407 32.7060227,139.239294 35.1945364,139.857974 C37.6999443,140.473004 39.4930254,140.414454 40.1884251,139.288196 C40.8869338,138.165046 40.1248615,136.550875 38.4570076,134.587133 C36.7856993,132.633582 34.1985914,130.350841 31.11662,128.128203 C28.0382759,125.905738 25.0331682,124.187767 22.4828511,123.492426 C19.9441068,122.787241 17.850135,123.123167 16.7970173,124.819377 C15.7475268,126.517313 16.3943902,128.522679 18.1574167,130.477957 C19.9011578,132.423287 22.7370321,134.337425 26.0511514,136.101971 C22.7308963,134.346149 19.5604809,133.071441 16.9708845,132.713824 C14.3635674,132.342838 12.3481865,132.926088 11.5375778,134.707445 C10.7285236,136.490702 11.6260141,138.377413 13.6182496,140.091931 C15.6120396,141.816638 18.6922837,143.385731 22.2404458,144.747742 C25.7835987,146.108026 29.11447,147.020466 31.6749779,147.319604 C34.2403222,147.615461 36.0235578,147.30976 36.5850939,146.071411 C37.1500846,144.831335 36.1940396,143.304038 34.285404,141.571041 C32.3824367,139.855954 29.5256807,137.952488 26.1916715,136.176543 Z" id="Combined-Shape-Copy" fill="#45A900"></path>
            <g id="checkmark-verification-circular-button-outline" transform="translate(160.934221, 31.000000)">
                <g id="Capa_1">
                    <g id="tick">
                        <path d="M72,0 C32.2334118,0 0,32.2334118 0,72 C0,111.766588 32.2334118,144 72,144 C111.761882,144 144,111.766588 144,72 C144,32.2334118 111.766588,0 72,0 L72,0 L72,0 Z" id="Shape" stroke="#FFFFFF" stroke-width="15" fill="#45A900"></path>
                        <path d="M102.752941,46.2825882 L60.7501176,88.2854118 L41.2515294,68.7825882 C39.5369412,67.068 36.7515294,67.068 35.0369412,68.7825882 C33.3223529,70.4971765 33.3223529,73.2825882 35.0369412,74.9971765 L57.1094118,97.0696471 C57.2578824,97.2811765 57.348,97.5242353 57.5369412,97.7131765 C58.4235294,98.5997647 59.5889412,99.0091765 60.7498824,98.9776471 C61.9108235,99.0047059 63.0809412,98.5997647 63.9672941,97.7131765 C64.1562353,97.524 64.2463529,97.2811765 64.3948235,97.0696471 L108.967529,52.4971765 C110.681882,50.7825882 110.681882,47.9971765 108.967529,46.2825882 C107.248471,44.568 104.467529,44.568 102.752941,46.2825882 L102.752941,46.2825882 L102.752941,46.2825882 Z" id="Path" fill="#FFFFFF"></path>
                    </g>
                </g>
            </g>
        </g>
    </g>
</svg>