<?xml version="1.0" encoding="UTF-8" standalone="no"?>
<svg width="390px" height="280px" viewBox="0 0 390 280" version="1.1" xmlns="http://www.w3.org/2000/svg" xmlns:xlink="http://www.w3.org/1999/xlink">
    <!-- Generator: Sketch 3.8.3 (29802) - http://www.bohemiancoding.com/sketch -->
    <title>Group 2</title>
    <desc>Created with Sketch.</desc>
    <defs></defs>
    <g id="Page-1" stroke="none" stroke-width="1" fill="none" fill-rule="evenodd">
        <g id="Group-2">
            <path d="M234.781739,11.1665013 L231.296579,13.2173735 C228.098251,7.7776004 222.205801,4.3980717 215.922701,4.3980717 C210.549341,4.3980717 205.516283,6.7944314 202.109768,10.9709701 C201.886697,11.2451548 201.670977,11.5246689 201.466281,11.8098798 C201.283635,12.0640335 201.106133,12.3235167 200.930837,12.5903506 L197.533142,10.4044075 C197.74335,10.0771133 197.964584,9.7573536 198.189308,9.4410856 C198.443432,9.0900851 198.704723,8.748273 198.977038,8.4173034 C203.155114,3.2939821 209.332191,0.35678762 215.922701,0.35678762 C223.63316,0.35678762 230.857787,4.4985939 234.781739,11.1665013" id="Fill-15" fill="#45A900"></path>
            <path d="M231.058845,16.2331664 L227.335915,17.8106473 C225.385975,13.2081299 220.906551,10.2360191 215.922554,10.2360191 C211.474368,10.2360191 207.345721,12.6470803 205.137982,16.5292197 L201.625444,14.531457 C204.54576,9.3899424 210.023122,6.194735 215.922554,6.194735 C222.53291,6.194735 228.474605,10.1336593 231.058845,16.2331664" id="Fill-17" fill="#45A900"></path>
            <path d="M206.945351,22.6251249 C206.945351,27.5839722 210.964301,31.6068793 215.922573,31.6068793 C220.879191,31.6068793 224.899794,27.5839722 224.899794,22.6251249 C224.899794,17.6697693 220.879191,13.6486999 215.922573,13.6486999 C210.964301,13.6486999 206.945351,17.6697693 206.945351,22.6251249" id="Fill-19" fill="#45A900"></path>
            <polygon id="Fill-21" fill="#45A900" points="213.228837 59.6401154 218.616529 59.6401154 218.616529 30.2580633 213.228837 30.2580633"></polygon>
            <path d="M312.968402,140.466128 C312.968402,193.938946 269.62321,237.287327 216.156595,237.287327 C162.692001,237.287327 119.346442,193.938946 119.346442,140.466128 C119.346442,86.9916571 162.692001,43.6432755 216.156595,43.6432755 C269.62321,43.6432755 312.968402,86.9916571 312.968402,140.466128" id="Fill-23" fill="#45A900"></path>
            <path d="M22.9130655,230.9942 C23.6860958,227.093684 24.8613519,223.118189 26.7546974,219.36377 C28.6333431,215.616885 31.3384899,212.059835 34.8784066,209.373119 C38.3964572,206.660491 42.6237774,204.947939 46.8437477,204.088815 C51.0820928,203.218848 55.3292579,203.109138 59.4523926,203.368621 C67.7113408,203.926179 75.5517097,205.845288 83.1546753,208.075336 C90.757457,210.332581 98.137168,212.991916 105.422065,215.700868 C112.701266,218.411658 119.885652,221.198896 127.031819,223.763405 C134.162918,226.313029 141.299714,228.691012 148.226485,230.228247 C151.678753,230.985012 155.083431,231.518863 158.185107,231.615526 C161.284579,231.727074 164.049627,231.32131 165.80608,230.49894 C167.566024,229.652496 168.408512,228.714902 169.33534,226.923696 C170.225234,225.135983 170.868538,222.460109 171.126337,219.44959 C171.601511,213.902312 176.484814,209.789725 182.031449,210.264954 C187.582126,210.742021 191.692399,215.626074 191.217041,221.173352 C191.189663,221.48962 191.147584,221.800375 191.09099,222.109109 L191.058099,222.288284 C190.219103,226.883451 188.872225,231.82043 185.834861,236.700623 C184.321508,239.118852 182.31681,241.469452 179.904191,243.386724 C177.497268,245.313368 174.721195,246.751919 171.981503,247.643754 C166.445709,249.429446 161.319307,249.336275 156.763077,248.824659 C152.181122,248.278128 148.01058,247.212262 144.01368,245.989641 C136.04726,243.503785 128.755197,240.339819 121.605539,237.106387 C114.468744,233.8566 107.520107,230.478725 100.584332,227.221588 C93.650579,223.968125 86.73667,220.815001 79.7443014,218.09539 C72.760936,215.393789 65.6662189,213.061565 58.5694806,211.994045 C51.524192,210.939573 44.3455018,211.30307 38.783983,214.88934 C36.0060717,216.653164 33.6647471,219.18294 31.8335086,222.180411 C29.9912452,225.181742 28.644368,228.570642 27.624747,232.158566 C27.2554123,233.445323 25.9140476,234.194737 24.6237649,233.827381 C23.4027555,233.478218 22.6681286,232.255413 22.9057156,231.03077 L22.9130655,230.9942 L22.9130655,230.9942 Z" id="Fill-24" fill="#45A900"></path>
            <path d="M1.1408046,276.046165 C5.6878473,267.02049 12.21423,258.495588 20.944677,252.494765 C25.2761827,249.488105 30.077166,247.130154 35.0795378,245.457664 C40.0815421,243.776169 45.2663763,242.759738 50.4477192,242.229745 C60.8341086,241.186116 71.1471823,241.994152 81.1770995,243.454388 C91.219695,244.936676 101.035729,247.120965 110.714686,249.393096 C120.389969,251.661368 129.942874,254.06122 139.397291,255.95846 C148.811283,257.824827 158.267169,259.274221 166.913643,258.846588 C171.212074,258.623492 175.238373,257.877753 178.595644,256.462909 C181.962102,255.04641 184.624987,253.015753 186.770619,250.290445 C191.0911,244.849202 193.244082,236.433826 194.04982,227.63088 C194.55421,222.090952 199.45405,218.009422 204.993519,218.515709 C210.532988,219.021995 214.615881,223.924241 214.109654,229.464352 C214.089442,229.685427 214.062247,229.906686 214.027335,230.122432 L214.012819,230.215604 C213.148281,235.591241 211.89824,241.045348 209.851464,246.499639 C207.80083,251.924527 204.884005,257.439094 200.552499,262.211415 C196.266747,267.000275 190.493366,270.696072 184.577396,272.661124 C178.643235,274.669913 172.73094,275.221957 167.169421,275.157822 C156.011839,274.934909 145.905299,272.551413 136.10764,269.979737 C126.324313,267.347784 116.873756,264.3097 107.467297,261.456672 C98.069659,258.599601 88.719612,255.883666 79.3109487,253.871202 C69.913678,251.871417 60.4228792,250.540923 51.065482,250.880898 C41.7374845,251.202495 32.5353548,253.37392 24.6236914,258.168477 C16.6717872,262.906066 10.2477525,270.120505 5.3791497,278.402279 C4.6992799,279.559295 3.213305,279.944844 2.0582613,279.264895 C0.9508085,278.616188 0.5506041,277.221558 1.1189385,276.090086 L1.1408046,276.046165 L1.1408046,276.046165 Z" id="Fill-25" fill="#45A900"></path>
            <path d="M385.058231,278.621609 C383.413314,275.128694 381.349817,271.986596 378.787627,269.34178 C376.238115,266.700638 373.218942,264.616871 369.8964,263.130724 C363.227612,260.142442 355.553352,259.486199 347.902979,259.800446 C340.216224,260.134907 332.454316,261.421848 324.690754,262.988303 C316.919658,264.563946 309.130371,266.457511 301.220546,268.272423 C293.305023,270.083843 285.274659,271.858692 276.889659,273.030409 C272.691738,273.605977 268.402311,274.026442 263.961291,274.108771 C259.523763,274.180074 254.918104,273.929595 250.168203,272.931725 C245.440352,271.939184 240.500087,270.116921 236.059251,267.056968 C231.607206,264.032116 227.886113,259.804305 225.320248,255.28963 C222.719654,250.761907 221.120306,246.024318 220.056769,241.407283 C219.002052,236.77573 218.472121,232.224301 218.221672,227.757038 L218.214322,227.667726 C217.901766,222.109053 222.152973,217.353272 227.70898,217.040679 C233.262781,216.726433 238.022053,220.975928 238.33461,226.534417 C238.350963,226.803088 238.354454,227.091791 238.347288,227.356971 C238.164642,234.514625 238.94686,241.482261 241.381161,246.682215 C242.5928,249.285132 244.171751,251.399956 246.251785,253.119858 C248.324286,254.839761 250.974308,256.170623 254.062938,257.091861 C260.27309,258.941689 267.844818,259.138874 275.456787,258.698562 C283.118185,258.247039 290.978766,257.164818 298.904946,255.99696 C306.836821,254.825243 314.859836,253.532973 323.007249,252.54227 C331.153008,251.560754 339.446685,250.831372 347.897466,251.129446 C352.119274,251.290429 356.382977,251.719899 360.615809,252.630112 C364.837617,253.543999 369.044909,254.955168 372.93211,257.090023 C376.821149,259.208339 380.339384,262.085257 383.129974,265.488676 C385.937285,268.873901 388.027976,272.767251 389.510276,276.696987 L389.522955,276.729881 C389.996475,277.985581 389.364012,279.38554 388.110296,279.858932 C386.920523,280.3088 385.593675,279.751242 385.058231,278.621609" id="Fill-26" fill="#45A900"></path>
            <path d="M354.233853,236.930997 C351.13971,232.504164 347.585094,228.491915 343.452772,225.640541 C339.338824,222.767299 334.716996,221.319743 330.047393,221.504248 C325.366949,221.659534 320.642588,223.278914 316.080846,225.563726 C311.509916,227.85405 307.079921,230.791245 302.65893,233.929667 C298.223238,237.073603 293.818785,240.451294 289.03048,243.763379 C286.629069,245.415654 284.128802,247.057087 281.358241,248.594138 C278.574817,250.109505 275.540944,251.584626 271.737532,252.52222 C269.836837,252.975581 267.715091,253.278985 265.38865,253.187467 C263.076542,253.10716 260.560105,252.577167 258.264534,251.555407 C255.958121,250.546326 253.940562,249.100424 252.310344,247.55786 C250.678105,246.007944 249.391498,244.366512 248.313261,242.750807 C246.173141,239.506349 244.79521,236.338707 243.643658,233.255231 C242.508827,230.168081 241.651639,227.148374 240.913154,224.163766 L240.88945,224.068574 C239.553598,218.660225 242.85409,213.193254 248.264016,211.857063 C253.668246,210.520872 259.136237,213.823769 260.470436,219.230463 C260.567271,219.610683 260.634891,220.003583 260.684319,220.381965 C261.000367,222.86047 261.40443,225.273185 261.936198,227.497536 C262.464475,229.712883 263.14067,231.765593 263.886138,233.288126 C264.642815,234.852743 265.342713,235.64424 265.717377,235.980539 C265.929423,236.167066 266.161497,236.325843 266.622155,236.442904 C267.0773,236.558128 267.751657,236.602049 268.577791,236.51972 C270.240716,236.3569 272.404723,235.702679 274.616138,234.792467 C276.84758,233.880417 279.168693,232.727077 281.515162,231.478544 C286.219494,228.968982 291.026173,226.092064 296.032036,223.339375 C301.046903,220.586685 306.270324,217.897764 311.94687,215.821531 C317.592178,213.772497 323.855433,212.299214 330.354253,212.838578 C333.578306,213.10725 336.794825,213.911611 339.731863,215.220236 C342.674229,216.525186 345.327926,218.300036 347.634339,220.327018 C352.263701,224.397706 355.622809,229.34571 358.353313,234.366672 L358.358825,234.38119 C359.000292,235.558236 358.563521,237.031519 357.38459,237.67306 C356.286325,238.268842 354.933751,237.934381 354.233853,236.930997" id="Fill-27" fill="#45A900"></path>
            <path d="M154.22448,231.273824 L151.318679,247.898018 C152.316434,248.109721 153.329073,248.298085 154.36174,248.468072 L156.510864,231.507763 C155.759883,231.453 154.999531,231.372693 154.22448,231.273824" id="Fill-28" fill="#45A900"></path>
            <path d="M127.031727,223.763332 C126.287729,223.496682 125.54024,223.2168 124.794772,222.946291 L119.375658,236.066544 C120.123331,236.410193 120.854283,236.764685 121.605631,237.106314 C121.689604,237.144722 121.775415,237.181476 121.859572,237.219884 L127.294855,223.854849 C127.205186,223.825446 127.121213,223.794389 127.031727,223.763332" id="Fill-29" fill="#45A900"></path>
            <path d="M109.674982,217.298343 L104.645415,229.146357 C105.458503,229.530252 106.273795,229.915801 107.086883,230.301534 L112.213469,218.252477 C111.36896,217.934555 110.524819,217.618287 109.674982,217.298343" id="Fill-30" fill="#45A900"></path>
            <path d="M165.806044,230.498958 C165.784177,230.507963 165.758453,230.515498 165.734749,230.52634 L171.767767,247.705887 C171.840715,247.68218 171.910172,247.667479 171.981466,247.643772 C173.185938,247.250872 174.394085,246.735398 175.580183,246.137594 L166.844223,229.912181 C166.531667,230.116901 166.195223,230.310594 165.806044,230.498958" id="Fill-31" fill="#45A900"></path>
            <path d="M139.724363,227.987522 L134.645369,242.653831 C135.522768,242.997481 136.398146,243.342968 137.289878,243.673754 L142.187881,228.698344 C141.36726,228.470102 140.546638,228.234141 139.724363,227.987522" id="Fill-32" fill="#45A900"></path>
            <path d="M94.306506,211.685165 L90.092232,222.418063 C90.901829,222.772555 91.70775,223.145608 92.515509,223.509288 L96.888909,212.60089 C96.026393,212.295648 95.171043,211.985077 94.306506,211.685165" id="Fill-33" fill="#45A900"></path>
            <path d="M46.8436926,204.08876 C45.977318,204.26426 45.1111271,204.487173 44.2504486,204.737651 L46.0724997,212.045262 C46.8381801,211.893468 47.6148854,211.767402 48.4026157,211.679744 L47.1946524,204.031975 C47.0776045,204.054211 46.9607404,204.065054 46.8436926,204.08876" id="Fill-34" fill="#45A900"></path>
            <path d="M22.9130655,230.9942 L22.9095743,231.014415 L27.6300757,232.138351 C27.8678464,231.306793 28.1236245,230.491589 28.3977774,229.683737 L23.5289908,228.263379 C23.3004075,229.175429 23.0940579,230.087479 22.9130655,230.9942" id="Fill-35" fill="#45A900"></path>
            <path d="M29.3900198,215.035474 L34.2806724,218.868547 C34.7979247,218.267068 35.3407181,217.704181 35.91089,217.172167 L31.2925527,212.679544 C30.6128667,213.432633 29.980404,214.223946 29.3900198,215.035474" id="Fill-36" fill="#45A900"></path>
            <path d="M61.8227128,203.577034 L60.6127283,212.346718 C61.4406995,212.500533 62.2668331,212.666661 63.0929668,212.849513 L64.6665898,203.911495 C63.7252458,203.783408 62.774898,203.670205 61.8227128,203.577034" id="Fill-37" fill="#45A900"></path>
            <path d="M78.4594945,206.760958 L75.4511624,216.499661 C76.2682924,216.792039 77.085055,217.088092 77.89851,217.395355 L81.1497577,207.501367 C80.2558207,207.249051 79.3585763,207.002432 78.4594945,206.760958" id="Fill-38" fill="#45A900"></path>
            <path d="M166.94839,258.844659 L167.206006,275.157914 C168.220482,275.16894 169.247453,275.150563 170.281773,275.116014 L169.254803,258.647106 C168.490776,258.727597 167.730424,258.802575 166.94839,258.844659" id="Fill-39" fill="#45A900"></path>
            <path d="M152.204991,258.102541 L149.767014,273.18031 C150.697334,273.361324 151.632981,273.531127 152.576163,273.691926 L154.723449,258.393265 C153.884637,258.305423 153.045824,258.206738 152.204991,258.102541" id="Fill-40" fill="#45A900"></path>
            <path d="M139.397217,255.958515 C138.549218,255.788528 137.695705,255.594835 136.844031,255.417497 L133.468385,269.241221 C134.347439,269.486186 135.219326,269.742178 136.107566,269.979608 C136.114916,269.983467 136.124104,269.985121 136.13127,269.986959 L139.417246,255.964028 C139.409896,255.962191 139.404567,255.960353 139.397217,255.958515" id="Fill-41" fill="#45A900"></path>
            <path d="M212.172374,239.058538 L193.063071,234.68996 C192.91497,235.450584 192.763194,236.207164 192.591389,236.94739 L211.350099,242.030649 C211.649609,241.039945 211.914759,240.049242 212.172374,239.058538" id="Fill-42" fill="#45A900"></path>
            <path d="M121.234459,251.88985 L117.771165,264.613159 C118.635519,264.879993 119.50024,265.143152 120.366247,265.408332 L123.840749,252.507684 C122.974374,252.302964 122.104508,252.096223 121.234459,251.88985" id="Fill-43" fill="#45A900"></path>
            <path d="M179.498456,256.018792 L186.226043,272.052349 C187.291418,271.63758 188.351463,271.171356 189.393134,270.650552 L181.205481,255.141474 C180.666178,255.461418 180.085165,255.741116 179.498456,256.018792" id="Fill-44" fill="#45A900"></path>
            <path d="M187.874379,248.711181 L202.778595,259.511707 C203.474818,258.601494 204.134659,257.676764 204.746726,256.733657 L188.89253,247.017007 C188.568948,247.6036 188.232505,248.170347 187.874379,248.711181" id="Fill-45" fill="#45A900"></path>
            <path d="M56.0767472,241.856895 L56.1625578,250.871728 C57.0179075,250.893596 57.873441,250.91914 58.7286069,250.963245 L58.9022493,241.776587 C57.9609053,241.78743 57.019745,241.820324 56.0767472,241.856895" id="Fill-46" fill="#45A900"></path>
            <path d="M10.3995105,262.077998 L14.7453485,266.05533 C15.3394077,265.446685 15.9353044,264.841714 16.5565584,264.264125 L12.2836686,259.959683 C11.6348523,260.64882 11.0154358,261.361479 10.3995105,262.077998" id="Fill-47" fill="#45A900"></path>
            <path d="M1.1408046,276.046165 L1.1316171,276.060683 L5.3881534,278.387578 C5.8304362,277.638164 6.3002814,276.90529 6.7681053,276.170394 L2.4439496,273.611398 C1.9998292,274.421272 1.5538714,275.227287 1.1408046,276.046165" id="Fill-48" fill="#45A900"></path>
            <path d="M23.3571675,250.952145 L26.8112736,256.95646 C27.5514129,256.561722 28.302761,256.194366 29.0629289,255.843365 L25.8499009,249.51194 C25.0074136,249.972468 24.1741137,250.449351 23.3571675,250.952145" id="Fill-49" fill="#45A900"></path>
            <path d="M39.1989425,244.238608 L40.9825901,252.014096 C41.8087238,251.85146 42.6420237,251.716205 43.4773448,251.588118 L41.9750163,243.584203 C41.0467184,243.785247 40.1198904,243.999156 39.1989425,244.238608" id="Fill-50" fill="#45A900"></path>
            <path d="M89.339065,244.818071 L86.987083,255.667847 C87.838758,255.881755 88.688595,256.113856 89.538432,256.338607 L92.033003,245.34255 C91.133738,245.169072 90.240168,244.984199 89.339065,244.818071" id="Fill-51" fill="#45A900"></path>
            <path d="M105.41477,248.171945 L102.340656,259.921275 C103.197844,260.175245 104.05301,260.43289 104.912034,260.690719 L108.062955,248.782429 C107.182064,248.577709 106.297499,248.374827 105.41477,248.171945" id="Fill-52" fill="#45A900"></path>
            <path d="M72.8926286,242.434483 L71.5911373,252.410801 C72.4485083,252.551568 73.3056955,252.705016 74.1628827,252.860302 L75.65584,242.737888 C74.7365458,242.630015 73.8154141,242.525817 72.8926286,242.434483" id="Fill-53" fill="#45A900"></path>
            <path d="M377.817306,260.34163 L374.089047,265.461276 C374.761383,265.907285 375.412036,266.388028 376.04799,266.892476 L380.061611,262.271765 C379.339479,261.599167 378.595848,260.952114 377.817306,260.34163" id="Fill-54" fill="#45A900"></path>
            <path d="M251.767349,256.294869 L246.507545,271.997457 C247.573103,272.3174 248.631311,272.586256 249.684007,272.820195 L253.757713,256.985661 C253.072331,256.771936 252.403486,256.548839 251.767349,256.294869" id="Fill-55" fill="#45A900"></path>
            <path d="M295.999072,256.413713 L298.299972,268.93065 C299.184721,268.729422 300.076453,268.532053 300.961019,268.331008 L298.641744,256.035331 C297.759016,256.165073 296.8818,256.287647 295.999072,256.413713" id="Fill-56" fill="#45A900"></path>
            <path d="M280.267142,258.325453 L282.103893,272.205962 C283.021166,272.052331 283.929619,271.887857 284.839726,271.723566 L282.871411,258.071483 C282.001361,258.161163 281.133333,258.248638 280.267142,258.325453" id="Fill-57" fill="#45A900"></path>
            <path d="M389.510239,276.696968 C389.181146,275.825164 388.812178,274.955013 388.421161,274.092397 L383.884776,276.34413 C384.292514,277.080864 384.683531,277.830093 385.049007,278.603213 L389.519427,276.716999 L389.510239,276.696968 L389.510239,276.696968 Z" id="Fill-58" fill="#45A900"></path>
            <path d="M243.079072,249.614264 L229.019364,260.602969 C229.783207,261.522554 230.587475,262.412551 231.442641,263.253483 L244.168334,251.028924 C243.782462,250.577402 243.416986,250.107686 243.079072,249.614264" id="Fill-59" fill="#45A900"></path>
            <path d="M344.964306,251.069133 L345.220084,259.957716 C346.080762,259.89744 346.938133,259.846168 347.793299,259.80776 L347.778783,251.127572 C346.839277,251.094861 345.901791,251.078322 344.964306,251.069133" id="Fill-60" fill="#45A900"></path>
            <path d="M311.994332,254.04117 L314.105052,265.293218 C314.973264,265.095666 315.839639,264.901972 316.70583,264.708279 L314.691762,253.653783 C313.794517,253.781504 312.89176,253.909591 311.994332,254.04117" id="Fill-61" fill="#45A900"></path>
            <path d="M328.291069,251.953875 L329.698215,262.026855 C330.564406,261.869732 331.428943,261.717938 332.297156,261.571657 L331.037926,251.69237 C330.12047,251.774516 329.20485,251.862358 328.291069,251.953875" id="Fill-62" fill="#45A900"></path>
            <path d="M239.005292,238.455295 L220.30336,242.419947 C220.559322,243.447037 220.842478,244.481662 221.156872,245.514265 L239.403659,240.595663 C239.251883,239.895684 239.120319,239.18284 239.005292,238.455295" id="Fill-63" fill="#45A900"></path>
            <path d="M361.939075,252.957277 L360.423884,260.418335 C361.244505,260.549915 362.056123,260.701709 362.86186,260.875371 L364.744365,253.719371 C363.814046,253.435998 362.876744,253.183865 361.939075,252.957277" id="Fill-64" fill="#45A900"></path>
            <path d="M265.134489,258.793368 L265.002925,274.072183 C265.995352,274.040942 266.982265,273.997204 267.961829,273.936928 L267.566953,258.875697 C266.74817,258.86118 265.938573,258.83196 265.134489,258.793368" id="Fill-65" fill="#45A900"></path>
            <path d="M358.358752,234.38119 L358.353239,234.366672 C357.914631,233.558636 357.450299,232.752621 356.973471,231.951935 L352.691394,234.821686 C353.212137,235.508802 353.727552,236.207128 354.226613,236.919971 L358.358752,234.38119 L358.358752,234.38119 Z" id="Fill-66" fill="#45A900"></path>
            <path d="M296.032018,223.339393 C295.858376,223.434218 295.686571,223.533087 295.512928,223.628279 L302.203766,234.254958 C302.355542,234.149107 302.507135,234.035721 302.658911,233.929685 C303.221733,233.529435 303.786393,233.143702 304.353073,232.752639 L297.963767,222.301093 C297.320463,222.648418 296.669809,222.990046 296.032018,223.339393" id="Fill-67" fill="#45A900"></path>
            <path d="M347.63432,220.32711 C347.038607,219.802447 346.413494,219.296161 345.770191,218.808252 L341.835398,224.602333 C342.381867,224.923931 342.922822,225.269418 343.452753,225.640633 C343.584501,225.730129 343.710369,225.830651 343.838442,225.92566 L348.067599,220.729199 C347.921152,220.595782 347.784259,220.458689 347.63432,220.32711" id="Fill-68" fill="#45A900"></path>
            <path d="M311.946778,215.821587 C311.573952,215.956657 311.21748,216.115802 310.850166,216.258408 L315.196188,226.03901 C315.492207,225.885378 315.784735,225.711716 316.080938,225.563781 C316.519362,225.342706 316.961645,225.135964 317.40209,224.927753 L313.598862,215.251348 C313.045227,215.435853 312.491409,215.624034 311.946778,215.821587" id="Fill-69" fill="#45A900"></path>
            <path d="M281.515236,231.478581 C281.498882,231.485932 281.484182,231.493099 281.469482,231.502287 L288.966425,243.807153 C288.990312,243.790613 289.008687,243.776096 289.030553,243.763415 C289.788884,243.236915 290.523511,242.710598 291.265488,242.184097 L283.743188,230.257613 C282.999373,230.667053 282.251884,231.083843 281.515236,231.478581" id="Fill-70" fill="#45A900"></path>
            <path d="M330.354326,212.838505 C329.722048,212.785579 329.096935,212.76904 328.468331,212.752684 L328.680377,221.601205 C329.137176,221.56096 329.592321,221.518876 330.047466,221.504175 C330.346977,221.493149 330.643179,221.506013 330.941036,221.508034 L331.59169,212.99379 C331.178806,212.942702 330.76574,212.873237 330.354326,212.838505" id="Fill-71" fill="#45A900"></path>
            <path d="M268.837189,236.477674 L272.364611,252.337568 C273.557874,252.015971 274.672861,251.644939 275.732723,251.2355 L270.650236,236.124835 C270.005095,236.285818 269.39652,236.408209 268.837189,236.477674" id="Fill-72" fill="#45A900"></path>
            <path d="M264.165822,233.812771 L249.131879,243.920667 C249.894252,244.964297 250.773305,246.004251 251.776573,247.014985 L264.843854,234.942405 C264.633646,234.640838 264.40543,234.256943 264.165822,233.812771" id="Fill-73" fill="#45A900"></path>
            <path d="M187.68984,220.645106 C187.68984,224.225862 184.789368,227.128508 181.207189,227.128508 C177.627032,227.128508 174.724723,224.225862 174.724723,220.645106 C174.724723,217.064349 177.627032,214.163725 181.207189,214.163725 C184.789368,214.163725 187.68984,217.064349 187.68984,220.645106" id="Fill-74" fill="#45A900"></path>
            <path d="M257.771022,221.60115 C257.771022,225.181723 254.868896,228.084369 251.290576,228.084369 C247.710235,228.084369 244.809763,225.181723 244.809763,221.60115 C244.809763,218.022047 247.710235,215.119769 251.290576,215.119769 C254.868896,215.119769 257.771022,218.022047 257.771022,221.60115" id="Fill-75" fill="#45A900"></path>
            <path d="M234.765256,227.689558 C234.765256,231.270314 231.864785,234.17296 228.284627,234.17296 C224.706123,234.17296 221.801977,231.270314 221.801977,227.689558 C221.801977,224.108801 224.706123,221.206155 228.284627,221.206155 C231.864785,221.206155 234.765256,224.108801 234.765256,227.689558" id="Fill-76" fill="#45A900"></path>
            <path d="M210.088867,228.800777 C210.088867,232.379697 207.184904,235.28418 203.606584,235.28418 C200.026243,235.28418 197.125771,232.379697 197.125771,228.800777 C197.125771,225.220021 200.026243,222.319397 203.606584,222.319397 C207.184904,222.319397 210.088867,225.220021 210.088867,228.800777" id="Fill-77" fill="#45A900"></path>
            <path d="M245.336056,106.551024 C245.336056,122.66691 232.268774,135.730194 216.16027,135.730194 C200.046253,135.730194 186.978788,122.66691 186.978788,106.551024 C186.978788,90.4353214 200.046253,77.3718536 216.16027,77.3718536 C232.268774,77.3718536 245.336056,90.4353214 245.336056,106.551024" id="Fill-78" fill="#45A900"></path>
            <path d="M216.160307,128.261821 C204.183941,128.261821 194.446368,118.521465 194.446368,106.55106 C194.446368,94.578818 204.183941,84.8421372 216.160307,84.8421372 C228.127302,84.8421372 237.86855,94.578818 237.86855,106.55106 C237.86855,118.521465 228.127302,128.261821 216.160307,128.261821" id="Fill-79" fill="#45A900"></path>
            <path d="M216.160307,120.793431 C208.310567,120.793431 201.921444,114.405221 201.921444,106.551079 C201.921444,98.698774 208.310567,92.308727 216.160307,92.308727 C224.004351,92.308727 230.395311,98.698774 230.395311,106.551079 C230.395311,114.405221 224.004351,120.793431 216.160307,120.793431" id="Fill-80" fill="#45A900"></path>
            <path d="M237.934221,92.9337836 C237.934221,98.155973 233.69606,102.389113 228.476497,102.389113 C223.255097,102.389113 219.023918,98.155973 219.023918,92.9337836 C219.023918,87.7099401 223.255097,83.478638 228.476497,83.478638 C233.69606,83.478638 237.934221,87.7099401 237.934221,92.9337836" id="Fill-81" fill="#45A900"></path>
            <path d="M217.340781,176.614883 C203.847754,176.614883 187.463259,172.465726 169.669597,159.120906 C166.694156,156.885529 166.089439,152.663047 168.324557,149.687445 C170.556,146.711659 174.779461,146.106872 177.754902,148.338574 C196.065818,162.074456 214.458685,166.309617 232.412944,160.919462 C245.575407,156.971349 253.759569,149.042413 253.840051,148.963759 C256.468024,146.335298 260.737239,146.335298 263.365395,148.963759 C265.997226,151.595712 265.997226,155.863768 263.365395,158.495721 C262.945162,158.914349 252.878679,168.848582 236.283975,173.827461 C230.947365,175.428648 224.558059,176.614883 217.340781,176.614883" id="Fill-82" fill="#45A900"></path>
            <path d="M177.023987,160.98165 C175.114104,159.736792 173.182172,158.386084 171.286989,156.964072 L176.1374,150.497209 C177.892016,151.811347 179.674009,153.059696 181.433954,154.205869 L177.023987,160.98165 L177.023987,160.98165 Z M256.007586,161.083826 L251.259339,154.536655 C254.145111,152.445721 255.733433,150.879266 255.749787,150.864565 L261.461061,156.587527 C261.378742,156.669673 259.454343,158.583452 256.007586,161.083826 L256.007586,161.083826 L256.007586,161.083826 Z M186.818155,166.556494 C184.752821,165.549251 182.663783,164.421639 180.60782,163.207838 L184.716255,156.245715 C186.589572,157.35348 188.490267,158.377079 190.361747,159.287291 L186.818155,166.556494 L186.818155,166.556494 Z M246.211581,167.004157 L242.607536,159.76252 C244.488019,158.828418 246.343145,157.784788 248.124955,156.660668 L252.441761,163.496541 C250.431551,164.766942 248.335347,165.947848 246.211581,167.004157 L246.211581,167.004157 L246.211581,167.004157 Z M197.361466,170.795147 C195.142701,170.093146 192.89858,169.259749 190.686982,168.321971 L193.845069,160.87929 C195.822755,161.716362 197.825798,162.460262 199.801463,163.085448 L197.361466,170.795147 L197.361466,170.795147 Z M235.565739,171.228292 L233.235623,163.487536 C235.225804,162.887895 237.21966,162.167701 239.166109,161.347168 L242.309496,168.795546 C240.098265,169.729465 237.83191,170.546506 235.565739,171.228292 L235.565739,171.228292 L235.565739,171.228292 Z M208.520702,173.333928 C206.183236,173.006818 203.816738,172.54629 201.4846,171.963005 L203.451262,164.119889 C205.503366,164.635363 207.5834,165.041127 209.632013,165.3245 L208.520702,173.333928 L208.520702,173.333928 Z M224.311321,173.547836 L223.403052,165.512864 C225.466365,165.280579 227.546215,164.926087 229.587662,164.452696 L231.400526,172.33422 C229.061222,172.873401 226.676165,173.280819 224.311321,173.547836 L224.311321,173.547836 L224.311321,173.547836 Z M217.280548,173.942758 C215.80027,173.942758 214.297941,173.889465 212.810129,173.783613 L213.382322,165.719238 C215.483855,165.867357 217.616808,165.894738 219.656418,165.80708 L220.001865,173.884135 C219.106275,173.924381 218.198005,173.942758 217.280548,173.942758 L217.280548,173.942758 L217.280548,173.942758 Z" id="Fill-83" fill="#45A900"></path>
            <g id="checkmark-verification-circular-button-outline" transform="translate(237.934221, 18.000000)">
                <g id="Capa_1">
                    <g id="tick">
                        <path d="M72,0 C32.2334118,0 0,32.2334118 0,72 C0,111.766588 32.2334118,144 72,144 C111.761882,144 144,111.766588 144,72 C144,32.2334118 111.766588,0 72,0 L72,0 Z" id="Shape" stroke="#FFFFFF" stroke-width="15" fill="#45A900"></path>
                        <path d="M102.752941,46.2825882 L60.7501176,88.2854118 L41.2515294,68.7825882 C39.5369412,67.068 36.7515294,67.068 35.0369412,68.7825882 C33.3223529,70.4971765 33.3223529,73.2825882 35.0369412,74.9971765 L57.1094118,97.0696471 C57.2578824,97.2811765 57.348,97.5242353 57.5369412,97.7131765 C58.4235294,98.5997647 59.5889412,99.0091765 60.7498824,98.9776471 C61.9108235,99.0047059 63.0809412,98.5997647 63.9672941,97.7131765 C64.1562353,97.524 64.2463529,97.2811765 64.3948235,97.0696471 L108.967529,52.4971765 C110.681882,50.7825882 110.681882,47.9971765 108.967529,46.2825882 C107.248471,44.568 104.467529,44.568 102.752941,46.2825882 L102.752941,46.2825882 Z" id="Path" fill="#FFFFFF"></path>
                    </g>
                </g>
            </g>
        </g>
    </g>
</svg>