<?xml version="1.0" encoding="UTF-8" standalone="no"?>
<svg width="234px" height="441px" viewBox="0 0 234 441" version="1.1" xmlns="http://www.w3.org/2000/svg" xmlns:xlink="http://www.w3.org/1999/xlink">
    <!-- Generator: Sketch 3.8.3 (29802) - http://www.bohemiancoding.com/sketch -->
    <title>Group 8</title>
    <desc>Created with Sketch.</desc>
    <defs></defs>
    <g id="Page-1" stroke="none" stroke-width="1" fill="none" fill-rule="evenodd">
        <g id="Artboard-1" transform="translate(-4298.000000, -788.000000)">
            <g id="Group-8" transform="translate(4298.000000, 788.000000)">
                <g id="Group-6" fill="#45A900">
                    <path d="M52.4428903,260.807202 C43.535953,260.807202 36.2895007,253.589842 36.2895007,244.718653 C36.2895007,237.740891 40.7706937,231.78599 47.016622,229.560439 C46.4058127,220.239853 42.4742082,212.152102 35.0902713,204.964017 C35.0860733,204.959835 35.0818752,204.955828 35.0776773,204.951819 C22.3647258,192.513336 14.2723759,183.063804 10.3381477,176.06304 C6.34742133,168.994317 3.37313642,160.998398 1.5048503,152.309129 C1.49155663,152.247269 1.47913754,152.185236 1.46741811,152.123028 C0.45062687,146.673285 -0.0422886115,141.124914 0.00283991799,135.632131 C0.00283991799,135.625335 0.00283991799,135.618713 0.00301483101,135.612092 C0.233904982,114.732299 7.92079775,96.6672062 22.8501198,81.9190077 C22.8616643,81.9078555 22.8730339,81.8965291 22.8847533,81.885377 C29.3477534,75.5884186 36.4862821,70.6122933 44.1787722,67.0341949 L43.8805391,66.2495364 C39.0684036,66.130522 34.4275116,64.6465887 30.4212177,61.9399264 C26.1373308,59.0455944 22.9015453,54.9605957 21.0636947,50.1264861 C18.6930477,43.8866825 18.9032976,37.102166 21.6554382,31.0214548 C24.4077537,24.9409179 29.3720669,20.2922128 35.6337377,17.9316158 C38.487505,16.854736 41.4735093,16.3084548 44.507091,16.3084548 C49.5427702,16.3084548 54.4138526,17.8014492 58.5940138,20.6260803 C62.8780756,23.5211095 66.1135112,27.6068051 67.9506622,32.4421345 C70.1091352,38.1222395 70.1168316,44.3798167 67.9725268,50.0618384 C66.5948822,53.7124259 64.3940793,56.9611873 61.5758202,59.5732305 L62.2600946,61.374129 C66.8072312,60.5751818 71.5166905,60.1717875 76.3281264,60.1717875 C76.5653136,60.1717875 76.8035503,60.172833 77.0417869,60.1747498 C77.3666073,60.1592414 77.630032,60.1592414 77.7633186,60.1592414 C77.9338624,60.1592414 78.1045812,60.1655144 78.2749501,60.1778863 C78.3029368,60.1785834 78.3309236,60.1789318 78.3585604,60.1794546 C78.4320255,60.1782349 78.5098634,60.1777121 78.5945232,60.1777121 C78.7178395,60.1777121 78.859522,60.1789318 79.0008548,60.1815456 C83.9996265,60.2331243 88.87928,60.7123184 93.5768449,61.610241 C93.9544903,60.53946 94.5086266,59.5484868 95.2039208,58.6758308 C95.2070694,57.5590473 95.3956296,56.4363391 95.7720505,55.3622475 C96.1488212,54.2810114 96.7073304,53.278886 97.4101457,52.3976917 C97.4125953,51.2769003 97.6015049,50.149836 97.9801998,49.0708652 C97.9829985,49.063198 97.9856226,49.0557052 97.9882458,49.0482124 C98.1752324,48.5210989 98.4050731,48.0133274 98.6730451,47.5294286 C96.3069461,44.8844517 94.4393596,41.7911233 93.1768103,38.3651473 C90.5404646,31.2112156 90.8581135,23.4629092 94.0713347,16.5477033 C96.4132954,11.5109382 100.137798,7.29803827 104.842535,4.36310539 C109.418533,1.50867713 114.685802,0 120.074988,0 C124.24448,0 128.28873,0.890081169 132.095444,2.64549968 C139.037016,5.84564468 144.311807,11.5485767 146.947802,18.7032053 C149.583624,25.8573112 149.26475,33.6054434 146.049955,40.5199523 C143.709743,45.555149 139.985415,49.768746 135.279979,52.7040273 C131.89324,54.8168375 128.127631,56.1925601 124.214393,56.7649792 C123.977906,57.1842304 123.713956,57.5860564 123.424469,57.9674948 C123.391935,59.0851497 123.18186,60.209426 122.800191,61.2856087 C122.428144,62.3555184 121.890274,63.3553785 121.213521,64.2438915 C121.181512,65.3751379 120.968812,66.5112634 120.582771,67.5944163 C120.212473,68.6545678 119.680551,69.644147 119.012893,70.5241216 C119.002224,70.886218 118.973012,71.2495343 118.92526,71.6116307 C123.904266,74.7689096 128.595009,78.5761499 132.93347,82.9866521 C132.940817,82.9939707 132.947988,83.0014635 132.955335,83.0087822 C147.631202,98.0620968 154.958116,116.278964 154.732823,137.1544 C154.689619,142.610939 154.095427,148.153035 152.966864,153.626826 C152.953221,153.693565 152.938352,153.760303 152.922609,153.826693 C150.881157,162.436852 147.754519,170.359759 143.629981,177.375509 C139.540252,184.296988 131.268088,193.583594 118.333166,205.778821 C118.324596,205.787011 118.315849,205.795202 118.307104,205.803391 C111.048583,212.57693 106.987364,220.251004 105.995937,229.127596 C112.970568,230.907932 118.141458,237.223012 118.141458,244.718653 C118.141458,253.589842 110.89518,260.807202 101.988243,260.807202 L52.4428903,260.807202 L52.4428903,260.807202 L52.4428903,260.807202 Z" id="Fill-1"></path>
                    <path d="M84.5992069,440.97162 C82.5281923,440.97162 80.5635269,440.057666 79.2341595,438.475629 C77.9049668,436.893591 77.3473322,434.806048 77.7116838,432.775136 L81.1554453,413.581759 C81.494609,411.691295 82.5796177,410.093226 84.0760308,409.066531 L84.0760308,372.046786 C84.0760308,368.297572 87.0471672,365.239965 90.7718452,365.082964 L90.7718452,357.506819 L62.4173105,357.682814 L62.4173105,365.495768 C65.1014084,366.470361 67.0184963,369.035705 67.0184963,372.046786 L67.0184963,408.804978 C68.7262089,409.809717 69.9808869,411.52227 70.3503112,413.581933 L73.793373,432.775485 C74.1577247,434.806221 73.6000899,436.893766 72.2707225,438.475629 C70.941355,440.057666 68.9768646,440.97162 66.9058499,440.97162 L30.9524056,440.97162 C28.881391,440.97162 26.9167257,440.057666 25.5873581,438.475629 C24.2579907,436.893766 23.7005309,434.806221 24.0648825,432.775485 L27.5077694,413.581933 C27.847108,411.69112 28.9322917,410.092877 30.4292295,409.066008 L30.4292295,372.046786 C30.4292295,368.297746 33.4000161,365.240314 37.1243441,365.082964 L37.1243441,357.840164 L33.4684085,357.862642 C22.4418297,357.862642 13.3974078,348.982915 13.2111214,338.026623 C13.2111214,338.026623 9.01609227,268.773149 9.01504281,268.754504 L9.00962037,268.650649 C9.00314848,268.529544 9,268.40809 9,268.28681 L9,268.182956 C9,257.05398 18.0885009,248 29.2599108,248 L127.020549,248 C138.194233,248 147.284658,257.05398 147.284658,268.182956 L147.284658,268.350239 C147.284658,268.56213 147.274862,268.774194 147.255621,268.985214 C147.255621,268.985214 147.23778,269.17846 147.236556,269.191529 L140.546514,337.761236 C140.388389,342.965458 138.25283,347.836509 134.51206,351.509226 C130.699398,355.251993 125.659871,357.316187 120.318787,357.323331 L116.061838,357.349643 L116.061838,365.495768 C118.746286,366.470361 120.663199,369.035705 120.663199,372.046786 L120.663199,408.803758 C122.371786,409.808149 123.627513,411.521224 123.997112,413.581759 L127.440874,432.775136 C127.805226,434.806048 127.247591,436.893591 125.918399,438.475629 C124.589031,440.057666 122.624365,440.97162 120.553351,440.97162 L84.5992069,440.97162 L84.5992069,440.97162 Z" id="Fill-6"></path>
                    <polygon id="Fill-10" points="44 387.630704 55.299624 387.630704 55.299624 339 44 339"></polygon>
                    <polygon id="Fill-12" points="37 425.106516 59.5960994 425.106516 59.5960994 373 37 373"></polygon>
                    <polygon id="Fill-13" points="37 412.153026 59.5960994 412.153026 59.5960994 406 37 406"></polygon>
                    <polygon id="Fill-14" points="37 401.149541 59.5960994 401.149541 59.5960994 395 37 395"></polygon>
                    <polygon id="Fill-15" points="66.9534443 434.193377 31 434.193377 34.4430618 415 63.5103824 415"></polygon>
                    <polygon id="Fill-16" points="98 387.630704 109.29665 387.630704 109.29665 339 98 339"></polygon>
                    <polygon id="Fill-17" points="91 425.106516 113.593825 425.106516 113.593825 373 91 373"></polygon>
                    <polygon id="Fill-18" points="91 412.153026 113.593825 412.153026 113.593825 406 91 406"></polygon>
                    <polygon id="Fill-19" points="91 401.149541 113.593825 401.149541 113.593825 395 91 395"></polygon>
                    <polygon id="Fill-20" points="119.954144 434.193377 84 434.193377 87.4437616 415 116.510557 415"></polygon>
                    <path d="M113.165646,47.3867004 C113.940878,47.9404745 116.386914,50.7630146 116.745668,51.3814363 C116.926707,51.6886432 117.032882,51.9887058 117.063666,52.2666384 C117.094452,52.545268 117.071363,52.7988052 116.961515,53.1176871 C116.857614,53.4059005 116.720305,53.6073363 116.508481,53.8016277 C116.199753,54.0891441 115.698266,54.3106189 115.124364,54.4200493 C114.547664,54.5313966 113.907993,54.5425488 113.312401,54.4923641 L113,56.0385055 C113.868812,56.1040244 114.844847,56.0789321 115.758437,55.766149 C116.215145,55.6067081 116.662407,55.3719901 117.069264,55.0036206 C117.476295,54.6387362 117.836799,54.1205095 118.052296,53.4979057 C118.266919,52.8913332 118.330414,52.2805786 118.262721,51.738828 C118.160745,50.9245465 117.805314,50.2756307 117.348956,49.7072194 C116.886126,49.1382854 114.530172,46.4459118 113.909393,46 L113.165646,47.3867004 L113.165646,47.3867004 Z" id="Fill-21"></path>
                    <path d="M113,56.3867005 C113.776631,56.9396033 114.447086,57.5581992 114.810039,58.1724389 C114.993003,58.4801686 115.097252,58.7797085 115.131536,59.054156 C115.166695,59.3326113 115.139233,59.5861485 115.02956,59.9008483 L116.120866,60.2812412 C116.338811,59.6765855 116.400383,59.0595578 116.329192,58.5219892 C116.224941,57.7078821 115.866361,57.0587919 115.407729,56.4959568 C114.946999,55.9332958 114.364701,55.4459119 113.743921,55 L113,56.3867005 L113,56.3867005 Z" id="Fill-22"></path>
                    <path d="M118.975158,47 C118.870909,47.2918727 118.730625,47.4959223 118.520725,47.6936987 C118.204125,47.9874882 117.699141,48.2173271 117.12244,48.3330307 C116.546439,48.4499541 115.90467,48.4631972 115.310477,48.4171946 L115,49.961245 C115.871785,50.0267639 116.84922,49.9919134 117.770507,49.6658871 C118.22564,49.5008702 118.674477,49.2626672 119.081333,48.8915096 C119.488365,48.5252311 119.849043,48.0063075 120.064365,47.3802187 L118.975158,47 L118.975158,47 Z" id="Fill-23"></path>
                    <path d="M106.112569,55.0016932 L106.374769,54.248923 C105.896547,54.0837317 105.542166,53.7418485 105.366549,53.377661 C105.183587,53.0051094 105.177989,52.6728101 105.272269,52.4053327 C105.366549,52.1408176 105.577149,51.8830983 105.951121,51.7048382 C106.318796,51.5298887 106.810312,51.4840604 107.290633,51.6525624 C107.479369,51.71024 107.959691,52.0118709 108.489513,52.4095148 C109.29553,53.0051094 110.278562,53.8301945 111.059216,54.5043769 C111.840219,55.1785594 112.412896,55.6987028 112.41482,55.7009681 L112.825176,55.0407258 L112.916132,54.2661739 C112.911934,54.2684393 111.535514,54.3567852 110.014963,54.3993027 C109.253025,54.418122 108.456629,54.4257891 107.789846,54.4048789 C107.124988,54.3839685 106.563504,54.3219347 106.374769,54.248923 L106.112569,55.0016932 L105.848269,55.7509786 C106.241833,55.8813193 106.810312,55.9238369 107.516276,55.950846 C109.606007,56.0198499 112.726872,55.8123154 112.736492,55.8123154 L114.674396,55.6856339 L113.237629,54.3797865 C113.235705,54.3756044 112.202472,53.4423087 111.023008,52.4513353 C110.433014,51.9561101 109.804537,51.4450279 109.245154,51.0306557 C108.67685,50.6121014 108.206323,50.2930453 107.816959,50.1510297 C107.13041,49.9149177 106.407653,49.9588293 105.75259,50.2604601 C105.104524,50.5577347 104.487943,51.1608223 104.181138,52.0251141 C103.876258,52.893588 103.982433,53.7481216 104.304804,54.3839685 C104.624203,55.0267856 105.162596,55.5087677 105.848269,55.7509786 L106.112569,55.0016932 L106.112569,55.0016932 Z" id="Fill-24"></path>
                    <path d="M104.111548,60.9989358 L104.375847,60.2494763 C103.89745,60.0844593 103.542544,59.7425761 103.363604,59.3775173 C103.18239,59.0049657 103.176093,58.6728407 103.272648,58.4102424 C103.363604,58.1427649 103.575429,57.883826 103.951499,57.7053915 C104.317775,57.5306164 104.811391,57.484091 105.287338,57.649805 C105.478173,57.7132329 105.958669,58.0105074 106.488492,58.4060604 C107.294334,59.0049657 108.279465,59.830922 109.058194,60.5071956 C109.839198,61.179287 110.409602,61.6982106 110.411701,61.7015214 L110.824155,61.0407564 L110.914411,60.2689926 C110.914411,60.2689926 109.536592,60.3596038 108.013242,60.3993333 C107.249555,60.4186753 106.457707,60.4263425 105.786376,60.4035154 C105.125191,60.3860902 104.562309,60.3205712 104.375847,60.2494763 L104.111548,60.9989358 L103.850748,61.7496151 C104.24431,61.8818726 104.807193,61.9245645 105.513157,61.9515736 C107.602887,62.0205775 110.723578,61.8130429 110.733197,61.8130429 L112.674774,61.6861872 L111.236609,60.3782488 C111.232411,60.376332 110.204775,59.4430363 109.023386,58.448578 C108.431118,57.9547467 107.803342,57.4455812 107.244132,57.0312091 C106.677053,56.612132 106.204603,56.293773 105.81174,56.1517573 C105.125191,55.9135542 104.404534,55.9595569 103.748595,56.2631045 C103.103328,56.5584624 102.482548,57.1615498 102.179943,58.0300237 C101.877336,58.8936186 101.982636,59.750069 102.30081,60.3839992 C102.62668,61.0254221 103.162799,61.509321 103.850748,61.7496151 L104.111548,60.9989358 L104.111548,60.9989358 Z" id="Fill-25"></path>
                    <path d="M110.943325,62.3844352 C111.719956,62.9396033 112.383415,63.5578507 112.745668,64.1764467 C112.925308,64.4841764 113.030957,64.7837162 113.063666,65.0621716 C113.094452,65.3401041 113.069089,65.5936413 112.961515,65.9104321 C112.85534,66.2009109 112.720305,66.4007783 112.51058,66.5964638 C112.198353,66.8848514 111.698966,67.1070232 111.12209,67.2148855 C110.549762,67.326407 109.904669,67.3361651 109.310127,67.2880715 L109,68.8335159 C109.867412,68.8967695 110.842748,68.8737681 111.757038,68.5590684 C112.213746,68.3996274 112.663106,68.1656065 113.067864,67.7984568 C113.474721,67.4335722 113.834699,66.9153456 114.048623,66.2906509 C114.266918,65.6882604 114.32849,65.0733237 114.26272,64.5336641 C114.160569,63.7174659 113.806013,63.0662847 113.345457,62.5020555 C112.886651,61.9331215 112.308026,61.4455634 111.685847,61 L110.943325,62.3844352 L110.943325,62.3844352 Z" id="Fill-26"></path>
                    <path d="M108,68.3867004 C108.774706,68.9396032 109.443763,69.5547141 109.806541,70.1729616 C109.987579,70.4801686 110.093229,70.7797084 110.130136,71.0525876 C110.158822,71.3326112 110.135908,71.5861484 110.02816,71.9008483 L111.118766,72.2812412 C111.333389,71.6746687 111.396884,71.061823 111.324992,70.5219891 C111.223016,69.7043969 110.864262,69.0608829 110.40563,68.4959567 C109.941576,67.9332957 109.362601,67.4436465 108.743921,67 L108,68.3867004 L108,68.3867004 Z" id="Fill-27"></path>
                    <path d="M114.97306,59 C114.868985,59.2918728 114.734124,59.4959223 114.520025,59.6957898 C114.204125,59.9874882 113.700541,60.2180242 113.124715,60.3309397 C112.549938,60.4499541 111.90397,60.4638942 111.312577,60.4171946 L111,61.961245 C111.873184,62.0267639 112.852719,61.9926104 113.768583,61.6658872 C114.229139,61.5008702 114.674651,61.2626672 115.082908,60.8901156 C115.489764,60.52314 115.850617,60.0063075 116.064365,59.3802187 L114.97306,59 L114.97306,59 Z" id="Fill-28"></path>
                    <path d="M102.111064,68.0018361 L102.375364,67.2511568 C101.896966,67.0854427 101.54206,66.7440824 101.363121,66.3791978 C101.181907,66.0066463 101.175609,65.6722559 101.270065,65.4068696 C101.363121,65.1423544 101.574944,64.8846352 101.951016,64.704284 C102.319215,64.5314256 102.808808,64.4855973 103.286855,64.6527052 C103.47769,64.711951 103.958186,65.0113167 104.490107,65.4068696 C105.29385,66.0066463 106.278982,66.8319055 107.057711,67.5081791 C107.838714,68.1800962 108.411392,68.7011108 108.411392,68.7011108 L108.82367,68.0422626 L108.913928,67.2699761 C108.912528,67.2678851 107.536108,67.358322 106.014682,67.4008396 C105.251345,67.4196588 104.457223,67.427326 103.788167,67.4043247 C103.123308,67.3868994 102.564099,67.3222518 102.375364,67.2511568 L102.111064,68.0018361 L101.850963,68.7492045 C102.241728,68.8835531 102.808808,68.9253737 103.516171,68.952557 C105.604503,69.021561 108.725193,68.8138522 108.73079,68.8138522 L110.67429,68.6836857 L109.238224,67.3813233 C109.234026,67.3778383 108.20499,66.4426257 107.020803,65.4514782 C106.432908,64.9557302 105.804257,64.4472617 105.241725,64.0321926 C104.676744,63.6136383 104.208142,63.2945822 103.815279,63.1525665 C103.128906,62.9143635 102.407373,62.9582751 101.752485,63.2619969 C101.103019,63.5599685 100.483464,64.1623591 100.180857,65.0266509 C99.8768525,65.8951248 99.982327,66.7475674 100.302425,67.3855053 C100.626196,68.0269284 101.160392,68.5110015 101.850963,68.7492045 L102.111064,68.0018361 L102.111064,68.0018361 Z" id="Fill-29"></path>
                    <path d="M99.1143862,73.9992507 L99.3744879,73.2499655 C98.8948656,73.0847742 98.5418836,72.742891 98.3643433,72.3787035 C98.1833041,72.0061519 98.1777067,71.6717617 98.272162,71.4065495 C98.3643433,71.1418601 98.5768672,70.8841409 98.9501392,70.7058807 C99.3185141,70.5311055 99.8121298,70.4851029 100.288078,70.651514 C100.476988,70.7114568 100.957134,71.0109966 101.487133,71.4107316 C102.293149,72.0061519 103.280379,72.8314113 104.059109,73.5076848 C104.837838,74.179602 105.410341,74.6985256 105.410341,74.6999196 L105.824894,74.0417683 L105.915851,73.2659968 C105.911653,73.2659968 104.535057,73.3578278 103.012582,73.3982543 C102.250469,73.4191646 101.458446,73.4268317 100.787291,73.4038304 C100.124531,73.3843141 99.5618236,73.3196664 99.3744879,73.2499655 L99.1143862,73.9992507 L98.8481626,74.7480133 C99.2417257,74.8823618 99.8121298,74.9248794 100.515994,74.9499718 C102.603451,75.0167104 105.726415,74.8133579 105.734112,74.8098729 L107.674114,74.6831914 L106.235248,73.3808291 C106.233849,73.376647 105.204289,72.4419572 104.022726,71.4488928 C103.432557,70.9552359 102.802157,70.4460704 102.242948,70.0296072 C101.676567,69.6131441 101.203943,69.2942621 100.814578,69.1520722 C100.128029,68.9138692 99.407372,68.9598718 98.7516088,69.2594117 C98.1042416,69.5587772 97.485386,70.1604708 97.1805063,71.0261566 C96.8758012,71.8925394 96.9840754,72.7491642 97.3024239,73.3829201 C97.6240957,74.0264342 98.1637133,74.5098102 98.8481626,74.7480133 L99.1143862,73.9992507 L99.1143862,73.9992507 Z" id="Fill-30"></path>
                    <path d="M105.944899,74.3867005 C106.718206,74.9437853 107.38499,75.5622071 107.745842,76.180106 C107.924607,76.4878358 108.030957,76.7872013 108.06594,77.0637398 C108.094626,77.3444604 108.071363,77.5979976 107.961689,77.9147885 C107.855516,78.2045702 107.72048,78.4044377 107.510055,78.6001232 C107.198353,78.8883365 106.698441,79.1092886 106.124364,79.2185448 C105.549762,79.3300664 104.908168,79.3396502 104.312401,79.2915566 L104,80.8375237 C104.869511,80.9007774 105.842924,80.8760335 106.758437,80.5630762 C107.215145,80.4053779 107.662407,80.1692659 108.06734,79.8024645 C108.474196,79.4372315 108.836973,78.919005 109.052296,78.2950072 C109.266919,77.6898286 109.330589,77.076983 109.260622,76.5373235 C109.158471,75.7211253 108.804264,75.0706411 108.346856,74.5057149 C107.8863,73.9374779 107.308201,73.4492226 106.68952,73 L105.944899,74.3867005 L105.944899,74.3867005 Z" id="Fill-31"></path>
                    <path d="M104,81.3867004 C104.778729,81.9399518 105.445687,82.5547142 105.807764,83.1727874 C105.991078,83.4801686 106.099351,83.7797084 106.130136,84.0522392 C106.162846,84.3329598 106.139232,84.586497 106.031483,84.9011968 L107.122964,85.2815897 C107.334788,84.6746687 107.400382,84.0599062 107.32884,83.5205951 C107.22494,82.7061395 106.86636,82.0591404 106.407554,81.4943884 C105.942801,80.9336443 105.364525,80.4436466 104.743745,80 L104,81.3867004 L104,81.3867004 Z" id="Fill-32"></path>
                    <path d="M109.973759,72 C109.869508,72.2925697 109.730449,72.4959223 109.518451,72.6935244 C109.202726,72.9874882 108.699316,73.2159331 108.121216,73.3295456 C107.546613,73.4499541 106.906068,73.4618032 106.310652,73.4178916 L106,74.961942 C106.87196,75.0267639 107.851319,74.9905194 108.766483,74.6658872 C109.225815,74.5008702 109.674651,74.2626672 110.081508,73.8901156 C110.488189,73.52314 110.846769,73.0049135 111.064365,72.3802187 L109.973759,72 L109.973759,72 Z" id="Fill-33"></path>
                    <path d="M97.1127511,79.9982082 L97.3751258,79.24962 C96.8988278,79.0844288 96.544621,78.7404545 96.3628827,78.377661 C96.1818435,78.0051094 96.1760716,77.6707192 96.2726254,77.4053327 C96.3628827,77.1408176 96.5773305,76.8830983 96.9528767,76.702573 C97.321077,76.5298888 97.8127677,76.4840604 98.2887166,76.6490774 C98.4795501,76.7125053 98.9598716,77.0097798 99.4898693,77.4095148 C100.295712,78.0051094 101.280842,78.8308915 102.059573,79.506468 C102.838302,80.178908 103.410979,80.6974831 103.413253,80.6974831 L103.823433,80.0386348 L103.91439,79.2649542 C103.91439,79.2649542 102.53797,79.3567852 101.015144,79.3972118 C100.253032,79.4179478 99.4590847,79.4257891 98.7884533,79.4027878 C98.1251688,79.3839686 97.5622869,79.3205407 97.3751258,79.24962 L97.1127511,79.9982082 L96.8486259,80.7494103 C97.2442885,80.8816678 97.8104937,80.9240111 98.5164578,80.9489293 C100.60409,81.0181075 103.725655,80.8126638 103.733351,80.8088304 L105.675977,80.6838914 L104.237811,79.3783925 C104.234487,79.3763014 103.204752,78.4388237 102.02319,77.4478503 C101.431271,76.9526251 100.804719,76.4457249 100.244111,76.0269964 C99.6770305,75.6121015 99.2045805,75.2930454 98.8150409,75.1510297 C98.1286676,74.9149177 97.4059114,74.9588293 96.7527723,75.2604602 C96.104705,75.5584318 95.4841005,76.1573372 95.1811447,77.0251141 C94.8764397,77.8914969 94.9826142,78.7460306 95.3028868,79.3818776 C95.6245588,80.0253917 96.1641766,80.5091162 96.8486259,80.7494103 L97.1127511,79.9982082 L97.1127511,79.9982082 Z" id="Fill-34"></path>
                    <path d="M95.1111928,86.9992233 L95.3754921,86.2502865 C94.8953455,86.0850953 94.5406143,85.7414695 94.3611497,85.3783275 C94.1801108,85.0057759 94.1757379,84.6734767 94.2687936,84.4068706 C94.3632487,84.1418327 94.5750729,83.8844619 94.951144,83.7037622 C95.3175946,83.5310781 95.8068369,83.4847269 96.2871589,83.6500924 C96.4758939,83.7135203 96.9560398,84.0111434 97.488137,84.4084388 C98.2922299,85.0057759 99.2770107,85.8317322 100.058014,86.5036494 C100.836744,87.1799229 101.409247,87.698498 101.411521,87.698498 L101.823974,87.0396498 L101.914232,86.2677118 C101.912832,86.2677118 100.533963,86.3578002 99.0128866,86.3982268 C98.2514743,86.4173945 97.4552529,86.4250616 96.7882949,86.4038028 C96.1227363,86.3846351 95.5600293,86.3194647 95.3754921,86.2502865 L95.1111928,86.9992233 L94.8491675,87.7483342 C95.2420306,87.8826828 95.808761,87.9248519 96.5141998,87.9482017 C98.6046309,88.020865 101.725321,87.8136789 101.733017,87.8115879 L103.674419,87.6869974 L102.238352,86.3808015 C102.234329,86.3769679 101.203195,85.4400129 100.020757,84.4488654 C99.4330362,83.9534659 98.8031613,83.4463914 98.2418534,83.0295797 C97.6733742,82.612768 97.2044221,82.2942347 96.8134832,82.1520447 C96.1248358,81.9138416 95.4062774,81.9598443 94.7503395,82.2597326 C94.1029725,82.5573557 93.4835922,83.1621858 93.1795869,84.0264776 C92.8769808,84.8925119 92.9824557,85.7491366 93.3048273,86.3808015 C93.6250998,87.0260581 94.1624443,87.5083887 94.8491675,87.7483342 L95.1111928,86.9992233 L95.1111928,86.9992233 Z" id="Fill-35"></path>
                    <path d="M101.941401,87.3846094 C102.720306,87.9413457 103.38359,88.5597675 103.743744,89.1764467 C103.925482,89.4857446 104.029557,89.7851103 104.064016,90.0616488 C104.094802,90.3402784 104.06804,90.595558 103.959766,90.9123489 C103.855516,91.2024791 103.717156,91.4023466 103.50883,91.598032 C103.198353,91.8862455 102.69914,92.1087658 102.12244,92.2164538 C101.549938,92.327801 100.906068,92.3354681 100.310477,92.2894654 L100,93.8335159 C100.869686,93.8990347 101.842748,93.875685 102.757213,93.5608109 C103.213571,93.40137 103.659084,93.1671748 104.06804,92.8003735 C104.476295,92.435489 104.837148,91.9169139 105.050897,91.2925676 C105.267094,90.6877376 105.32849,90.0752405 105.262721,89.5355808 C105.15917,88.7174659 104.80199,88.0680273 104.347731,87.5015327 C103.884901,86.9350383 103.306102,86.4474801 102.686021,86 L101.941401,87.3846094 L101.941401,87.3846094 Z" id="Fill-36"></path>
                    <path d="M99,93.3882688 C99.774531,93.9434369 100.443587,94.558025 100.80794,95.1764467 C100.989678,95.4834794 101.095153,95.7833676 101.130136,96.0560731 C101.162846,96.3341797 101.135559,96.5859738 101.029384,96.9046819 L102.12069,97.2849006 C102.333389,96.6783282 102.396884,96.0637398 102.326916,95.5218149 C102.222667,94.7077078 101.862688,94.0624512 101.403357,93.4975251 C100.939127,92.9352126 100.362426,92.4453892 99.7416469,92 L99,93.3882688 L99,93.3882688 Z" id="Fill-37"></path>
                    <path d="M105.97306,85 C105.866711,85.2916985 105.731849,85.4955737 105.514428,85.6954412 C105.199753,85.9871397 104.696517,86.2176756 104.120515,86.3290229 C103.54574,86.4482115 102.90397,86.4614547 102.310652,86.413361 L102,87.9615935 C102.869161,88.024847 103.84852,87.9901708 104.768407,87.6655387 C105.225115,87.5005217 105.672377,87.2602276 106.080634,86.889767 C106.486265,86.521049 106.84607,86.0045649 107.064365,85.3802187 L105.97306,85 L105.97306,85 Z" id="Fill-38"></path>
                    <path d="M93.114061,93.0005412 L93.3764362,92.2516045 C92.8961146,92.0860648 92.5415584,91.74453 92.3640178,91.3796456 C92.18088,91.0069197 92.1786061,90.6727036 92.2695627,90.4076658 C92.3640178,90.1428022 92.573743,89.8854314 92.9519131,89.7049059 C93.3204628,89.5318733 93.8097051,89.4837797 94.2879275,89.6510619 C94.4808607,89.7125731 94.9568092,90.0121129 95.49118,90.4097568 C96.2949221,91.0069197 97.2798785,91.8325275 98.0608827,92.5049674 C98.8376877,93.1808924 99.41229,93.6994675 99.4136893,93.6994675 L99.8247437,93.0407935 L99.9149999,92.2669387 C99.9136006,92.268507 98.5349066,92.3591182 97.0136559,92.4012873 C96.2522426,92.4187125 95.4561967,92.4279479 94.7890641,92.4051209 C94.1256048,92.3859531 93.5628975,92.3204342 93.3764362,92.2516045 L93.114061,93.0005412 L92.8478376,93.749478 C93.2448988,93.8840008 93.811804,93.9242531 94.5170685,93.9512622 C96.6069741,94.0221829 99.7281888,93.8129058 99.7339618,93.8129058 L101.675187,93.6862243 L100.239121,92.3800284 C100.232999,92.378286 99.2039641,91.4408081 98.0218755,90.4501833 C97.4338055,89.9563521 96.80533,89.4477094 96.2447213,89.0288067 C95.6755423,88.614086 95.2058908,88.2953784 94.8163511,88.1530141 C94.1299776,87.9151597 93.4049476,87.9573287 92.7533825,88.2605279 C92.1039166,88.5565827 91.4845362,89.1593217 91.1817554,90.0274471 C90.875651,90.8955724 90.9832248,91.7483636 91.3033224,92.3821195 C91.625869,93.0273761 92.1632134,93.509184 92.8478376,93.749478 L93.114061,93.0005412 L93.114061,93.0005412 Z" id="Fill-39"></path>
                    <polygon id="Fill-40" points="58.5504531 73.527731 53.941221 75.2672926 45 51.7376448 49.6090571 50"></polygon>
                    <path d="M60.975318,35.6308381 C64.5070627,44.9261572 59.8052996,55.3197891 50.4752387,58.838119 C41.1401051,62.3601082 30.7089429,57.6744616 27.1750992,48.3791424 C23.6417803,39.0803382 28.3454674,28.6901914 37.6783271,25.1718615 C47.0103122,21.6507436 57.442174,26.3320338 60.975318,35.6308381" id="Fill-41"></path>
                    <path d="M56.1812531,37.3741818 C58.7280415,44.0710495 55.340778,51.552924 48.6225744,54.0858567 C41.9022717,56.6194863 34.389771,53.2487483 31.8466559,46.5517064 C29.3017917,39.8569298 32.6874808,32.3787146 39.4079584,29.8436909 C46.126337,27.308493 53.6384879,30.6794053 56.1812531,37.3741818" id="Fill-42"></path>
                    <path d="M49.1413807,40.3695971 C50.1655185,43.0696378 48.8044911,46.0810675 46.0978288,47.1006182 C43.3929158,48.1208659 40.3665056,46.7650081 39.3409685,44.0684524 C38.3152565,41.3717226 39.6822312,38.3611641 42.3883686,37.3393482 C45.0929319,36.3191004 48.1158437,37.6772235 49.1413807,40.3695971" id="Fill-43"></path>
                    <path d="M44.2046189,38.2465711 C44.8192765,39.8617166 46.6373615,40.6834908 48.2621635,40.0690768 C49.8874902,39.4543144 50.7026023,37.6434837 50.089694,36.0285126 C49.4750364,34.4070942 47.6588755,33.590896 46.0319745,34.2037416 C44.4089217,34.8181556 43.5892617,36.627418 44.2046189,38.2465711" id="Fill-44"></path>
                    <path d="M139.287598,38.6206851 C134.265912,49.4252041 121.403407,54.1303669 110.557866,49.1293235 C99.7079542,44.1267118 94.9867751,31.3095778 100.007236,20.5057558 C105.030672,9.70123679 117.893352,4.9974679 128.742565,10.0007766 C139.588979,15.001123 144.309984,27.81756 139.287598,38.6206851" id="Fill-45"></path>
                    <path d="M133.729248,36.0470341 C130.114067,43.8282742 120.851349,47.2164376 113.039566,43.6137696 C105.230056,40.0124955 101.829675,30.7847864 105.446079,23.0021521 C109.062658,15.2237 118.321878,11.8383247 126.133662,15.4409927 C133.943171,19.0400015 137.347751,28.2650968 133.729248,36.0470341" id="Fill-46"></path>
                    <path d="M124.974921,31.8773066 C123.515241,35.0119327 119.789164,36.3756319 116.641011,34.9256778 C113.498807,33.4755495 112.12571,29.7573521 113.581192,26.623423 C115.038774,23.4908879 118.767125,22.1299768 121.915102,23.5806278 C125.059581,25.0291879 126.42848,28.7454685 124.974921,31.8773066" id="Fill-47"></path>
                    <path d="M123.346461,26.1771857 C122.477475,28.0589373 123.299059,30.2945953 125.185885,31.1621979 C127.076911,32.0341568 129.315321,31.2123826 130.188505,29.3341162 C131.061691,27.4523646 130.240806,25.2203659 128.355378,24.34771 C126.465752,23.477842 124.224019,24.2961313 123.346461,26.1771857" id="Fill-48"></path>
                    <path d="M143.021062,137.756088 C143.021062,174.625802 113.020385,204.512176 76.0104433,204.512176 C38.9999768,204.512176 9,174.625802 9,137.756088 C9,100.886897 38.9999768,71 76.0104433,71 C113.020385,71 143.021062,100.886897 143.021062,137.756088" id="Fill-49"></path>
                    <path d="M80.8300867,80.9405047 C74.7779662,79.3004412 74.6822867,78.0120192 80.8300867,77.9485913 C100.165562,77.8539723 117.260879,84.5759321 127.901067,98.2880261 C138.558046,111.992802 140.780364,130.187539 135.841414,148.785496 C134.303371,154.712168 133.070907,154.26643 132.986423,148.036384 C132.799611,132.757065 128.092076,117.934809 118.479524,105.551388 C108.857877,93.1719765 95.6353928,84.9620755 80.8300867,80.9405047 L80.8300867,80.9405047 L80.8300867,80.9405047 Z M99.606179,243.807063 C96.6938138,227.146967 101.302871,212.994711 113.527281,201.587105 C125.761135,190.052642 133.803633,181.141898 137.596004,174.723486 C141.374031,168.297581 144.212581,161.126224 146.116725,153.095106 C147.123372,148.212903 147.699547,143.162197 147.739953,137.957627 C147.948279,118.810601 141.278178,102.417111 127.939549,88.7356851 C114.583603,75.1579393 98.1548936,68.2131107 78.9019791,68.0216072 C78.6913793,68.0174252 78.4741326,68.0174252 78.3833508,68.0216072 C78.1846454,68.0174252 77.9705472,68.0174252 77.7665943,68 C77.6471262,68 77.4367013,68 77.220679,68.0174252 C57.9850808,67.8064056 41.4501976,74.4205033 27.7801015,87.7391357 C14.1892427,101.164933 7.21443609,117.404732 7.00261185,136.5596 C6.95993213,141.775497 7.44165293,146.853211 8.34964595,151.719906 C10.0848204,159.789882 12.7895586,167.051153 16.4465437,173.528812 C20.0881362,180.008735 27.9788069,189.103838 39.9835204,200.849494 C51.9742406,212.522487 56.2904871,226.737822 53.0692196,243.357492 L99.606179,243.807063 L99.606179,243.807063 Z" id="Fill-50"></path>
                    <path d="M72.6327321,176.657271 L70.1727025,176.691773 C70.1803989,177.027731 70.1727025,177.360031 70.1538116,177.686579 C70.0397658,179.510828 69.5001475,181.154899 68.8268928,182.215225 C68.4975246,182.74896 68.1391201,183.129353 67.8538308,183.340547 C67.5641686,183.559234 67.386803,183.598091 67.2888496,183.609418 L67.1945695,183.617085 L67.1016886,183.636253 L67.0210521,183.640087 C66.9127786,183.636253 66.6470799,183.578401 66.2666359,183.35013 C65.6943083,183.013998 64.9386677,182.307056 64.2561425,181.324098 C63.571868,180.336958 62.9586098,179.088614 62.5309383,177.709581 L62.4847602,177.557808 L62.4133942,177.411957 C62.3532228,177.283359 62.2358537,176.937642 62.1513689,176.46507 C62.0184321,175.750462 61.9353466,174.748336 61.9199539,173.588163 C61.9022874,172.428165 61.9449671,171.110817 62.0319008,169.716624 C62.2710119,165.975425 62.8433397,161.717743 63.410245,158.431865 C63.6915111,156.787969 63.9768004,155.381926 64.2059414,154.427372 C64.3163138,153.957064 64.4238877,153.588172 64.480036,153.419321 L64.5087223,153.342476 L64.4513496,153.323309 L64.5073229,153.342476 L64.5087223,153.342476 L64.4513496,153.323309 L64.5073229,153.342476 L63.0824509,152.808567 L64.3703632,153.580505 C64.4854583,153.411654 64.4973527,153.359727 64.5073229,153.342476 L63.0824509,152.808567 L64.3703632,153.580505 L62.4868593,152.447515 L64.0137078,153.976058 C64.2199347,153.791873 64.3044195,153.665192 64.3703632,153.580505 L62.4868593,152.447515 L64.0137078,153.976058 L62.3939784,152.359344 L63.5662707,154.277689 C63.7682996,154.170175 63.9073584,154.064578 64.0137078,153.976058 L62.3939784,152.359344 L63.5662707,154.277689 L62.3771864,152.324494 L62.7467856,154.544818 C63.0922463,154.49289 63.3656412,154.383634 63.5662707,154.277689 L62.3771864,152.324494 L62.7467856,154.544818 L62.3686155,152.286333 L62.6986835,154.548651 L62.3729885,152.312993 L62.2323554,154.567819 C62.4168925,154.57932 62.5790404,154.563985 62.6986835,154.548651 L62.3729885,152.312993 L62.2323554,154.567819 L62.3707145,152.335995 L61.4205666,154.387468 C61.6052786,154.460131 61.8660796,154.544818 62.2323554,154.567819 L62.3707145,152.335995 L61.4205666,154.387468 L62.3226125,152.438106 L60.8132555,154.03391 C60.917331,154.11058 61.0544657,154.235519 61.4205666,154.387468 L62.3226125,152.438106 L60.8132555,154.03391 L61.8039841,152.985433 L60.6047547,153.834042 C60.614725,153.839967 60.6301177,153.87656 60.8132555,154.03391 L61.8039841,152.985433 L60.6047547,153.834042 L60.6706984,153.922562 C60.8286482,154.149264 61.1566172,154.673241 61.543708,155.358924 C62.920478,157.774934 65.2048911,162.27657 67.0709033,166.601514 C68.0040843,168.76782 68.8345892,170.899623 69.4035934,172.683794 C69.6834604,173.57283 69.902806,174.379618 70.0301454,175.036375 C70.1650062,175.691389 70.2019136,176.207699 70.1845968,176.432311 L70.1824979,176.468904 L70.1706035,176.580425 L70.1727025,176.691773 L72.6327321,176.657271 L75.0808673,176.841455 L75.0908376,176.701531 C75.14891,175.681632 74.9825641,174.678983 74.722288,173.542161 C74.2540357,171.57154 73.4270292,169.259386 72.4418979,166.824383 C70.9591284,163.183031 69.1086838,159.311491 67.5587462,156.311563 C66.7821157,154.813689 66.0822736,153.534677 65.5249888,152.593366 C65.2433728,152.119051 65.0063605,151.733255 64.7772196,151.406707 C64.6575765,151.237856 64.549128,151.091833 64.3778845,150.903466 C64.2855285,150.803444 64.1849513,150.699765 63.9843219,150.538581 C63.8786721,150.465744 63.7494086,150.369731 63.5332114,150.265876 C63.3215621,150.166029 63.0133588,150.03534 62.5197436,150.004672 C62.3289094,149.993171 62.1644877,150.004672 62.0373231,150.020006 L62.0121351,150.023839 L61.9890461,150.023839 C61.4473288,150.108526 61.0850762,150.315712 60.8538362,150.477244 C60.4063991,150.811112 60.2986503,151.030321 60.1811063,151.191504 C59.9918463,151.495053 59.9325495,151.667737 59.8555861,151.863771 C59.7261477,152.213147 59.6239963,152.578031 59.5080265,153.027602 C59.1107905,154.583153 58.6250466,157.108593 58.1720121,160.060254 C57.724575,163.004423 57.3240156,166.347977 57.123561,169.451586 C57.0004195,171.418024 56.9579148,173.282699 57.0486966,174.925028 C57.0926007,175.750462 57.1737621,176.519089 57.3045998,177.233349 C57.4380613,177.951617 57.6149023,178.616042 57.9232805,179.268965 L60.1693868,178.339504 L57.8078354,178.969425 C58.5501822,181.362433 59.710755,183.472979 61.1585413,185.115133 C61.8889937,185.936907 62.6930861,186.645592 63.6047523,187.192918 C64.5148444,187.738328 65.5615464,188.133881 66.7317396,188.201142 C67.1441934,188.222402 67.5641686,188.201142 67.9865927,188.133881 L67.5454525,185.883238 L67.8013558,188.153398 C69.0086313,188.041876 70.0838448,187.546476 70.9456598,186.897386 C72.2412684,185.91408 73.1646541,184.584883 73.8450803,183.06 C74.5216584,181.538952 74.9404092,179.806883 75.0600523,177.955451 C75.0887386,177.515638 75.094161,177.0699 75.0887386,176.618586 L72.6327321,176.657271 L75.0808673,176.841455 L72.6327321,176.657271 L72.6327321,176.657271 Z" id="Fill-51"></path>
                    <path d="M64.8747557,151.434299 C65.3758923,147.896802 66.6022338,144.566665 68.5742457,142.285178 C69.5614759,141.136855 70.7164515,140.233879 72.1117626,139.59629 C73.5098724,138.9587 75.1675587,138.578481 77.2326261,138.570815 L77.2261543,136.28532 L77.1689564,138.570815 C77.3228832,138.574648 77.4694636,138.578481 77.619717,138.586149 C79.4878282,138.693662 80.9336903,139.150901 82.1542596,139.845993 C83.9718198,140.883318 85.3407185,142.528957 86.3450907,144.555164 C87.3456147,146.571786 87.9433054,148.92611 88.240489,151.115243 L93.1152447,150.543173 C92.6531146,147.174526 91.617957,143.362581 89.3045077,140.122706 C88.1418358,138.509477 86.6403503,137.042098 84.7295593,135.951453 C82.8231414,134.858541 80.5175633,134.165191 77.9093793,134.025092 C77.7045516,134.011501 77.4960509,134.007668 77.2863257,134 L77.2576393,134 L77.2228308,134 C74.4971027,134.003834 72.0480929,134.530076 69.9487416,135.490381 C66.7853717,136.930751 64.4797937,139.304417 62.9144634,142.002889 C61.3395127,144.708855 60.4453381,147.758445 60,150.823545 L64.8747557,151.434299 L64.8747557,151.434299 Z" id="Fill-52"></path>
                    <path d="M92.5476613,151.961751 C93.9121871,148.862323 95.6844439,146.077596 97.7621058,144.237491 C98.8016357,143.312037 99.904136,142.618686 101.079927,142.171206 C102.262015,141.725468 103.526838,141.510615 104.995439,141.587287 C105.500424,141.618303 106.028847,141.67964 106.583858,141.785062 L107.56759,137.308693 C106.792359,137.158662 106.030947,137.066831 105.284926,137.024314 C103.110186,136.903382 101.054739,137.237424 99.2217863,137.940358 C96.4577506,138.990926 94.219166,140.811515 92.4028302,142.958652 C90.5794977,145.113283 89.1528764,147.617638 88,150.223757 L92.5476613,151.961751 L92.5476613,151.961751 Z" id="Fill-53"></path>
                    <path d="M44.4708752,143.168762 C46.1820861,142.673189 47.6881196,142.514096 49.0437246,142.589025 C50.4434087,142.667787 51.6902155,142.992245 52.8432669,143.499144 C54.5763423,144.267423 56.0974186,145.485099 57.3774596,146.946554 C58.6575006,148.402084 59.6809387,150.094075 60.4038698,151.707304 L64.9401615,149.944392 C63.7601729,147.328515 61.9711241,144.542045 59.4112171,142.266135 C58.131176,141.129138 56.6545286,140.130498 54.9678061,139.377727 C53.2809086,138.628617 51.3855104,138.137051 49.3323373,138.023786 C47.3449328,137.918364 45.2168953,138.1604 43,138.809316 L44.4708752,143.170853 L44.4708752,143.168762 L44.4708752,143.168762 Z" id="Fill-54"></path>
                    <path d="M94.481649,178.256996 L92.0718205,177.811258 C91.6768584,179.689526 90.7400041,181.300663 89.6738863,182.33607 C89.1452878,182.858305 88.5860789,183.227023 88.083543,183.446059 C87.5759345,183.664745 87.1347944,183.743507 86.7454296,183.722597 L86.5734864,183.707262 L86.526084,183.699596 L86.4792062,183.695762 C86.1148547,183.657078 85.7527769,183.530396 85.3382242,183.238523 C84.7228669,182.808469 84.0485627,181.967179 83.583459,180.830355 C83.1171309,179.691268 82.8572045,178.272331 82.9241976,176.77045 L82.9283957,176.662935 L82.9241976,176.559081 C82.9206994,176.495653 82.9206994,176.399641 82.9283957,176.278709 C82.954983,175.813804 83.1094345,175.007364 83.3772321,174.054726 C83.8517814,172.36866 84.6691675,170.188762 85.6268368,167.909367 C87.0634283,164.483217 88.8237908,160.816947 90.24429,158.032219 C90.9553266,156.639943 91.5803044,155.46827 92.0333388,154.669323 C92.2570574,154.27377 92.4424692,153.966389 92.5421717,153.803462 L92.6002441,153.720867 L92.6081153,153.709018 L91.5168095,153.02926 L92.4996669,153.835873 C92.6002441,153.724701 92.6081153,153.709018 92.6081153,153.709018 L91.5168095,153.02926 L92.4996669,153.835873 L90.8202909,152.457189 L92.1758959,154.112586 C92.3744265,153.970571 92.4438684,153.889717 92.4996669,153.835873 L90.8202909,152.457189 L92.1758959,154.112586 L90.7260108,152.338 L91.7020464,154.373791 C91.9388837,154.27377 92.0718205,154.18159 92.1758959,154.112586 L90.7260108,152.338 L91.7020464,154.373791 L90.708694,152.303324 L90.5645626,154.565643 C91.1022568,154.588644 91.4664335,154.469455 91.7020464,154.373791 L90.708694,152.303324 L90.5645626,154.565643 L90.708694,152.287989 L90.1500098,154.509881 C90.3023623,154.542641 90.4639855,154.560066 90.5645626,154.565643 L90.708694,152.287989 L90.1500098,154.509881 L90.708694,152.287989 L89.7970278,154.406202 C89.8724169,154.435127 89.9976574,154.475379 90.1500098,154.509881 L90.708694,152.287989 L89.7970278,154.406202 L90.0807427,154.511972 L90.3826491,154.550308 L90.708694,152.295656 L89.5698108,154.308272 C89.7718398,154.404459 90.0417363,154.508139 90.3826491,154.550308 L90.708694,152.295656 L89.5698108,154.308272 L90.6973244,152.314825 L88.8699688,153.79353 C88.9950343,153.920386 89.1664528,154.101086 89.5698108,154.308272 L90.6973244,152.314825 L88.8699688,153.79353 L90.595173,152.399337 L88.5498711,153.355983 C88.6000723,153.43248 88.6406529,153.540168 88.8699688,153.79353 L90.595173,152.399337 L88.5498711,153.355983 L90.0765448,152.641373 L88.4903994,153.225293 L88.5498711,153.355983 L90.0765448,152.641373 L88.4903994,153.225293 L89.2574095,152.944747 L88.4804292,153.208042 L88.4903994,153.225293 L89.2574095,152.944747 L88.4804292,153.208042 L88.4903994,153.201943 L88.4804292,153.208042 L88.4903994,153.201943 L88.4804292,153.208042 C88.4917988,153.23296 88.5379768,153.37515 88.5939502,153.567002 C88.8083982,154.315939 89.1818455,155.854413 89.6005962,157.761257 C90.2269732,160.630497 90.9616237,164.390863 91.4958195,167.936203 C91.7657161,169.710615 91.9829628,171.435364 92.1178236,172.952579 C92.2528593,174.469795 92.2976381,175.798644 92.2395656,176.708764 C92.2087804,177.169836 92.1508829,177.523219 92.1024309,177.684403 L92.0872132,177.746088 L92.0718205,177.811258 L94.481649,178.256996 L96.8626166,178.825234 C97.0261634,178.233647 97.1052259,177.634741 97.1458069,176.977636 C97.2619516,175.068701 97.0688429,172.648858 96.7354517,169.970076 C96.229942,165.965582 95.3931403,161.446695 94.6437968,157.895955 C94.2675508,156.121542 93.9145687,154.592477 93.6334775,153.47883 C93.4923196,152.920003 93.3712772,152.472523 93.2616044,152.115305 C93.2035321,151.934431 93.1533309,151.780915 93.0798659,151.59673 C93.0392852,151.500543 93.0030774,151.400697 92.8955036,151.214421 C92.8330583,151.120324 92.7658902,150.997477 92.5787293,150.793775 C92.4820003,150.694103 92.3536114,150.563589 92.1256949,150.415647 C91.9019763,150.271366 91.5607136,150.087183 91.0385871,150.017829 L90.708694,152.284156 L91.6243833,150.16211 C91.549519,150.137018 91.4223545,150.091015 91.271926,150.060347 C91.1195735,150.025496 90.9553266,150.006329 90.8533502,150.002669 C90.2192769,149.977403 89.8341101,150.137018 89.5908009,150.248365 C89.3460923,150.363721 89.2112315,150.463741 89.1090801,150.544072 C88.9063515,150.699679 88.8272891,150.797609 88.7524248,150.876545 C88.613366,151.031979 88.5477721,151.130082 88.4708087,151.235679 C88.3338489,151.435199 88.2044105,151.644824 88.0527576,151.900104 C87.4914497,152.845075 86.6413541,154.41596 85.6443286,156.386406 C84.146866,159.332491 82.3425994,163.119518 80.8598298,166.691518 C80.1215061,168.481438 79.4603207,170.213855 78.9590092,171.780732 C78.4576977,173.361376 78.1089137,174.738667 78.0221549,176.009838 C78.0046633,176.268951 78.0004652,176.526322 78.0144586,176.785783 L80.4683661,176.67252 L78.0144586,176.574416 C77.8928914,179.385977 78.5409581,182.013181 79.8439132,184.137318 C80.4954782,185.197295 81.3245837,186.134599 82.3502957,186.864542 C83.3681365,187.593962 84.6110951,188.110795 85.9687992,188.239393 L86.223303,185.965399 L85.8736444,188.227892 C86.0686766,188.254901 86.2630091,188.274069 86.4559424,188.285569 C87.7688677,188.358407 89.0433114,188.081869 90.1786962,187.578802 C91.8886826,186.827949 93.3287725,185.591105 94.4760516,184.072147 C95.6168588,182.547091 96.4613566,180.718835 96.8970746,178.698552 L94.481649,178.256996 L96.8626166,178.825234 L94.481649,178.256996 L94.481649,178.256996 Z" id="Fill-55"></path>
                    <polygon id="Fill-56" points="88 245.088927 105.332504 137 109.498321 137.576427 92.1659929 245.663089"></polygon>
                    <polygon id="Fill-57" points="41 138.82979 45.1135179 138 69.6779558 243.327027 65.5660122 244.156643"></polygon>
                    <path d="M110.85844,245.122287 C110.85844,250.157833 106.76049,254.240739 101.701896,254.240739 L52.1565436,254.240739 C47.0984751,254.240739 43,250.157833 43,245.122287 C43,240.082908 47.0984751,236 52.1565436,236 L101.701896,236 C106.76049,236 110.85844,240.082908 110.85844,245.122287" id="Fill-58"></path>
                    <path d="M33.4927275,351.922452 L33.4827572,351.922452 L33.4717374,351.922452 C26.1885526,351.922452 20.2581741,346.043874 20.2086726,338.803687 L16.0054224,269.420744 L16,269.316889 L16,269.213035 C16,261.926672 21.9492696,256 29.2632397,256 L127.024053,256 C134.340122,256 140.291316,261.926672 140.291316,269.213035 L140.291316,269.380318 L140.275923,269.547425 L133.561217,338.371541 C133.453644,345.563982 127.539183,351.383141 120.294479,351.383141 L33.4927275,351.922452 L33.4927275,351.922452 Z" id="Fill-59"></path>
                    <path d="M129.675094,337.74169 C129.675094,343.146128 125.279959,347.524916 119.854916,347.524916 L33.0326986,348.062485 C27.6057306,348.062485 23.2084977,343.683696 23.2084977,338.279258 L19,268.784795 C19,263.380531 23.397058,259 28.8222768,259 L126.582915,259 C132.010058,259 136.407291,263.380531 136.407291,268.784795 L129.675094,337.74169 L129.675094,337.74169 Z" id="Fill-60"></path>
                    <path d="M105.378293,322.441222 L47.822102,322.441222 C42.3970581,322.441222 38,318.062261 38,312.656254 L38,285.782877 C38,280.378615 42.3970581,276 47.822102,276 L105.378293,276 C110.801238,276 115.200395,280.378615 115.200395,285.782877 L115.200395,312.656254 C115.200395,318.062261 110.801238,322.441222 105.378293,322.441222 Z" id="Fill-61"></path>
                    <path d="M102.274232,298.789043 L101.647855,299.689754 L93.1901044,311.790885 L92.5890904,312.651169 L91.5360914,312.651169 L64.7337682,312.651169 L63.6751719,312.651169 L63.0837782,311.790885 L54.626377,299.689754 L54,298.789043 L54.4178763,297.777159 C58.4103517,288.184043 67.7201224,282 78.1283705,282 C88.5462389,282 97.859508,288.184043 101.851983,297.777159 L102.274232,298.789043 L102.274232,298.789043 Z" id="Fill-62"></path>
                    <polygon id="Fill-63" points="69 293 71.4542574 308.202474 78.4691198 308.202474"></polygon>
                    <path d="M78.0851698,287 C69.9016883,287 62.5513354,291.620476 59,298.875823 L65.9482192,308.81849 L73.2020182,308.81849 L70.1044168,294.948696 L77.6384323,308.81849 L90.220721,308.81849 L97.1724387,298.872163 C93.6218029,291.618734 86.263229,287 78.0851698,287" id="Fill-64"></path>
                    <path d="M65.6765413,294.32846 C66.0080086,294.727846 65.969352,295.315773 65.5876836,295.642322 C65.1983188,295.95528 64.6235423,295.949355 64.2614646,295.575061 C63.8972878,295.204252 63.907258,294.581997 64.3309065,294.240462 C64.7417861,293.886904 65.3471731,293.929073 65.6765413,294.32846" id="Fill-65"></path>
                    <path d="M69.7933269,291.490541 C70.0345372,291.947431 69.8764124,292.512183 69.4387707,292.744462 C68.9892345,292.957572 68.4377219,292.858074 68.1510333,292.419829 C67.8692424,291.987857 67.9832881,291.36386 68.4804016,291.121823 C68.9621224,290.864452 69.5505424,291.027727 69.7933269,291.490541" id="Fill-66"></path>
                    <path d="M73.8572063,289.728278 C73.9710771,290.241102 73.6628737,290.669415 73.2077402,290.8651 C72.7435111,291.03064 72.2262822,290.769436 72.0513654,290.281529 C71.8774981,289.789963 72.1591142,289.244204 72.6833398,289.06002 C73.1944465,288.848652 73.7452595,289.225037 73.8572063,289.728278" id="Fill-67"></path>
                    <path d="M78.8919175,288.996084 C78.8532608,289.510825 78.4255894,289.910212 77.9335484,289.883377 C77.4420323,289.856716 77.0238063,289.410805 77.0008922,288.892404 C76.9778032,288.373829 77.4056496,287.974442 77.9585616,288.001277 C78.5100742,288.030203 78.9267259,288.473849 78.8919175,288.996084" id="Fill-68"></path>
                    <path d="M83.8479525,290.192334 C83.6669136,290.680066 83.1383151,290.971939 82.6684886,290.843515 C82.1979625,290.713 81.9086501,290.192334 82.0261942,289.68735 C82.1398902,289.182192 82.6684886,288.888228 83.2040838,289.040002 C83.7381047,289.188117 84.027592,289.70826 83.8479525,290.192334" id="Fill-69"></path>
                    <path d="M88.7056293,292.510529 C88.3932279,292.92525 87.8240487,293.023006 87.436783,292.725557 C87.0320256,292.448844 86.8620064,291.94177 87.1284046,291.48122 C87.3809845,291.039316 88.0134836,290.839798 88.4721154,291.150664 C88.9137802,291.48488 89.017331,292.091976 88.7056293,292.510529" id="Fill-70"></path>
                    <path d="M92.5533625,295.660329 C92.1333873,295.987053 91.5914952,295.904458 91.2467341,295.556823 C90.8993495,295.20344 90.9224385,294.623353 91.2929122,294.262303 C91.6626862,293.89341 92.2778685,293.91676 92.6618109,294.312488 C93.0468028,294.707866 92.9546216,295.345455 92.5533625,295.660329" id="Fill-71"></path>
                    <path d="M60.8999369,333.92357 C60.8999369,337.749106 57.7883423,340.846791 53.9496186,340.846791 C50.1115947,340.846791 47,337.749106 47,333.92357 C47,330.099775 50.1115947,327 53.9496186,327 C57.7883423,327 60.8999369,330.099775 60.8999369,333.92357" id="Fill-72"></path>
                    <path d="M79.6912633,333.327417 C79.6912633,336.269495 77.2987516,338.651003 74.3473809,338.651003 C71.3942609,338.651003 69,336.269495 69,333.327417 C69,330.387083 71.3942609,328 74.3473809,328 C77.2987516,328 79.6912633,330.387083 79.6912633,333.327417" id="Fill-73"></path>
                    <path d="M94.4691221,334.134972 C94.4691221,333.261271 95.1829575,332.552237 96.059815,332.552237 L103.902034,332.552237 C103.221783,328.826721 99.9543369,326 96.0190594,326 C91.5912164,326 88,329.577576 88,333.989123 C88,338.400322 91.5912164,341.978246 96.0190594,341.978246 C99.8502618,341.978246 103.048615,339.301207 103.846061,335.721017 L96.059815,335.721017 C95.1829575,335.721017 94.4691221,335.010764 94.4691221,334.134972" id="Fill-74"></path>
                    <path d="M104.432912,332 L96.5906937,332 C95.7138354,332 95,332.709033 95,333.582735 C95,334.458352 95.7138354,335.16878 96.5906937,335.16878 L104.377113,335.16878 C104.498681,334.610301 104.569872,334.031958 104.569872,333.436886 C104.569872,332.944971 104.519671,332.468739 104.432912,332" id="Fill-75"></path>
                </g>
                <g id="checkmark-verification-circular-button-outline" transform="translate(82.000000, 76.000000)">
                    <g id="Capa_1">
                        <g id="tick">
                            <path d="M72,0 C32.2334118,0 0,32.2334118 0,72 C0,111.766588 32.2334118,144 72,144 C111.761882,144 144,111.766588 144,72 C144,32.2334118 111.766588,0 72,0 L72,0 L72,0 Z" id="Shape" stroke="#FFFFFF" stroke-width="15" fill="#45A900"></path>
                            <path d="M102.752941,46.2825882 L60.7501176,88.2854118 L41.2515294,68.7825882 C39.5369412,67.068 36.7515294,67.068 35.0369412,68.7825882 C33.3223529,70.4971765 33.3223529,73.2825882 35.0369412,74.9971765 L57.1094118,97.0696471 C57.2578824,97.2811765 57.348,97.5242353 57.5369412,97.7131765 C58.4235294,98.5997647 59.5889412,99.0091765 60.7498824,98.9776471 C61.9108235,99.0047059 63.0809412,98.5997647 63.9672941,97.7131765 C64.1562353,97.524 64.2463529,97.2811765 64.3948235,97.0696471 L108.967529,52.4971765 C110.681882,50.7825882 110.681882,47.9971765 108.967529,46.2825882 C107.248471,44.568 104.467529,44.568 102.752941,46.2825882 L102.752941,46.2825882 L102.752941,46.2825882 Z" id="Path" fill="#FFFFFF"></path>
                        </g>
                    </g>
                </g>
            </g>
        </g>
    </g>
</svg>