<?xml version="1.0" encoding="UTF-8" standalone="no"?>
<svg width="390px" height="280px" viewBox="0 0 390 280" version="1.1" xmlns="http://www.w3.org/2000/svg" xmlns:xlink="http://www.w3.org/1999/xlink">
    <!-- Generator: Sketch 3.8.3 (29802) - http://www.bohemiancoding.com/sketch -->
    <title>Group 3</title>
    <desc>Created with Sketch.</desc>
    <defs></defs>
    <g id="Page-1" stroke="none" stroke-width="1" fill="none" fill-rule="evenodd">
        <g id="Group-3">
            <path d="M234.248597,10.8097137 L230.763437,12.8605859 C227.565109,7.42081278 221.672659,4.04128408 215.389559,4.04128408 C210.016199,4.04128408 204.983141,6.43764378 201.576626,10.6141825 C201.353555,10.8883672 201.137835,11.1678813 200.933139,11.4530922 C200.750493,11.7072459 200.572991,11.9667291 200.397695,12.233563 L197,10.0476199 C197.210208,9.72032568 197.431442,9.40056598 197.656166,9.08429798 C197.91029,8.73329748 198.171581,8.39148538 198.443896,8.06051578 C202.621972,2.93719448 208.799049,-8.8817842e-16 215.389559,-8.8817842e-16 C223.100018,-8.8817842e-16 230.324645,4.14180628 234.248597,10.8097137" id="Fill-15-Copy" fill="#F64444"></path>
            <path d="M230.433401,16.0384314 L226.710471,17.6159123 C224.760531,13.0133949 220.281107,10.0412841 215.29711,10.0412841 C210.848924,10.0412841 206.720277,12.4523453 204.512538,16.3344847 L201,14.336722 C203.920316,9.1952074 209.397678,6 215.29711,6 C221.907466,6 227.849161,9.9389243 230.433401,16.0384314" id="Fill-17-Copy" fill="#F64444"></path>
            <path d="M206,22.976425 C206,27.9352723 210.01895,31.9581794 214.977222,31.9581794 C219.93384,31.9581794 223.954443,27.9352723 223.954443,22.976425 C223.954443,18.0210694 219.93384,14 214.977222,14 C210.01895,14 206,18.0210694 206,22.976425" id="Fill-19-Copy" fill="#F64444"></path>
            <polygon id="Fill-21-Copy" fill="#F64444" points="213 59.3820521 218.387692 59.3820521 218.387692 30 213 30"></polygon>
            <path d="M215.810153,237.644051 C162.345559,237.644051 119,194.29567 119,140.822853 C119,87.3483816 162.345559,44 215.810153,44 C269.276768,44 312.62196,87.3483816 312.62196,140.822853 C312.62196,194.29567 269.276768,237.644051 215.810153,237.644051 Z" id="Fill-23-Copy" fill="#F64444"></path>
            <path d="M22.0518251,230.748885 C22.8248554,226.848369 24.0001115,222.872874 25.893457,219.118455 C27.7721027,215.37157 30.4772495,211.81452 34.0171662,209.127804 C37.5352168,206.415176 41.762537,204.702624 45.9825073,203.8435 C50.2208524,202.973533 54.4680175,202.863823 58.5911522,203.123306 C66.8501004,203.680864 74.6904693,205.599973 82.2934349,207.830021 C89.8962166,210.087266 97.2759276,212.746601 104.560825,215.455553 C111.840026,218.166343 119.024412,220.953581 126.170579,223.51809 C133.301678,226.067714 140.438474,228.445697 147.365245,229.982932 C150.817513,230.739697 154.222191,231.273548 157.323867,231.370211 C160.423339,231.481759 163.188387,231.075995 164.94484,230.253625 C166.704784,229.407181 167.547272,228.469587 168.4741,226.678381 C169.363994,224.890668 170.007298,222.214794 170.265097,219.204275 C170.740271,213.656997 175.623574,209.54441 181.170209,210.019639 C186.720886,210.496706 190.831159,215.380759 190.355801,220.928037 C190.328423,221.244305 190.286344,221.55506 190.22975,221.863794 L190.196859,222.042969 C189.357863,226.638136 188.010985,231.575115 184.973621,236.455308 C183.460268,238.873537 181.45557,241.224137 179.042951,243.141409 C176.636028,245.068053 173.859955,246.506604 171.120263,247.398439 C165.584469,249.184131 160.458067,249.09096 155.901837,248.579344 C151.319882,248.032813 147.14934,246.966947 143.15244,245.744326 C135.18602,243.25847 127.893957,240.094504 120.744299,236.861072 C113.607504,233.611285 106.658867,230.23341 99.7230916,226.976273 C92.7893386,223.72281 85.8754296,220.569686 78.883061,217.850075 C71.8996956,215.148474 64.8049785,212.81625 57.7082402,211.74873 C50.6629516,210.694258 43.4842614,211.057755 37.9227426,214.644025 C35.1448313,216.407849 32.8035067,218.937625 30.9722682,221.935096 C29.1300048,224.936427 27.7831276,228.325327 26.7635066,231.913251 C26.3941719,233.200008 25.0528072,233.949422 23.7625245,233.582066 C22.5415151,233.232903 21.8068882,232.010098 22.0444752,230.785455 L22.0518251,230.748885 L22.0518251,230.748885 Z" id="Fill-24-Copy" fill="#F64444"></path>
            <path d="M0.279013438,275.5729 C4.82605614,266.547225 11.3524388,258.022323 20.0828858,252.0215 C24.4143915,249.01484 29.2153748,246.656889 34.2177466,244.984399 C39.2197509,243.302904 44.4045851,242.286473 49.585928,241.75648 C59.9723174,240.712851 70.2853911,241.520887 80.3153083,242.981123 C90.3579038,244.463411 100.173938,246.6477 109.852895,248.919831 C119.528178,251.188103 129.081083,253.587955 138.5355,255.485195 C147.949492,257.351562 157.405378,258.800956 166.051852,258.373323 C170.350283,258.150227 174.376582,257.404488 177.733853,255.989644 C181.100311,254.573145 183.763196,252.542488 185.908828,249.81718 C190.229309,244.375937 192.382291,235.960561 193.188029,227.157615 C193.692419,221.617687 198.592259,217.536157 204.131728,218.042444 C209.671197,218.54873 213.75409,223.450976 213.247863,228.991087 C213.227651,229.212162 213.200456,229.433421 213.165544,229.649167 L213.151028,229.742339 C212.28649,235.117976 211.036449,240.572083 208.989673,246.026374 C206.939039,251.451262 204.022214,256.965829 199.690708,261.73815 C195.404956,266.52701 189.631575,270.222807 183.715605,272.187859 C177.781444,274.196648 171.869149,274.748692 166.30763,274.684557 C155.150048,274.461644 145.043508,272.078148 135.245849,269.506472 C125.462522,266.874519 116.011965,263.836435 106.605506,260.983407 C97.2078678,258.126336 87.8578208,255.410401 78.4491575,253.397937 C69.0518868,251.398152 59.561088,250.067658 50.2036908,250.407633 C40.8756933,250.72923 31.6735636,252.900655 23.7619002,257.695212 C15.809996,262.432801 9.38596134,269.64724 4.51735854,277.929014 C3.83748874,279.08603 2.35151384,279.471579 1.19647014,278.79163 C0.089017338,278.142923 -0.311187062,276.748293 0.257147338,275.616821 L0.279013438,275.5729 L0.279013438,275.5729 Z" id="Fill-25-Copy" fill="#F64444"></path>
            <path d="M384.860097,278.597294 C383.21518,275.104379 381.151683,271.962281 378.589493,269.317465 C376.039981,266.676323 373.020808,264.592556 369.698266,263.106409 C363.029478,260.118127 355.355218,259.461884 347.704845,259.776131 C340.01809,260.110592 332.256182,261.397533 324.49262,262.963988 C316.721524,264.539631 308.932237,266.433196 301.022412,268.248108 C293.106889,270.059528 285.076525,271.834377 276.691525,273.006094 C272.493604,273.581662 268.204177,274.002127 263.763157,274.084456 C259.325629,274.155759 254.71997,273.90528 249.970069,272.90741 C245.242218,271.914869 240.301953,270.092606 235.861117,267.032653 C231.409072,264.007801 227.687979,259.77999 225.122114,255.265315 C222.52152,250.737592 220.922172,246.000003 219.858635,241.382968 C218.803918,236.751415 218.273987,232.199986 218.023538,227.732723 L218.016188,227.643411 C217.703632,222.084738 221.954839,217.328957 227.510846,217.016364 C233.064647,216.702118 237.823919,220.951613 238.136476,226.510102 C238.152829,226.778773 238.15632,227.067476 238.149154,227.332656 C237.966508,234.49031 238.748726,241.457946 241.183027,246.6579 C242.394666,249.260817 243.973617,251.375641 246.053651,253.095543 C248.126152,254.815446 250.776174,256.146308 253.864804,257.067546 C260.074956,258.917374 267.646684,259.114559 275.258653,258.674247 C282.920051,258.222724 290.780632,257.140503 298.706812,255.972645 C306.638687,254.800928 314.661702,253.508658 322.809115,252.517955 C330.954874,251.536439 339.248551,250.807057 347.699332,251.105131 C351.92114,251.266114 356.184843,251.695584 360.417675,252.605797 C364.639483,253.519684 368.846775,254.930853 372.733976,257.065708 C376.623015,259.184024 380.14125,262.060942 382.93184,265.464361 C385.739151,268.849586 387.829842,272.742936 389.312142,276.672672 L389.324821,276.705566 C389.798341,277.961266 389.165878,279.361225 387.912162,279.834617 C386.722389,280.284485 385.395541,279.726927 384.860097,278.597294" id="Fill-26-Copy" fill="#F64444"></path>
            <path d="M353.641112,237.370639 C350.546969,232.943806 346.992353,228.931557 342.860031,226.080183 C338.746083,223.206941 334.124255,221.759385 329.454652,221.94389 C324.774208,222.099176 320.049847,223.718556 315.488105,226.003368 C310.917175,228.293692 306.48718,231.230887 302.066189,234.369309 C297.630497,237.513245 293.226044,240.890936 288.437739,244.203021 C286.036328,245.855296 283.536061,247.496729 280.7655,249.03378 C277.982076,250.549147 274.948203,252.024268 271.144791,252.961862 C269.244096,253.415223 267.12235,253.718627 264.795909,253.627109 C262.483801,253.546802 259.967364,253.016809 257.671793,251.995049 C255.36538,250.985968 253.347821,249.540066 251.717603,247.997502 C250.085364,246.447586 248.798757,244.806154 247.72052,243.190449 C245.5804,239.945991 244.202469,236.778349 243.050917,233.694873 C241.916086,230.607723 241.058898,227.588016 240.320413,224.603408 L240.296709,224.508216 C238.960857,219.099867 242.261349,213.632896 247.671275,212.296705 C253.075505,210.960514 258.543496,214.263411 259.877695,219.670105 C259.97453,220.050325 260.04215,220.443225 260.091578,220.821607 C260.407626,223.300112 260.811689,225.712827 261.343457,227.937178 C261.871734,230.152525 262.547929,232.205235 263.293397,233.727768 C264.050074,235.292385 264.749972,236.083882 265.124636,236.420181 C265.336682,236.606708 265.568756,236.765485 266.029414,236.882546 C266.484559,236.99777 267.158916,237.041691 267.98505,236.959362 C269.647975,236.796542 271.811982,236.142321 274.023397,235.232109 C276.254839,234.320059 278.575952,233.166719 280.922421,231.918186 C285.626753,229.408624 290.433432,226.531706 295.439295,223.779017 C300.454162,221.026327 305.677583,218.337406 311.354129,216.261173 C316.999437,214.212139 323.262692,212.738856 329.761512,213.27822 C332.985565,213.546892 336.202084,214.351253 339.139122,215.659878 C342.081488,216.964828 344.735185,218.739678 347.041598,220.76666 C351.67096,224.837348 355.030068,229.785352 357.760572,234.806314 L357.766084,234.820832 C358.407551,235.997878 357.97078,237.471161 356.791849,238.112702 C355.693584,238.708484 354.34101,238.374023 353.641112,237.370639" id="Fill-27-Copy" fill="#F64444"></path>
            <path d="M153.905801,231 L151,247.624194 C151.997755,247.835897 153.010394,248.024261 154.043061,248.194248 L156.192185,231.233939 C155.441204,231.179176 154.680852,231.098869 153.905801,231" id="Fill-28-Copy" fill="#F64444"></path>
            <path d="M126.656069,223.817041 C125.912071,223.550391 125.164582,223.270509 124.419114,223 L119,236.120253 C119.747673,236.463902 120.478625,236.818394 121.229973,237.160023 C121.313946,237.198431 121.399757,237.235185 121.483914,237.273593 L126.919197,223.908558 C126.829528,223.879155 126.745555,223.848098 126.656069,223.817041" id="Fill-29-Copy" fill="#F64444"></path>
            <path d="M109.029567,217 L104,228.848014 C104.813088,229.231909 105.62838,229.617458 106.441468,230.003191 L111.568054,217.954134 C110.723545,217.636212 109.879404,217.319944 109.029567,217" id="Fill-30-Copy" fill="#F64444"></path>
            <path d="M165.071295,230.586777 C165.049428,230.595782 165.023704,230.603317 165,230.614159 L171.033018,247.793706 C171.105966,247.769999 171.175423,247.755298 171.246717,247.731591 C172.451189,247.338691 173.659336,246.823217 174.845434,246.225413 L166.109474,230 C165.796918,230.20472 165.460474,230.398413 165.071295,230.586777" id="Fill-31-Copy" fill="#F64444"></path>
            <path d="M139.078994,228 L134,242.666309 C134.877399,243.009959 135.752777,243.355446 136.644509,243.686232 L141.542512,228.710822 C140.721891,228.48258 139.901269,228.246619 139.078994,228" id="Fill-32-Copy" fill="#F64444"></path>
            <path d="M94.214274,212 L90,222.732898 C90.809597,223.08739 91.615518,223.460443 92.423277,223.824123 L96.796677,212.915725 C95.934161,212.610483 95.078811,212.299912 94.214274,212" id="Fill-33-Copy" fill="#F64444"></path>
            <path d="M166,259.197553 L166.257616,275.510808 C167.272092,275.521834 168.299063,275.503457 169.333383,275.468908 L168.306413,259 C167.542386,259.080491 166.782034,259.155469 166,259.197553" id="Fill-39-Copy" fill="#F64444"></path>
            <path d="M151.437977,258 L149,273.077769 C149.93032,273.258783 150.865967,273.428586 151.809149,273.589385 L153.956435,258.290724 C153.117623,258.202882 152.27881,258.104197 151.437977,258" id="Fill-40-Copy" fill="#F64444"></path>
            <path d="M138.928832,255.541018 C138.080833,255.371031 137.22732,255.177338 136.375646,255 L133,268.823724 C133.879054,269.068689 134.750941,269.324681 135.639181,269.562111 C135.646531,269.56597 135.655719,269.567624 135.662885,269.569462 L138.948861,255.546531 C138.941511,255.544694 138.936182,255.542856 138.928832,255.541018" id="Fill-41-Copy" fill="#F64444"></path>
            <path d="M211.580985,239.368578 L192.471682,235 C192.323581,235.760624 192.171805,236.517204 192,237.25743 L210.75871,242.340689 C211.05822,241.349985 211.32337,240.359282 211.580985,239.368578" id="Fill-42-Copy" fill="#F64444"></path>
            <path d="M120.463294,252 L117,264.723309 C117.864354,264.990143 118.729075,265.253302 119.595082,265.518482 L123.069584,252.617834 C122.203209,252.413114 121.333343,252.206373 120.463294,252" id="Fill-43-Copy" fill="#F64444"></path>
            <path d="M179,255.877318 L185.727587,271.910875 C186.792962,271.496106 187.853007,271.029882 188.894678,270.509078 L180.707025,255 C180.167722,255.319944 179.586709,255.599642 179,255.877318" id="Fill-44-Copy" fill="#F64444"></path>
            <path d="M187,248.694174 L201.904216,259.4947 C202.600439,258.584487 203.26028,257.659757 203.872347,256.71665 L188.018151,247 C187.694569,247.586593 187.358126,248.15334 187,248.694174" id="Fill-45-Copy" fill="#F64444"></path>
            <path d="M88.351982,245 L86,255.849776 C86.851675,256.063684 87.701512,256.295785 88.551349,256.520536 L91.04592,245.524479 C90.146655,245.351001 89.253085,245.166128 88.351982,245" id="Fill-51-Copy" fill="#F64444"></path>
            <path d="M105.074114,248 L102,259.74933 C102.857188,260.0033 103.712354,260.260945 104.571378,260.518774 L107.722299,248.610484 C106.841408,248.405764 105.956843,248.202882 105.074114,248" id="Fill-52-Copy" fill="#F64444"></path>
            <path d="M377.728259,260 L374,265.119646 C374.672336,265.565655 375.322989,266.046398 375.958943,266.550846 L379.972564,261.930135 C379.250432,261.257537 378.506801,260.610484 377.728259,260" id="Fill-54-Copy" fill="#F64444"></path>
            <path d="M251.259804,256 L246,271.702588 C247.065558,272.022531 248.123766,272.291387 249.176462,272.525326 L253.250168,256.690792 C252.564786,256.477067 251.895941,256.25397 251.259804,256" id="Fill-55-Copy" fill="#F64444"></path>
            <path d="M295,256.378382 L297.3009,268.895319 C298.185649,268.694091 299.077381,268.496722 299.961947,268.295677 L297.642672,256 C296.759944,256.129742 295.882728,256.252316 295,256.378382" id="Fill-56-Copy" fill="#F64444"></path>
            <path d="M280,258.25397 L281.836751,272.134479 C282.754024,271.980848 283.662477,271.816374 284.572584,271.652083 L282.604269,258 C281.734219,258.08968 280.866191,258.177155 280,258.25397" id="Fill-57-Copy" fill="#F64444"></path>
            <path d="M388.625463,276.604571 C388.29637,275.732767 387.927402,274.862616 387.536385,274 L383,276.251733 C383.407738,276.988467 383.798755,277.737696 384.164231,278.510816 L388.634651,276.624602 L388.625463,276.604571 L388.625463,276.604571 Z" id="Fill-58-Copy" fill="#F64444"></path>
            <path d="M242.059708,250 L228,260.988705 C228.763843,261.90829 229.568111,262.798287 230.423277,263.639219 L243.14897,251.41466 C242.763098,250.963138 242.397622,250.493422 242.059708,250" id="Fill-59-Copy" fill="#F64444"></path>
            <path d="M344,251 L344.255778,259.888583 C345.116456,259.828307 345.973827,259.777035 346.828993,259.738627 L346.814477,251.058439 C345.874971,251.025728 344.937485,251.009189 344,251" id="Fill-60-Copy" fill="#F64444"></path>
            <path d="M311,254.387387 L313.11072,265.639435 C313.978932,265.441883 314.845307,265.248189 315.711498,265.054496 L313.69743,254 C312.800185,254.127721 311.897428,254.255808 311,254.387387" id="Fill-61-Copy" fill="#F64444"></path>
            <path d="M328,252.261505 L329.407146,262.334485 C330.273337,262.177362 331.137874,262.025568 332.006087,261.879287 L330.746857,252 C329.829401,252.082146 328.913781,252.169988 328,252.261505" id="Fill-62-Copy" fill="#F64444"></path>
            <path d="M238.701932,238 L220,241.964652 C220.255962,242.991742 220.539118,244.026367 220.853512,245.05897 L239.100299,240.140368 C238.948523,239.440389 238.816959,238.727545 238.701932,238" id="Fill-63-Copy" fill="#F64444"></path>
            <path d="M361.515191,253 L360,260.461058 C360.820621,260.592638 361.632239,260.744432 362.437976,260.918094 L364.320481,253.762094 C363.390162,253.478721 362.45286,253.226588 361.515191,253" id="Fill-64-Copy" fill="#F64444"></path>
            <path d="M264.131564,259 L264,274.278815 C264.992427,274.247574 265.97934,274.203836 266.958904,274.14356 L266.564028,259.082329 C265.745245,259.067812 264.935648,259.038592 264.131564,259" id="Fill-65-Copy" fill="#F64444"></path>
            <path d="M357.667358,234.429255 L357.661845,234.414737 C357.223237,233.606701 356.758905,232.800686 356.282077,232 L352,234.869751 C352.520743,235.556867 353.036158,236.255193 353.535219,236.968036 L357.667358,234.429255 L357.667358,234.429255 Z" id="Fill-66-Copy" fill="#F64444"></path>
            <path d="M295.51909,223.0383 C295.345448,223.133125 295.173643,223.231994 295,223.327186 L301.690838,233.953865 C301.842614,233.848014 301.994207,233.734628 302.145983,233.628592 C302.708805,233.228342 303.273465,232.842609 303.840145,232.451546 L297.450839,222 C296.807535,222.347325 296.156881,222.688953 295.51909,223.0383" id="Fill-67-Copy" fill="#F64444"></path>
            <path d="M346.798922,220.518858 C346.203209,219.994195 345.578096,219.487909 344.934793,219 L341,224.794081 C341.546469,225.115679 342.087424,225.461166 342.617355,225.832381 C342.749103,225.921877 342.874971,226.022399 343.003044,226.117408 L347.232201,220.920947 C347.085754,220.78753 346.948861,220.650437 346.798922,220.518858" id="Fill-68-Copy" fill="#F64444"></path>
            <path d="M311.096612,215.570239 C310.723786,215.705309 310.367314,215.864454 310,216.00706 L314.346022,225.787662 C314.642041,225.63403 314.934569,225.460368 315.230772,225.312433 C315.669196,225.091358 316.111479,224.884616 316.551924,224.676405 L312.748696,215 C312.195061,215.184505 311.641243,215.372686 311.096612,215.570239" id="Fill-69-Copy" fill="#F64444"></path>
            <path d="M281.045754,231.220968 C281.0294,231.228319 281.0147,231.235486 281,231.244674 L288.496943,243.54954 C288.52083,243.533 288.539205,243.518483 288.561071,243.505802 C289.319402,242.979302 290.054029,242.452985 290.796006,241.926484 L283.273706,230 C282.529891,230.40944 281.782402,230.82623 281.045754,231.220968" id="Fill-70-Copy" fill="#F64444"></path>
            <path d="M329.885995,213.085821 C329.253717,213.032895 328.628604,213.016356 328,213 L328.212046,221.848521 C328.668845,221.808276 329.12399,221.766192 329.579135,221.751491 C329.878646,221.740465 330.174848,221.753329 330.472705,221.75535 L331.123359,213.241106 C330.710475,213.190018 330.297409,213.120553 329.885995,213.085821" id="Fill-71-Copy" fill="#F64444"></path>
            <path d="M268,236.352839 L271.527422,252.212733 C272.720685,251.891136 273.835672,251.520104 274.895534,251.110665 L269.813047,236 C269.167906,236.160983 268.559331,236.283374 268,236.352839" id="Fill-72-Copy" fill="#F64444"></path>
            <path d="M264.033943,234 L249,244.107896 C249.762373,245.151526 250.641426,246.19148 251.644694,247.202214 L264.711975,235.129634 C264.501767,234.828067 264.273551,234.444172 264.033943,234" id="Fill-73-Copy" fill="#F64444"></path>
            <path d="M186.965117,220.481381 C186.965117,224.062137 184.064645,226.964783 180.482466,226.964783 C176.902309,226.964783 174,224.062137 174,220.481381 C174,216.900624 176.902309,214 180.482466,214 C184.064645,214 186.965117,216.900624 186.965117,220.481381" id="Fill-74-Copy" fill="#F64444"></path>
            <path d="M256.961259,221.481381 C256.961259,225.061954 254.059133,227.9646 250.480813,227.9646 C246.900472,227.9646 244,225.061954 244,221.481381 C244,217.902278 246.900472,215 250.480813,215 C254.059133,215 256.961259,217.902278 256.961259,221.481381" id="Fill-75-Copy" fill="#F64444"></path>
            <path d="M233.963279,227.483403 C233.963279,231.064159 231.062808,233.966805 227.48265,233.966805 C223.904146,233.966805 221,231.064159 221,227.483403 C221,223.902646 223.904146,221 227.48265,221 C231.062808,221 233.963279,223.902646 233.963279,227.483403" id="Fill-76-Copy" fill="#F64444"></path>
            <path d="M209.963096,228.48138 C209.963096,232.0603 207.059133,234.964783 203.480813,234.964783 C199.900472,234.964783 197,232.0603 197,228.48138 C197,224.900624 199.900472,222 203.480813,222 C207.059133,222 209.963096,224.900624 209.963096,228.48138" id="Fill-77-Copy" fill="#F64444"></path>
            <path d="M244.357268,106.17917 C244.357268,122.295056 231.289986,135.35834 215.181482,135.35834 C199.067465,135.35834 186,122.295056 186,106.17917 C186,90.0634678 199.067465,77 215.181482,77 C231.289986,77 244.357268,90.0634678 244.357268,106.17917" id="Fill-78-Copy" fill="#F64444"></path>
            <path d="M215.713939,128.419684 C203.737573,128.419684 194,118.679328 194,106.708923 C194,94.7366808 203.737573,85 215.713939,85 C227.680934,85 237.422182,94.7366808 237.422182,106.708923 C237.422182,118.679328 227.680934,128.419684 215.713939,128.419684" id="Fill-79-Copy" fill="#F64444"></path>
            <path d="M215.238863,120.484704 C207.389123,120.484704 201,114.096494 201,106.242352 C201,98.390047 207.389123,92 215.238863,92 C223.082907,92 229.473867,98.390047 229.473867,106.242352 C229.473867,114.096494 223.082907,120.484704 215.238863,120.484704" id="Fill-80-Copy" fill="#F64444"></path>
            <path d="M236.910303,92.4551456 C236.910303,97.677335 232.672142,101.910475 227.452579,101.910475 C222.231179,101.910475 218,97.677335 218,92.4551456 C218,87.2313021 222.231179,83 227.452579,83 C232.672142,83 236.910303,87.2313021 236.910303,92.4551456" id="Fill-81-Copy" fill="#F64444"></path>
            <path d="M216.365683,176.623015 C202.872656,176.623015 186.488161,172.473858 168.694499,159.129038 C165.719058,156.893661 165.114341,152.671179 167.349459,149.695577 C169.580902,146.719791 173.804363,146.115004 176.779804,148.346706 C195.09072,162.082588 213.483587,166.317749 231.437846,160.927594 C244.600309,156.979481 252.784471,149.050545 252.864953,148.971891 C255.492926,146.34343 259.762141,146.34343 262.390297,148.971891 C265.022128,151.603844 265.022128,155.8719 262.390297,158.503853 C261.970064,158.922481 251.903581,168.856714 235.308877,173.835593 C229.972267,175.43678 223.582961,176.623015 216.365683,176.623015" id="Fill-82-Copy" fill="#F64444"></path>
            <path d="M176.736998,160.484441 C174.827115,159.239583 172.895183,157.888875 171,156.466863 L175.850411,150 C177.605027,151.314138 179.38702,152.562487 181.146965,153.70866 L176.736998,160.484441 L176.736998,160.484441 Z M255.720597,160.586617 L250.97235,154.039446 C253.858122,151.948512 255.446444,150.382057 255.462798,150.367356 L261.174072,156.090318 C261.091753,156.172464 259.167354,158.086243 255.720597,160.586617 L255.720597,160.586617 L255.720597,160.586617 Z M186.531166,166.059285 C184.465832,165.052042 182.376794,163.92443 180.320831,162.710629 L184.429266,155.748506 C186.302583,156.856271 188.203278,157.87987 190.074758,158.790082 L186.531166,166.059285 L186.531166,166.059285 Z M245.924592,166.506948 L242.320547,159.265311 C244.20103,158.331209 246.056156,157.287579 247.837966,156.163459 L252.154772,162.999332 C250.144562,164.269733 248.048358,165.450639 245.924592,166.506948 L245.924592,166.506948 L245.924592,166.506948 Z M197.074477,170.297938 C194.855712,169.595937 192.611591,168.76254 190.399993,167.824762 L193.55808,160.382081 C195.535766,161.219153 197.538809,161.963053 199.514474,162.588239 L197.074477,170.297938 L197.074477,170.297938 Z M235.27875,170.731083 L232.948634,162.990327 C234.938815,162.390686 236.932671,161.670492 238.87912,160.849959 L242.022507,168.298337 C239.811276,169.232256 237.544921,170.049297 235.27875,170.731083 L235.27875,170.731083 L235.27875,170.731083 Z M208.233713,172.836719 C205.896247,172.509609 203.529749,172.049081 201.197611,171.465796 L203.164273,163.62268 C205.216377,164.138154 207.296411,164.543918 209.345024,164.827291 L208.233713,172.836719 L208.233713,172.836719 Z M224.024332,173.050627 L223.116063,165.015655 C225.179376,164.78337 227.259226,164.428878 229.300673,163.955487 L231.113537,171.837011 C228.774233,172.376192 226.389176,172.78361 224.024332,173.050627 L224.024332,173.050627 L224.024332,173.050627 Z M216.993559,173.445549 C215.513281,173.445549 214.010952,173.392256 212.52314,173.286404 L213.095333,165.222029 C215.196866,165.370148 217.329819,165.397529 219.369429,165.309871 L219.714876,173.386926 C218.819286,173.427172 217.911016,173.445549 216.993559,173.445549 L216.993559,173.445549 L216.993559,173.445549 Z" id="Fill-83-Copy" fill="#F64444"></path>
            <g id="checkmark-verification-circular-button-outline-copy" transform="translate(237.000000, 18.000000)" stroke-width="15" stroke="#FFFFFF" fill="#F64444">
                <g id="Capa_1">
                    <g id="tick">
                        <path d="M72,0 C32.2334118,0 0,32.2334118 0,72 C0,111.766588 32.2334118,144 72,144 C111.761882,144 144,111.766588 144,72 C144,32.2334118 111.766588,0 72,0 L72,0 Z" id="Shape"></path>
                    </g>
                </g>
            </g>
            <g id="Group" transform="translate(283.000000, 66.000000)" stroke="#FFFFFF" stroke-width="10" stroke-linecap="round">
                <path d="M51.4090909,0.590909091 L0.762976278,51.2370234" id="Line"></path>
                <path d="M51.4090909,0.590909091 L0.762976278,51.2370234" id="Line-Copy" transform="translate(26.000000, 26.000000) scale(-1, 1) translate(-26.000000, -26.000000) "></path>
            </g>
        </g>
    </g>
</svg>