<?xml version="1.0" encoding="UTF-8"?>
<svg width="123px" height="416px" viewBox="0 0 123 416" version="1.1" xmlns="http://www.w3.org/2000/svg" xmlns:xlink="http://www.w3.org/1999/xlink">
    <!-- Generator: Sketch 40.3 (33839) - http://www.bohemiancoding.com/sketch -->
    <title>robot-energy</title>
    <desc>Created with Sketch.</desc>
    <defs></defs>
    <g id="Page-1" stroke="none" stroke-width="1" fill="none" fill-rule="evenodd">
        <g id="robot-energy" transform="translate(-7.000000, 0.000000)">
            <g id="Page-1">
                <g id="robot-energy">
                    <g id="Page-1">
                        <g id="Start-Screen-1">
                            <g id="Group-8">
                                <g id="Page-1" transform="translate(0.277218, 0.000000)">
                                    <polygon id="Fill-10" fill="#EFC92C" points="34.7026952 370.127998 45.6442325 370.127998 45.6442325 322.777049 34.7026952 322.777049"></polygon>
                                    <polygon id="Fill-12" fill="#277A7C" points="28.2197497 406.251585 50.0997755 406.251585 50.0997755 355.516293 28.2197497 355.516293"></polygon>
                                    <polygon id="Fill-13" fill="#7ACCCA" points="28.2197497 393.696751 50.0997755 393.696751 50.0997755 387.705647 28.2197497 387.705647"></polygon>
                                    <polygon id="Fill-14" fill="#7ACCCA" points="28.2197497 383.191493 50.0997755 383.191493 50.0997755 377.203782 28.2197497 377.203782"></polygon>
                                    <polygon id="Fill-15" fill="#EF462F" points="56.7655091 415.840643 21.9514345 415.840643 25.2853852 397.152355 53.4315583 397.152355"></polygon>
                                    <polygon id="Fill-16" fill="#EFC92C" points="86.650099 370.127998 97.588757 370.127998 97.588757 322.777049 86.650099 322.777049"></polygon>
                                    <polygon id="Fill-17" fill="#277A7C" points="80.1664763 406.251585 102.0443 406.251585 102.0443 355.516293 80.1664763 355.516293"></polygon>
                                    <polygon id="Fill-18" fill="#7ACCCA" points="80.1664763 393.696751 102.0443 393.696751 102.0443 387.705647 80.1664763 387.705647"></polygon>
                                    <polygon id="Fill-19" fill="#7ACCCA" points="80.1664763 383.191493 102.0443 383.191493 102.0443 377.203782 80.1664763 377.203782"></polygon>
                                    <polygon id="Fill-20" fill="#EF462F" points="108.712913 415.840643 73.8981611 415.840643 77.2327894 397.152355 105.378454 397.152355"></polygon>
                                    <path d="M101.686397,38.8556008 C102.437061,39.3948019 104.805582,42.1430646 105.152967,42.7452121 C105.328269,43.0443346 105.431079,43.3365008 105.460888,43.6071194 C105.490698,43.8784166 105.468341,44.1252818 105.361974,44.435772 C105.261366,44.7164009 105.128408,44.9125357 104.923297,45.1017142 C104.624352,45.3816644 104.138758,45.5973109 103.583043,45.7038616 C103.024618,45.8122787 102.405219,45.8231374 101.828501,45.7742733 L101.526,47.2797268 C102.367279,47.3435215 103.312384,47.3190895 104.197022,47.0145376 C104.639257,46.8592925 105.072345,46.6307513 105.466308,46.2720757 C105.860441,45.9167935 106.20952,45.4122044 106.418188,44.8059849 C106.62601,44.2153748 106.687492,43.6206927 106.621945,43.0931987 C106.5232,42.3003457 106.179033,41.6685066 105.737137,41.1150535 C105.288974,40.5610914 103.007681,37.9395698 102.406574,37.5053925 L101.686397,38.8556008 L101.686397,38.8556008 L101.686397,38.8556008 Z" id="Fill-21" fill="#4D2D12"></path>
                                    <path d="M101.266604,47.1061577 C102.018623,47.6445104 102.667832,48.2468275 103.019283,48.844903 C103.196448,49.1445345 103.297394,49.4361918 103.330591,49.703417 C103.364636,49.9745445 103.338044,50.2214097 103.231847,50.5278279 L104.288569,50.8982105 C104.499608,50.3094668 104.559228,49.7086766 104.490293,49.1852546 C104.389346,48.3925713 104.04213,47.7605625 103.598032,47.2125388 C103.151902,46.6646847 102.588057,46.1901267 101.98695,45.7559493 L101.266604,47.1061577 L101.266604,47.1061577 L101.266604,47.1061577 Z" id="Fill-22" fill="#4D2D12"></path>
                                    <path d="M107.504652,38.3022835 C107.403706,38.5864753 107.267868,38.7851552 107.06462,38.977727 C106.758053,39.2637852 106.269072,39.4875757 105.710647,39.6002344 C105.152899,39.7140809 104.531468,39.7269755 103.956105,39.6821835 L103.655467,41.185601 C104.499625,41.2493957 105.446085,41.2154623 106.338176,40.8980157 C106.778886,40.7373413 107.213499,40.5054068 107.607462,40.1440165 C108.001595,39.7873769 108.350843,39.2821092 108.559342,38.6724964 L107.504652,38.3022835 L107.504652,38.3022835 L107.504652,38.3022835 Z" id="Fill-23" fill="#4D2D12"></path>
                                    <path d="M94.915567,46.3839879 L95.169458,45.6510274 C94.706391,45.4901833 94.36324,45.157297 94.193188,44.8026934 C94.016024,44.4399458 94.010604,44.1163912 94.101896,43.8559527 C94.193188,43.5983985 94.397114,43.3474613 94.759235,43.1738922 C95.115258,43.0035467 95.591198,42.9589244 96.056298,43.1229921 C96.239053,43.1791519 96.704153,43.4728451 97.217185,43.8600247 C97.997659,44.4399458 98.949539,45.2433181 99.705454,45.8997589 C100.461707,46.5561997 101.016236,47.0626551 101.018099,47.0648608 L101.41545,46.4219933 L101.503524,45.6678244 C101.499459,45.6700301 100.166658,45.7560511 98.694293,45.7974498 C97.956501,45.8157738 97.185343,45.8232392 96.539691,45.8028792 C95.895902,45.7825191 95.352212,45.7221178 95.169458,45.6510274 L94.915567,46.3839879 L94.659643,47.1135552 C95.040734,47.2404659 95.591198,47.2818646 96.27479,47.308163 C98.298297,47.375351 101.320262,47.1732779 101.329577,47.1732779 L103.206068,47.0499301 L101.814833,45.7784471 C101.81297,45.7743751 100.81248,44.8656398 99.670393,43.9007447 C99.099096,43.4185517 98.490536,42.920919 97.94888,42.5174514 C97.398585,42.1099117 96.942969,41.7992518 96.565944,41.6609734 C95.901152,41.4310749 95.2013,41.4738309 94.566996,41.7675241 C93.939467,42.0569757 93.342425,42.6441925 93.045343,43.4857398 C92.750125,44.3313591 92.852935,45.163405 93.16509,45.7825191 C93.474367,46.40842 93.995699,46.8777183 94.659643,47.1135552 L94.915567,46.3839879 L94.915567,46.3839879 L94.915567,46.3839879 Z" id="Fill-24" fill="#4D2D12"></path>
                                    <path d="M92.77858,52.4992034 L93.034503,51.7694665 C92.571266,51.608792 92.227607,51.2759058 92.054338,50.9204538 C91.878867,50.5577062 91.872769,50.2343213 91.966264,49.9786335 C92.054338,49.7181949 92.25945,49.4660701 92.623603,49.2923313 C92.978271,49.1221555 93.456244,49.0768545 93.917109,49.2382076 C94.101896,49.2999663 94.567165,49.5894178 95.080198,49.9745615 C95.860503,50.5577062 96.814415,51.3619268 97.568466,52.0204037 C98.32472,52.6748085 98.877047,53.1800762 98.87908,53.1832999 L99.278463,52.5399234 L99.365859,51.7884692 C99.365859,51.7884692 98.031703,51.8766959 96.556628,51.9153799 C95.817143,51.9342129 95.050388,51.9416783 94.400332,51.9194519 C93.7601,51.9024853 93.215056,51.8386905 93.034503,51.7694665 L92.77858,52.4992034 L92.526044,53.2301279 C92.907134,53.358905 93.452179,53.4004734 94.135771,53.4267717 C96.159278,53.4939598 99.181073,53.2918866 99.190388,53.2918866 L101.070436,53.1683692 L99.677846,51.8948502 C99.673781,51.8929839 98.678711,50.9842486 97.534761,50.0159602 C96.961262,49.5351245 96.35338,49.0393581 95.811892,48.6358905 C95.262783,48.2278418 94.805305,47.9178606 94.424892,47.7795822 C93.7601,47.5476476 93.062281,47.5924397 92.427129,47.8879992 C91.80231,48.1755845 91.201203,48.7628012 90.908187,49.6084205 C90.61517,50.4492892 90.717133,51.2832015 91.025224,51.9004493 C91.340767,52.5249927 91.859897,52.9961574 92.526044,53.2301279 L92.77858,52.4992034 L92.77858,52.4992034 L92.77858,52.4992034 Z" id="Fill-25" fill="#4D2D12"></path>
                                    <path d="M99.13834,53.2260899 C99.890359,53.7666483 100.532793,54.368626 100.883566,54.9709432 C101.057513,55.2705747 101.159814,55.5622319 101.191487,55.8333595 C101.221297,56.103978 101.196738,56.3508432 101.092573,56.6592974 C100.989763,56.942132 100.859007,57.1367398 100.655928,57.3272756 C100.353596,57.6080741 99.870034,57.8243993 99.31144,57.9294231 C98.757249,58.0380098 98.132599,58.0475111 97.556898,58.0006831 L97.256599,59.5054579 C98.096523,59.567047 99.04095,59.5446509 99.926266,59.2382327 C100.368501,59.0829876 100.803621,58.8551251 101.195552,58.4976372 C101.589515,58.1423549 101.938086,57.6377658 102.14523,57.0295104 C102.356608,56.4429723 102.416228,55.8442182 102.352543,55.3187601 C102.253629,54.5240408 101.910309,53.889996 101.464348,53.3406149 C101.020081,52.7866529 100.459793,52.3119252 99.857331,51.8780872 L99.13834,53.2260899 L99.13834,53.2260899 L99.13834,53.2260899 Z" id="Fill-26" fill="#4D2D12"></path>
                                    <path d="M96.999185,59.33177 C97.74934,59.8701227 98.397195,60.4690465 98.748476,61.0710243 C98.923777,61.3701469 99.026079,61.6618041 99.061817,61.9275023 C99.089594,62.2001568 99.067406,62.447022 98.963072,62.7534403 L100.019117,63.1238229 C100.226938,62.5332128 100.288421,61.9364946 100.218808,61.4108669 C100.120063,60.6147903 99.772678,59.9882108 99.32858,59.4381511 C98.879232,58.890297 98.318605,58.4135333 97.719531,57.9815617 L96.999185,59.33177 L96.999185,59.33177 L96.999185,59.33177 Z" id="Fill-27" fill="#4D2D12"></path>
                                    <path d="M70.0403207,71.4285713 C64.1799927,69.8316674 64.0873453,68.5771512 70.0403207,68.5153925 C88.763052,68.4232634 105.316616,74.9683296 115.619615,88.319579 C125.938873,101.663703 128.090765,119.379631 123.308331,137.488168 C121.819029,143.258875 120.625622,142.824867 120.543815,136.75877 C120.362923,121.881538 115.804571,107.449341 106.496642,95.3918 C97.179906,83.3381623 84.3764445,75.3443113 70.0403207,71.4285713 L70.0403207,71.4285713 L70.0403207,71.4285713 L70.0403207,71.4285713 Z" id="Fill-50" fill="#FFFFFF"></path>
                                    <path d="M102.793101,51.2053753 C102.487212,51.4893975 101.999586,51.7138667 101.442008,51.8238108 C100.885446,51.9396932 100.259949,51.9532665 99.687297,51.9077958 L99.384626,53.4112133 C100.230139,53.475008 101.178632,53.4417533 102.065472,53.1236281 C102.511433,52.9629536 102.942827,52.7310191 103.338146,52.3682715 C103.732109,52.0109532 104.081526,51.5077215 104.288501,50.8981087 L103.231779,50.5278958 C103.131002,50.8120877 103.000415,51.0107675 102.793101,51.2053753 Z" id="Fill-28" fill="#4D2D12"></path>
                                    <path d="M90.644861,58.608209 L90.900785,57.8772845 C90.437548,57.7159313 90.093889,57.3835541 89.92062,57.0282718 C89.745149,56.6655242 89.739051,56.3399336 89.830513,56.0815311 C89.92062,55.8239769 90.125731,55.5730397 90.489885,55.3974346 C90.846416,55.2291251 91.320493,55.1845028 91.783391,55.3472132 C91.968178,55.4048999 92.433447,55.6963875 92.948512,56.0815311 C93.726784,56.6655242 94.680697,57.4690661 95.434748,58.127543 C96.191001,58.7817781 96.745531,59.2890818 96.745531,59.2890818 L97.144744,58.6475717 L97.232141,57.8956085 C97.230786,57.8935725 95.897985,57.9816295 94.424773,58.0230282 C93.685626,58.0413522 92.91667,58.0488176 92.268816,58.0264216 C91.625027,58.0094549 91.083539,57.9465085 90.900785,57.8772845 L90.644861,58.608209 L90.393003,59.3359099 C90.771384,59.466723 91.320493,59.507443 92.00544,59.533911 C94.027592,59.6010991 97.049387,59.3988563 97.054807,59.3988563 L98.936717,59.2721152 L97.54616,58.0040255 C97.542095,58.0006322 96.54567,57.0900305 95.39901,56.1249658 C94.829745,55.6422638 94.221016,55.1471761 93.676311,54.7430298 C93.129234,54.3354901 92.675482,54.0248302 92.295069,53.8865518 C91.630447,53.6546173 90.93178,53.6973733 90.297645,53.9931025 C89.668761,54.2832327 89.06884,54.8697709 88.775823,55.7113182 C88.481452,56.5569375 88.583584,57.3869474 88.893538,58.0080975 C89.207049,58.632641 89.724316,59.1039754 90.393003,59.3359099 L90.644861,58.608209 L90.644861,58.608209 L90.644861,58.608209 Z" id="Fill-29" fill="#4D2D12"></path>
                                    <path d="M88.511126,64.7247478 L88.762985,63.9951806 C88.298562,63.8343365 87.956766,63.5014502 87.784852,63.1468466 C87.60955,62.784099 87.60413,62.4585085 87.695592,62.2002756 C87.784852,61.9425517 87.990641,61.6916146 88.352084,61.5180454 C88.708785,61.3478696 89.186758,61.3030776 89.647623,61.4651094 C89.830547,61.5234748 90.295477,61.815132 90.80868,62.2043476 C91.589153,62.784099 92.545098,63.587641 93.29915,64.2461178 C94.053201,64.900353 94.607561,65.4056207 94.607561,65.406978 L95.008977,64.7661465 L95.097051,64.01079 C95.092986,64.01079 93.760015,64.1002044 92.285787,64.1395671 C91.547826,64.1599271 90.780902,64.1673924 90.131016,64.1449964 C89.489259,64.1259937 88.944384,64.0630473 88.762985,63.9951806 L88.511126,64.7247478 L88.253339,65.4538061 C88.63443,65.5846191 89.186758,65.6260178 89.868317,65.6504499 C91.889622,65.7154322 94.913619,65.5174311 94.921072,65.5140378 L96.799595,65.39069 L95.406327,64.1226004 C95.404972,64.1185284 94.408039,63.2084357 93.26392,62.2415046 C92.692453,61.7608386 92.082031,61.2650722 91.540543,60.8595686 C90.992111,60.454065 90.534464,60.1435747 90.157438,60.0051266 C89.492646,59.7731921 88.794827,59.8179841 88.159845,60.1096414 C87.532993,60.4011289 86.933749,60.9869884 86.638531,61.829893 C86.343482,62.6734763 86.448325,63.5075583 86.756585,64.1246364 C87.068063,64.7512159 87.59058,65.2218715 88.253339,65.4538061 L88.511126,64.7247478 L88.511126,64.7247478 L88.511126,64.7247478 Z" id="Fill-30" fill="#4D2D12"></path>
                                    <path d="M94.868955,65.4503788 C95.617756,65.9928035 96.263409,66.594951 96.612826,67.1965894 C96.785926,67.496221 96.888905,67.7877085 96.92278,68.0569697 C96.950557,68.3303029 96.928031,68.5771681 96.821833,68.8856224 C96.719024,69.1677782 96.588267,69.3623861 96.384511,69.5529219 C96.082687,69.8335507 95.598617,70.0486882 95.042733,70.1550693 C94.48634,70.2636561 93.865078,70.2729877 93.288191,70.2261597 L92.98569,71.7314435 C93.827646,71.7930326 94.770211,71.7689399 95.656712,71.4642183 C96.098947,71.3106699 96.532035,71.0807714 96.924135,70.7236227 C97.318098,70.3680011 97.669379,69.8634121 97.877878,69.2558353 C98.0857,68.6665825 98.147352,68.0698644 98.079602,67.5444064 C97.980688,66.7496871 97.637706,66.1163209 97.194794,65.5662612 C96.748833,65.0129778 96.189054,64.5375714 95.589979,64.1001704 L94.868955,65.4503788 L94.868955,65.4503788 L94.868955,65.4503788 Z" id="Fill-31" fill="#4D2D12"></path>
                                    <path d="M92.726447,71.5573823 C93.480498,72.0960744 94.12632,72.6946589 94.476923,73.296467 C94.654427,73.5957592 94.759269,73.8874164 94.789079,74.1527753 C94.820752,74.4261085 94.797886,74.6729737 94.693552,74.9793919 L95.750444,75.3497745 C95.955555,74.7588251 96.01907,74.1602406 95.949796,73.6351219 C95.849188,72.8420993 95.501972,72.2121265 95.057705,71.6622364 C94.60768,71.1162487 94.04773,70.6391457 93.446623,70.207174 L92.726447,71.5573823 L92.726447,71.5573823 L92.726447,71.5573823 Z" id="Fill-32" fill="#4D2D12"></path>
                                    <path d="M98.963021,62.7535251 C98.862074,63.0383956 98.727422,63.2363968 98.522142,63.4287989 C98.216422,63.7150268 97.728965,63.93746 97.169185,64.0480827 C96.612792,64.1653225 95.992546,64.1768598 95.415998,64.1341038 L95.115191,65.6375213 C95.959518,65.7006373 96.907841,65.6653466 97.794004,65.3492574 C98.238779,65.1885829 98.673392,64.9566484 99.067355,64.5939008 C99.461149,64.2365825 99.808365,63.7319935 100.019066,63.123738 L98.963021,62.7535251 L98.963021,62.7535251 L98.963021,62.7535251 Z" id="Fill-33" fill="#4D2D12"></path>
                                    <path d="M86.375291,70.8318362 L86.629351,70.1029477 C86.168147,69.9421036 85.825165,69.6071813 85.649186,69.253935 C85.473884,68.8911874 85.468295,68.5655969 85.561789,68.3071943 C85.649186,68.0496401 85.856838,67.7987029 86.220483,67.6229282 C86.577015,67.4547884 87.053124,67.410166 87.51399,67.5708404 C87.698776,67.6325992 88.163876,67.9220507 88.677078,68.3112663 C89.457383,68.8911874 90.411295,69.6952384 91.165347,70.3530365 C91.919398,71.0077807 92.473927,71.5127091 92.476129,71.5127091 L92.87331,70.8711989 L92.961385,70.1178784 C92.961385,70.1178784 91.628584,70.2072928 90.154017,70.2466555 C89.416056,70.2668458 88.647269,70.2744808 87.99789,70.2520848 C87.355625,70.2337608 86.810581,70.1720021 86.629351,70.1029477 L86.375291,70.8318362 L86.119536,71.5632698 C86.50266,71.6920469 87.050922,71.7332759 87.734514,71.7575383 C89.755989,71.824896 92.778631,71.6248588 92.786083,71.6211262 L94.667147,71.4994751 L93.274557,70.2283314 C93.271338,70.2262954 92.274236,69.3134881 91.130117,68.348593 C90.556956,67.8664 89.95026,67.3728393 89.407418,66.96513 C88.858308,66.5611534 88.40083,66.2504935 88.023635,66.112215 C87.359013,65.8823165 86.659161,65.9250725 86.02672,66.2187658 C85.39919,66.508896 84.7982526,67.0920408 84.5048975,67.9369814 C84.2098486,68.7805647 84.3126584,69.6126106 84.6227816,70.2317248 C84.9342597,70.8583043 85.456777,71.3292993 86.119536,71.5632698 L86.375291,70.8318362 L86.375291,70.8318362 L86.375291,70.8318362 Z" id="Fill-34" fill="#4D2D12"></path>
                                    <path d="M84.2382695,76.9503602 L84.4941931,76.2211323 C84.0292624,76.0602882 83.6857727,75.7257052 83.5119953,75.3721196 C83.3366936,75.009372 83.3324593,74.6858175 83.422566,74.4262273 C83.5140278,74.1681641 83.7191393,73.9175662 84.0832926,73.7416218 C84.4381304,73.573482 84.9118685,73.5283506 85.376969,73.6893644 C85.559723,73.7511231 86.024653,74.040914 86.539888,74.4277543 C87.318499,75.009372 88.272072,75.8135926 89.028325,76.4678278 C89.782377,77.1263046 90.336737,77.631233 90.338939,77.631233 L90.738322,76.9897229 L90.825719,76.238099 C90.824364,76.238099 89.489191,76.3258167 88.016318,76.3651794 C87.279035,76.3838427 86.508046,76.3913081 85.862224,76.3706087 C85.217757,76.3519454 84.6728823,76.28849 84.4941931,76.2211323 L84.2382695,76.9503602 L83.9845478,77.6797577 C84.364961,77.8105708 84.9137316,77.8516302 85.596815,77.8743655 C87.621,77.9451166 90.642795,77.7433828 90.650247,77.7413468 L92.530126,77.620035 L91.139568,76.3482127 C91.135672,76.34448 90.137215,75.4321817 88.992249,74.467117 C88.423153,73.9847543 87.813239,73.4910239 87.269719,73.0851809 C86.719255,72.679338 86.265164,72.3691871 85.886614,72.230739 C85.21979,71.9988044 84.5240028,72.0435965 83.8888517,72.335593 C83.2619998,72.6253839 82.6622478,73.2142974 82.3678764,74.0558447 C82.07486,74.8990886 82.1769923,75.7331706 82.4891479,76.3482127 C82.799271,76.9764889 83.3195869,77.4461265 83.9845478,77.6797577 L84.2382695,76.9503602 L84.2382695,76.9503602 L84.2382695,76.9503602 Z" id="Fill-35" fill="#4D2D12"></path>
                                    <path d="M90.596065,77.6759911 C91.350286,78.2180765 91.992551,78.820224 92.341291,79.4206748 C92.51727,79.7218333 92.618047,80.0133209 92.651414,80.2825821 C92.681224,80.5538793 92.65531,80.8024411 92.550467,81.1108954 C92.449521,81.3933906 92.315546,81.5879984 92.113822,81.7785342 C91.813184,82.0591631 91.329791,82.2758276 90.771367,82.3806817 C90.217007,82.4890987 89.593542,82.4965641 89.016825,82.451772 L88.716187,83.9551895 C89.558313,84.0189842 90.500538,83.9962489 91.386024,83.689661 C91.827919,83.5344159 92.259314,83.3063837 92.65531,82.9492351 C93.050628,82.5939528 93.400045,82.0890244 93.60702,81.4811083 C93.816366,80.8921949 93.875816,80.2958161 93.812132,79.770358 C93.711862,78.9737724 93.366001,78.3414243 92.926138,77.7898375 C92.477975,77.2382508 91.917518,76.7635231 91.317088,76.3278188 L90.596065,77.6759911 L90.596065,77.6759911 L90.596065,77.6759911 Z" id="Fill-36" fill="#4D2D12"></path>
                                    <path d="M88.459044,83.7812641 C89.20903,84.3218225 89.856884,84.9202373 90.20969,85.5223847 C90.385669,85.8213376 90.487801,86.113334 90.521676,86.378863 C90.553349,86.649651 90.526927,86.894819 90.424117,87.20514 L91.480839,87.575353 C91.686797,86.984743 91.74828,86.386328 91.68053,85.8586643 C91.579584,85.065981 91.231013,84.4377049 90.786238,83.8876452 C90.33672,83.3401304 89.778295,82.8631971 89.177188,82.4295287 L88.459044,83.7812641 L88.459044,83.7812641 L88.459044,83.7812641 Z" id="Fill-37" fill="#4D2D12"></path>
                                    <path d="M94.69362,74.9794768 C94.590641,75.263499 94.460053,75.4620091 94.249522,75.6566169 C93.944819,75.9406391 93.457531,76.1651083 92.899783,76.2735254 C92.343222,76.3895775 91.72179,76.4024722 91.147274,76.3556441 L90.846467,77.8631336 C91.688084,77.9247226 92.636407,77.8909589 93.527143,77.5748697 C93.969378,77.4141953 94.402466,77.1802247 94.797785,76.8195131 C95.190562,76.4604982 95.538964,75.9576058 95.750342,75.3496897 L94.69362,74.9794768 L94.69362,74.9794768 L94.69362,74.9794768 Z" id="Fill-38" fill="#4D2D12"></path>
                                    <path d="M82.1065498,83.0577879 L82.3606103,82.32856 C81.8955102,82.1673766 81.5521899,81.8348296 81.3802756,81.4795474 C81.2029414,81.1166301 81.2007396,80.7912092 81.2888138,80.533146 C81.3802756,80.2752525 81.5833546,80.0246546 81.9495404,79.8488798 C82.3064107,79.6804007 82.7801488,79.6335727 83.2432163,79.7964528 C83.4300354,79.8563452 83.8909011,80.1480024 84.4083376,80.535182 C85.186609,81.1166301 86.140352,81.9205114 86.896606,82.5752555 C87.648794,83.233393 88.205187,83.7383214 88.206542,83.7383214 L88.60457,83.0969809 L88.691966,82.3434907 C88.690611,82.3450177 87.355608,82.4332444 85.882566,82.4743038 C85.145282,82.4912705 84.3744629,82.5002628 83.7284718,82.4780365 C83.0860376,82.4593731 82.5411626,82.3955784 82.3606103,82.32856 L82.1065498,83.0577879 L81.8487631,83.7870158 C82.2332413,83.9179985 82.7821812,83.9571916 83.4650958,83.9834899 C85.488772,84.0525443 88.511075,83.8487745 88.516665,83.8487745 L90.396373,83.7254267 L89.005816,82.4536044 C88.999888,82.4519078 88.003463,81.5391004 86.858835,80.5745447 C86.289401,80.093709 85.680842,79.5984516 85.137999,79.1905727 C84.5868574,78.7867657 84.1320892,78.4764451 83.7548941,78.3378273 C83.0902719,78.1062322 82.3882182,78.1472915 81.7573013,78.4425118 C81.128417,78.7307756 80.5286649,79.3176531 80.2354792,80.1629331 C79.9390753,81.008213 80.0432401,81.8385623 80.3531938,82.4556404 C80.6655188,83.0839166 81.1858347,83.5530453 81.8487631,83.7870158 L82.1065498,83.0577879 L82.1065498,83.0577879 L82.1065498,83.0577879 Z" id="Fill-39" fill="#4D2D12"></path>
                                    <polygon id="Fill-40" fill="#EF462F" points="48.9888708 64.2609806 44.5257059 65.9547642 35.8678335 43.0443177 40.3308289 41.3524004"></polygon>
                                    <path d="M51.2362049,27.4566221 C54.6560281,36.5073275 50.1032646,46.6274428 41.0688746,50.0531851 C32.0295727,53.4824903 21.9289755,48.9201502 18.5071198,39.8694447 C15.0857723,30.8153459 19.6403989,20.698624 28.6774989,17.2728817 C37.7137521,13.8444248 47.8150267,18.4025232 51.2362049,27.4566221" id="Fill-41" fill="#AD6029"></path>
                                    <path d="M46.65353,29.1939591 C49.1196103,35.7145934 45.8396897,42.9995765 39.3343869,45.465853 C32.8270515,47.9328082 25.552623,44.6507738 23.0900996,38.1299699 C20.6258825,31.6113716 23.9042787,24.3299515 30.4117834,21.861639 C36.9172556,19.3931568 44.1913454,22.6753609 46.65353,29.1939591" id="Fill-42" fill="#7ACCCA"></path>
                                    <path d="M39.6159197,31.8623258 C40.6076024,34.4913128 39.2897061,37.4234943 36.6688184,38.4162147 C34.0496244,39.4096138 31.1191216,38.0894365 30.1260839,35.4638428 C29.1328769,32.8380795 30.4565319,29.9067463 33.0769115,28.9118202 C35.6957668,27.9184211 38.6228821,29.2408041 39.6159197,31.8623258" id="Fill-43" fill="#4D2D12"></path>
                                    <path d="M35.0094309,29.6428126 C35.6046099,31.2154542 37.3650795,32.0156028 38.9383913,31.4173576 C40.5122112,30.8187732 41.3014923,29.0555959 40.7080071,27.483124 C40.1128281,25.9043745 38.3542216,25.1096552 36.7788773,25.7063733 C35.2072593,26.3046185 34.4135744,28.0662688 35.0094309,29.6428126" id="Fill-44" fill="#FEFEFE"></path>
                                    <path d="M127.049117,30.067319 C122.186569,40.5875085 109.731679,45.1688513 99.229835,40.2994143 C88.723758,35.4284503 84.1521938,22.9486093 89.013556,12.4290984 C93.877798,1.9089088 106.332858,-2.6710767 116.838258,2.200566 C127.340948,7.0693243 131.912343,19.5484867 127.049117,30.067319" id="Fill-45" fill="#EF462F"></path>
                                    <path d="M121.725738,27.5990234 C118.225123,35.1754941 109.255942,38.4744953 101.691715,34.9666343 C94.12969,31.4601306 90.837067,22.4752559 94.338867,14.8974278 C97.840836,7.3236718 106.80663,4.0273853 114.370857,7.5352463 C121.932882,11.0395443 125.22957,20.021874 121.725738,27.5990234" id="Fill-46" fill="#EFC92C"></path>
                                    <path d="M113.547514,23.8063767 C112.134091,26.8585127 108.526094,28.186325 105.477707,26.7745276 C102.435079,25.3625606 101.105496,21.7422105 102.514854,18.6907532 C103.926245,15.6406532 107.536444,14.3155556 110.584661,15.7280316 C113.629491,17.1384717 114.955009,20.7569554 113.547514,23.8063767" id="Fill-47" fill="#4D2D12"></path>
                                    <path d="M111.577699,17.9949666 C110.736251,19.8271984 111.531799,22.0040233 113.358832,22.8487943 C115.189931,23.6978069 117.357405,22.8976583 118.202918,21.06882 C119.048432,19.2365882 118.253561,17.0633263 116.427883,16.213635 C114.598139,15.3666583 112.427447,16.1634136 111.577699,17.9949666" id="Fill-48" fill="#FEFEFE"></path>
                                    <path d="M99.397549,231.744469 C99.397549,236.6475 95.429464,240.622962 90.531178,240.622962 L42.5559243,240.622962 C37.6581467,240.622962 33.6895529,236.6475 33.6895529,231.744469 C33.6895529,226.837705 37.6581467,222.862242 42.5559243,222.862242 L90.531178,222.862242 C95.429464,222.862242 99.397549,226.837705 99.397549,231.744469" id="Fill-58" fill="#4D2D12"></path>
                                    <path d="M24.4080298,334.918609 L24.3983755,334.918609 L24.3877049,334.918609 C17.3353252,334.918609 11.5928813,329.19473 11.5449485,322.145075 L7.4748999,254.587999 L7.4696493,254.486877 L7.4696493,254.385756 C7.4696493,247.291139 13.2303857,241.520432 20.3125751,241.520432 L114.975334,241.520432 C122.059556,241.520432 127.822156,247.291139 127.822156,254.385756 L127.822156,254.548636 L127.807251,254.711346 L121.305335,321.724301 C121.201171,328.727467 115.47414,334.39349 108.459022,334.39349 L24.4080298,334.918609 L24.4080298,334.918609 L24.4080298,334.918609 Z" id="Fill-59" fill="#FEFEFE"></path>
                                    <path d="M117.96942,321.52803 C117.96942,326.790246 113.713568,331.053803 108.460445,331.053803 L24.3896358,331.577225 C19.1346492,331.577225 14.8767652,327.313668 14.8767652,322.051452 L10.8016354,254.38579 C10.8016354,249.123744 15.05935,244.85849 20.3126429,244.85849 L114.975233,244.85849 C120.230389,244.85849 124.488273,249.123744 124.488273,254.38579 L117.96942,321.52803 L117.96942,321.52803 L117.96942,321.52803 Z" id="Fill-60" fill="#277A7C"></path>
                                    <path d="M51.5036798,317.719147 C51.5036798,321.444011 48.4906921,324.460178 44.7736181,324.460178 C41.0572217,324.460178 38.0442339,321.444011 38.0442339,317.719147 C38.0442339,313.995978 41.0572217,310.977776 44.7736181,310.977776 C48.4906921,310.977776 51.5036798,313.995978 51.5036798,317.719147" id="Fill-72" fill="#EF8029"></path>
                                    <path d="M69.1643541,317.350545 C69.1643541,320.2152 66.8476614,322.534036 63.98982,322.534036 C61.1302848,322.534036 58.8118984,320.2152 58.8118984,317.350545 C58.8118984,314.487588 61.1302848,312.163323 63.98982,312.163323 C66.8476614,312.163323 69.1643541,314.487588 69.1643541,317.350545" id="Fill-73" fill="#7ACCCA"></path>
                                    <path d="M83.8029284,317.560084 C83.8029284,316.709375 84.4941423,316.019 85.343212,316.019 L92.93691,316.019 C92.278216,312.391524 89.114316,309.63919 85.303748,309.63919 C81.0162239,309.63919 77.5388137,313.122619 77.5388137,317.418073 C77.5388137,321.713188 81.0162239,325.196956 85.303748,325.196956 C89.013539,325.196956 92.110536,322.590365 92.882711,319.104391 L85.343212,319.104391 C84.4941423,319.104391 83.8029284,318.412829 83.8029284,317.560084" id="Fill-74" fill="#EF462F"></path>
                                    <path d="M92.936859,316.019068 L85.343162,316.019068 C84.4940915,316.019068 83.8028776,316.709442 83.8028776,317.560152 C83.8028776,318.412727 84.4940915,319.104459 85.343162,319.104459 L92.882829,319.104459 C93.000544,318.560677 93.069479,317.997553 93.069479,317.418141 C93.069479,316.939171 93.020869,316.475472 92.936859,316.019068" id="Fill-75" fill="#EFC92C"></path>
                                </g>
                            </g>
                        </g>
                    </g>
                </g>
            </g>
        </g>
    </g>
</svg>