<?xml version="1.0" encoding="UTF-8"?>
<svg width="67px" height="109px" viewBox="0 0 67 109" version="1.1" xmlns="http://www.w3.org/2000/svg" xmlns:xlink="http://www.w3.org/1999/xlink">
    <!-- Generator: Sketch 40.3 (33839) - http://www.bohemiancoding.com/sketch -->
    <title>Combined Shape</title>
    <desc>Created with Sketch.</desc>
    <defs></defs>
    <g id="Page-1" stroke="none" stroke-width="1" fill="none" fill-rule="evenodd">
        <path d="M5.03985178,8.53522414 C6.09913965,8.33615007 7.07205666,8.27834869 7.9759106,8.328585 C9.3312385,8.405274 10.5385338,8.721194 11.6550449,9.214754 C13.3331989,9.962815 14.8060721,11.148447 16.0455484,12.571442 C17.0253933,13.6918044 17.8499587,14.9560517 18.4982418,16.2125509 C18.4894606,16.2709909 18.4808478,16.329439 18.4724017,16.387893 L18.5953841,16.4033869 C18.6818708,16.5756166 18.7650191,16.7475558 18.844775,16.918813 C18.8253287,16.9677065 18.8072082,17.0155257 18.7879448,17.064864 C18.6626083,17.405046 18.5636941,17.760328 18.4513994,18.198068 C18.0667518,19.712684 17.5964012,22.171665 17.1577235,25.04565 C16.7244657,27.912341 16.3366001,31.167907 16.1424979,34.189842 C16.0232588,36.104532 15.9821011,37.920136 16.070006,39.519246 C16.1125188,40.322958 16.1911081,41.071358 16.3177996,41.766822 C16.4470317,42.466188 16.6182685,43.113128 16.9168742,43.748869 L19.0918011,42.843867 L16.8050876,43.457212 C17.5239093,45.787246 18.6477034,47.842251 20.0496091,49.44119 C20.7569134,50.241339 21.535524,50.931374 22.4182994,51.464297 C23.2995505,51.995354 24.3130824,52.380498 25.446192,52.445989 C25.8455751,52.466689 26.2522412,52.445989 26.6612786,52.380498 L26.2341182,50.189082 L26.4819119,52.399501 C27.6509287,52.290914 28.6920685,51.808551 29.5265725,51.176542 C30.781123,50.219113 31.6752465,48.924894 32.3341099,47.44014 C32.9892472,45.959119 33.3947277,44.272631 33.5105793,42.469921 C33.5383565,42.041682 33.5436071,41.607674 33.5383565,41.168237 L31.1601812,41.205904 L33.5307347,41.385241 L31.1601812,41.205904 L28.7781103,41.239498 C28.7855628,41.566615 28.7781103,41.89017 28.759818,42.208125 C28.6493864,43.984367 28.1268687,45.585173 27.4749495,46.617596 C27.156019,47.137285 26.8089724,47.507668 26.532724,47.713304 C26.2522412,47.926236 26.0804963,47.964071 25.9856471,47.9751 L25.8943547,47.982565 L25.8044173,48.001228 L25.7263361,48.004961 C25.6214938,48.001228 25.3642152,47.944899 24.9958275,47.722635 C24.441637,47.395348 23.7099428,46.70701 23.0490469,45.74992 C22.3864572,44.788757 21.7926332,43.573264 21.3785147,42.230521 L21.3338,42.082742 L21.2646956,41.94073 C21.206431,41.815516 21.0927813,41.478897 21.0109739,41.018761 C20.8822499,40.322958 20.8017974,39.347204 20.7868925,38.217562 C20.7697858,37.08809 20.811113,35.805409 20.8952917,34.447905 C21.1268254,30.805159 21.681016,26.659521 22.229956,23.460114 C22.5023088,21.859478 22.7785572,20.490436 23.0004367,19.561002 C23.1073114,19.103071 23.2114762,18.743886 23.2658452,18.579479 L21.9125498,17.984797 L23.1596479,18.736421 C23.2710957,18.572014 23.2826131,18.521453 23.2922674,18.504656 L21.9125498,17.984797 L23.1596479,18.736421 L21.3358325,17.633247 L22.814295,19.121565 C23.0139865,18.942227 23.095794,18.818879 23.1596479,18.736421 L21.3358325,17.633247 L22.814295,19.121565 L21.2458951,17.547396 L22.3810372,19.415258 C22.5766638,19.310573 22.7113158,19.207755 22.814295,19.121565 L21.2458951,17.547396 L22.3810372,19.415258 L21.2296352,17.513463 L21.5875217,19.675357 C21.9220347,19.624796 22.1867657,19.518415 22.3810372,19.415258 L21.2296352,17.513463 L21.5875217,19.675357 L21.2213359,17.476306 L21.540944,19.67909 L21.2255703,17.502265 L21.0893939,19.697753 C21.268083,19.708951 21.4250924,19.69402 21.540944,19.67909 L21.2255703,17.502265 L21.0893939,19.697753 L21.2233684,17.524661 L20.3033308,19.522148 C20.4821893,19.592899 20.7347254,19.675357 21.0893939,19.697753 L21.2233684,17.524661 L20.3033308,19.522148 L21.1767907,17.624085 L19.7152655,19.177894 C19.8160428,19.252547 19.9488317,19.374198 20.3033308,19.522148 L21.1767907,17.624085 L19.7152655,19.177894 L20.6745978,18.157009 L19.5133721,18.983286 C19.5230264,18.989055 19.5379313,19.024685 19.7152655,19.177894 L20.6745978,18.157009 L19.5133721,18.983286 L19.577226,19.069477 C19.7301704,19.290213 20.047746,19.800401 20.4225698,20.46804 C21.7557098,22.82047 23.9677295,27.203642 25.7746075,31.414772 C26.6782159,33.52407 27.482402,35.599773 28.0333744,37.336992 C28.3043723,38.202632 28.5167668,38.988189 28.6400708,39.627663 C28.7706579,40.26544 28.8063957,40.768163 28.7896277,40.986864 L28.7760778,41.13108 L31.1601812,41.205904 L33.5307347,41.385241 L33.540389,41.248999 C33.5966211,40.255939 33.4355467,39.279676 33.1835188,38.17277 C32.7301055,36.254008 31.9293069,34.0027 30.9753946,31.631776 C29.5396142,28.086249 27.7478105,24.316592 26.2469906,21.395609 C25.4949717,19.937153 24.8173077,18.691799 24.2776833,17.775259 C24.0049917,17.313426 23.7754904,16.937783 23.553611,16.619828 C23.4723513,16.5045109 23.3964245,16.4001285 23.3011075,16.2847838 C23.8423301,13.1030323 24.9949197,10.145002 26.7749283,8.07422 C27.7308731,6.956116 28.8492473,6.076903 30.2003408,5.456092 C31.5541443,4.835281 33.1592983,4.465068 35.1589235,4.457603 L35.1526567,2.232253 L35.0972715,4.457603 C35.2463203,4.461336 35.3882555,4.465068 35.5337474,4.472534 C37.3426579,4.577218 38.7427004,5.022424 39.9245897,5.699224 C41.6845512,6.709251 43.0100693,8.311584 43.9826128,10.28447 C44.8085482,11.958437 45.3509869,13.8713831 45.6713209,15.7199149 C45.6546916,15.7574061 45.6381207,15.7949197 45.6216077,15.832455 L45.6953251,15.8607842 C45.7306739,16.0717995 45.7631379,16.2818715 45.792809,16.4905461 C45.6624624,16.6821102 45.5387417,16.8837318 45.3941727,17.128438 C44.8506527,18.048541 44.0274968,19.578087 43.0620671,21.496679 C41.6120593,24.365236 39.8649702,28.052604 38.4291898,31.530604 C37.7142637,33.273421 37.0740313,34.960248 36.5886065,36.485892 C36.1031816,38.02494 35.7654506,39.365986 35.6814412,40.603705 C35.6645039,40.856 35.6604389,41.106598 35.6739888,41.359231 L38.0501316,41.248948 L35.6739888,41.153426 C35.5562741,43.890999 36.1838035,46.449066 37.4454677,48.517304 C38.0763845,49.549387 38.8792156,50.462025 39.8724226,51.172759 C40.8580079,51.882984 42.061577,52.386216 43.3762552,52.51143 L43.6226938,50.297278 L43.2841159,52.500232 C43.4729675,52.52653 43.6611416,52.545193 43.8479608,52.556391 C45.1192793,52.627312 46.3533357,52.358051 47.45274,51.868223 C49.1085367,51.137129 50.5029899,49.932834 51.6139116,48.453848 C52.7185665,46.968925 53.536302,45.188781 53.958212,43.221664 L51.6193316,42.791728 L53.924846,43.345012 L51.6193316,42.791728 L49.2858709,42.35772 C48.9034252,44.186559 47.99626,45.755298 46.9639276,46.763458 C46.4520805,47.27195 45.910593,47.630964 45.4239825,47.844236 C44.9324602,48.057167 44.5052999,48.133857 44.1282741,48.113497 L43.9617798,48.098566 L43.8704874,48.087368 C43.5176822,48.049702 43.1670787,47.926354 42.7656632,47.642162 C42.1698067,47.223425 41.5168713,46.404274 41.0665068,45.297367 C40.6149567,44.188256 40.3632674,42.806659 40.4281375,41.344301 L40.4281375,41.138495 C40.4247501,41.076736 40.4247501,40.98325 40.4322025,40.865501 C40.4579473,40.41283 40.6075042,39.627612 40.8668153,38.700044 C41.326326,37.058348 42.117809,34.935816 43.0451297,32.716405 C44.4361954,29.380416 46.1407717,25.810627 47.5162551,23.099182 C48.2047589,21.743544 48.809931,20.602705 49.2486087,19.824783 C49.4652376,19.439639 49.6447737,19.140347 49.7413166,18.981708 L49.7975487,18.901286 L48.7484483,18.227879 L49.7001588,19.013266 C49.7975487,18.905019 49.8051705,18.889749 49.8051705,18.889749 L48.7484483,18.227879 L49.7001588,19.013266 L48.0740025,17.670863 L49.3866482,19.282697 C49.5788873,19.144419 49.6461286,19.065693 49.7001588,19.013266 L48.0740025,17.670863 L49.3866482,19.282697 L47.9827101,17.55481 L48.927815,19.537028 C49.1571469,19.439639 49.2858709,19.349885 49.3866482,19.282697 L47.9827101,17.55481 L48.927815,19.537028 L47.9659421,17.521047 L47.8263782,19.723831 C48.3470328,19.746227 48.6996687,19.630175 48.927815,19.537028 L47.9659421,17.521047 L47.8263782,19.723831 L47.9659421,17.506116 L47.4249627,19.669537 C47.5724871,19.701435 47.7289884,19.718401 47.8263782,19.723831 L47.9659421,17.506116 L47.4249627,19.669537 L47.9659421,17.506116 L47.0831667,19.568586 C47.1561667,19.59675 47.2774383,19.635943 47.4249627,19.669537 L47.9659421,17.506116 L47.0831667,19.568586 L47.3578907,19.671573 L47.6502296,19.7089 L47.9659421,17.513581 L46.8631503,19.473233 C47.0587769,19.566889 47.3201204,19.667841 47.6502296,19.7089 L47.9659421,17.513581 L46.8631503,19.473233 L47.9549328,17.532245 L46.1854864,18.972037 C46.3065885,19.095555 46.4725747,19.271499 46.8631503,19.473233 L47.9549328,17.532245 L46.1854864,18.972037 L47.8560186,17.614533 L45.8755326,18.546004 C45.9241429,18.620488 45.9634375,18.725342 46.1854864,18.972037 L47.8560186,17.614533 L45.8755326,18.546004 L47.3538258,17.8502 L45.8179456,18.418754 L45.8755326,18.546004 L47.3538258,17.8502 L45.8179456,18.418754 L46.560649,18.14559 L45.8082913,18.401957 L46.560649,18.14559 L45.8082913,18.401957 C45.8193006,18.426219 45.8640152,18.564667 45.9182148,18.75147 C46.1258669,19.480698 46.4874796,20.978686 46.8929601,22.83535 C47.4994871,25.629084 48.2108564,29.290493 48.7281235,32.742534 C48.989467,34.470251 49.1998291,36.149612 49.3304162,37.626901 C49.4611726,39.10419 49.5045323,40.398069 49.4483002,41.284239 C49.4184905,41.733177 49.3624278,42.077261 49.3155113,42.234203 L49.2858709,42.35772 L51.6193316,42.791728 L53.924846,43.345012 C54.08321,42.768993 54.159767,42.185848 54.199062,41.546035 C54.311526,39.687335 54.124537,37.331172 53.801711,34.722884 C53.312221,30.823772 52.5019376,26.423803 51.7763409,22.966503 C51.4120182,21.238786 51.0702222,19.749959 50.7980388,18.665619 C50.6613542,18.121498 50.5441477,17.685793 50.4379504,17.337976 C50.391236,17.1916702 50.3497815,17.0637483 50.2963023,16.9218172 C51.5779602,14.1472778 53.1974612,11.6752369 55.074351,10.003722 C56.080938,9.102622 57.1485,8.427517 58.28703,7.991813 C59.2863836,7.6128883 60.3468058,7.40532936 61.5463006,7.40843155 L45.4537076,108.322032 L49.4876796,108.881084 L66.270744,3.638808 L64.5383899,3.39777049 L64.569098,3.257261 C63.818434,3.111178 63.081151,3.021764 62.358772,2.980365 C60.25295,2.862616 58.26264,3.187867 56.487774,3.872303 C53.811331,4.895224 51.6436875,6.667903 49.8849116,8.758537 C49.5680257,9.13507918 49.2635146,9.52259093 48.9706896,9.91967629 C48.4292394,8.55621558 47.7359221,7.21870336 46.8482454,5.968655 C45.7224188,4.39788 44.2685155,2.969116 42.4182778,1.907172 C40.5722745,0.843021 38.3397605,0.167917 35.8142302,0.031505 C35.6158936,0.018271 35.4140003,0.014539 35.2109213,0.007073 C32.5100892,0.010806 30.1386888,0.5232 28.1058663,1.458233 C25.042744,2.860699 22.8102301,5.1719 21.2945053,7.79936 C20.8457907,8.57458781 20.4541445,9.37878107 20.1138461,10.2038019 C19.4831052,9.43920433 18.7850081,8.70270371 18.0148558,8.014192 C16.7753794,6.907116 15.3455272,5.934756 13.7122571,5.201795 C12.0788177,4.472398 10.2434849,3.993768 8.2553771,3.883484 C6.3309538,3.780836 4.2703541,4.016503 2.1237125,4.648342 L2.18195975,4.82201926 L0.1057611,5.24316 L23.8932729,107.798254 L27.8749084,106.99047 L5.03985178,8.53522414 Z M48.2492317,16.8422357 L48.0713976,16.7738951 L47.9659421,17.502383 L48.2492317,16.8422357 Z" id="Combined-Shape" fill="#FFFFFF"></path>
    </g>
</svg>