<?xml version="1.0" encoding="UTF-8"?>
<svg width="138px" height="172px" viewBox="0 0 138 172" version="1.1" xmlns="http://www.w3.org/2000/svg" xmlns:xlink="http://www.w3.org/1999/xlink">
    <!-- Generator: Sketch 40.3 (33839) - http://www.bohemiancoding.com/sketch -->
    <title>Fill-50-path</title>
    <desc>Created with Sketch.</desc>
    <defs></defs>
    <g id="Page-1" stroke="none" stroke-width="1" fill="none" fill-rule="evenodd">
        <path d="M103.978554,130.900261 C115.824716,119.669337 123.612346,110.993086 127.284536,104.743579 C130.942837,98.486777 133.691433,91.50414 135.535234,83.684367 C136.50998,78.930643 137.067896,74.012851 137.107022,68.945243 C137.308746,50.302086 130.850021,34.340004 117.934095,21.0186154 C105.001401,7.7981787 89.09332,1.0361087 70.4505331,0.8496448 C70.2466072,0.8455728 70.0362451,0.8455728 69.9483402,0.8496448 C69.7559318,0.8455728 69.5486184,0.8455728 69.3511288,0.8286062 C69.2354466,0.8286062 69.0316901,0.8286062 68.8225136,0.8455728 C50.1964942,0.6401064 34.1856038,7.0801489 20.948715,20.048291 C7.7885524,33.120778 1.0347784,48.933214 0.8296669,67.584006 C0.7883397,72.662643 1.2547947,77.606733 2.1340133,82.345357 C3.8141998,90.202965 6.4332245,97.27315 9.9743192,103.580344 C13.5005091,109.889743 21.1411234,118.745501 32.7654058,130.182061 C44.3761384,141.54787 48.5556024,155.389117 45.4364174,171.571427 L90.498614,172.009168 C87.678542,155.787495 92.141538,142.007667 103.978554,130.900261 Z" id="Fill-50-path" fill="#FFF600"></path>
    </g>
</svg>