<?xml version="1.0" encoding="UTF-8" standalone="no"?>
<svg width="419px" height="302px" viewBox="0 0 419 302" version="1.1" xmlns="http://www.w3.org/2000/svg" xmlns:xlink="http://www.w3.org/1999/xlink">
    <!-- Generator: Sketch 3.8.3 (29802) - http://www.bohemiancoding.com/sketch -->
    <title>Page 1</title>
    <desc>Created with Sketch.</desc>
    <defs></defs>
    <g id="Page-1" stroke="none" stroke-width="1" fill="none" fill-rule="evenodd">
        <g id="Start-Screen-1" transform="translate(-759.000000, -384.000000)">
            <g id="Group-10" transform="translate(745.000000, 342.000000)">
                <g id="Group-2">
                    <g id="Page-1" transform="translate(14.158385, 42.000000)">
                        <path d="M245.137918,27.568078 C244.520707,27.568078 243.901107,27.4903434 243.293266,27.3328526 C241.406168,26.8434733 239.79065,25.6241599 238.802451,23.9432166 C236.918476,20.7393719 233.455366,18.74896 229.764225,18.74896 C226.610731,18.74896 223.651828,20.1590266 221.646579,22.6175004 C221.512994,22.7817907 221.386942,22.9457135 221.277428,23.0982425 C221.16038,23.2610626 221.041679,23.4343577 220.913606,23.6293375 C219.502417,25.7752188 217.157968,26.9417902 214.765745,26.941974 C213.403433,26.941974 212.02587,26.5637755 210.796041,25.7724622 L207.398345,23.5865192 C203.986134,21.3912038 202.998118,16.8460226 205.190606,13.4319452 C205.436094,13.0497038 205.705837,12.6527608 206.039708,12.1830449 C206.052387,12.1652192 206.065066,12.1473935 206.077928,12.1295679 C206.43293,11.6392697 206.777643,11.1916062 207.130991,10.7614009 C212.71015,3.92607905 220.958808,0.00608308859 229.764225,0.00608308859 C240.065538,0.00608308859 249.719138,5.53608724 254.957627,14.4380855 C255.946378,16.1182938 256.22733,18.1226722 255.738375,20.0101729 C255.24942,21.8974899 254.030615,23.5133787 252.350418,24.5018771 L248.865259,26.5529331 C247.726017,27.2233257 246.437572,27.568078 245.137918,27.568078 L245.137918,27.568078 Z" id="Fill-1" fill="#FEFEFE"></path>
                        <path d="M241.180874,32.1633182 C238.318071,32.1633182 235.597122,30.4805371 234.409922,27.6784135 C233.614474,25.800285 231.790769,24.5868523 229.764206,24.5868523 C227.956488,24.5868523 226.272248,25.574248 225.368389,27.1633064 C224.013978,29.5449645 221.529513,30.8813393 218.972651,30.8813393 C217.741352,30.8813393 216.493148,30.5713194 215.346005,29.91912 L211.833467,27.9211735 C208.306045,25.9149574 207.071806,21.4291339 209.076135,17.9005679 C213.300516,10.4637671 221.227614,5.84397534 229.764206,5.84397534 C239.332731,5.84397534 247.930511,11.5437829 251.667958,20.3652899 C252.428493,22.1603544 252.444847,24.1842124 251.713344,25.9914057 C250.98184,27.7984152 249.562566,29.241009 247.76771,30.0014489 L244.04478,31.5789298 C243.109132,31.9755053 242.136918,32.1633182 241.180874,32.1633182" id="Fill-6" fill="#FEFEFE"></path>
                        <path d="M74.0351576,241.406348 C80.6690332,241.406348 87.8791444,241.986509 96.0774555,243.180095 C105.824584,244.61883 115.181246,246.641585 126.235929,249.236784 C128.141586,249.683528 130.061942,250.139829 131.947754,250.589514 C127.367269,248.498029 122.834191,246.343326 118.446091,244.257722 L117.941701,244.017902 C117.886944,243.993644 117.832371,243.968468 117.777981,243.94274 C116.96912,243.559029 116.158421,243.175501 115.34956,242.793811 C115.257869,242.750257 115.167465,242.705417 115.078163,242.65874 C113.818566,242.061488 112.560072,241.466073 111.302313,240.87562 C108.359212,239.494589 105.919765,238.368264 103.661311,237.347789 C103.553267,237.305339 103.446142,237.260131 103.339568,237.212167 C103.062842,237.087387 102.786117,236.961689 102.509575,236.83599 C101.979828,236.595252 101.47948,236.367928 100.986299,236.151999 C100.942751,236.13307 100.899754,236.113591 100.856573,236.093743 C97.2391141,234.496048 93.9884177,233.139091 90.9216536,231.946057 C90.3992564,231.744093 89.8658342,231.541211 89.3311258,231.339983 C89.2684675,231.318299 89.2061767,231.295695 89.1442535,231.272356 C88.3028686,230.954618 87.4585438,230.650479 86.8172612,230.42095 C86.7356768,230.391914 86.6553787,230.361592 86.5758156,230.329984 C82.5553963,228.899703 78.9860798,227.838799 75.6846688,227.093245 C75.5714796,227.073765 75.458658,227.051529 75.3460201,227.026536 C74.6316056,226.868494 73.9012049,226.720375 73.1129234,226.574095 C73.0111267,226.55535 72.9098812,226.534217 72.809922,226.511245 C72.2520612,226.411091 71.7713749,226.331335 71.3173321,226.262972 C69.3909118,225.974453 67.5567333,225.827989 65.8719425,225.827989 C65.0061191,225.827989 64.1665717,225.866764 63.3714916,225.94358 C63.2671224,225.959752 63.1622019,225.973718 63.0567302,225.98548 C62.5201843,226.045205 61.9597511,226.133598 61.3430908,226.255805 C61.2100568,226.282268 61.0772066,226.304688 60.9445401,226.323616 C59.2845553,226.695566 57.8272452,227.281241 56.6086245,228.067225 C56.5941083,228.076597 56.5795922,228.085786 56.5650761,228.094974 C56.0983546,228.391395 55.6378806,228.733942 55.1910041,229.116735 C55.0557651,229.265589 54.9140949,229.409297 54.7659935,229.547492 C54.3815915,229.906027 54.0309992,230.270626 53.6940042,230.662424 C53.5653802,230.812012 53.4319787,230.955169 53.2941673,231.091894 C52.8151347,231.687492 52.3632969,232.33179 51.9471063,233.013025 C50.9267504,234.675224 50.025831,236.636967 49.2601506,238.858746 C49.240857,238.921411 49.2206447,238.983525 49.1995136,239.04564 C48.9676228,239.729264 48.7498808,240.424649 48.5525348,241.112316 L48.5288312,241.194094 L48.5319549,241.182884 C48.0025752,243.028117 46.9522682,244.626548 45.570295,245.836489 C45.9089437,245.717039 46.2494299,245.600161 46.5908347,245.48604 C51.7927575,243.737285 57.4996214,242.535246 63.541459,241.917044 C66.9183907,241.577805 70.4443425,241.406348 74.0351576,241.406348 L74.0351576,241.406348 Z M322.722529,245.543376 C322.60787,245.632872 322.48972,245.719795 322.368262,245.80341 L322.030348,246.036247 C321.586595,246.341673 321.167649,246.630375 320.760829,246.919629 C318.913053,248.229357 317.097066,249.561138 315.174504,250.971204 C312.80672,252.707646 310.36562,254.497749 307.804899,256.286381 C308.027787,256.254773 308.252879,256.222613 308.480543,256.189902 C308.58675,256.169871 308.693691,256.152045 308.801001,256.136793 L309.611883,256.021385 C310.21219,255.9363 310.81121,255.851398 311.413171,255.762821 L311.659026,255.726986 C313.649942,255.43277 315.632957,255.133225 317.622219,254.832761 C323.583759,253.932105 329.748157,253.000759 335.961799,252.245097 C341.894123,251.5306 349.734492,250.71117 357.846441,250.71117 C359.246973,250.71117 360.643646,250.735427 361.997873,250.783024 C362.004855,250.783391 362.012022,250.783575 362.019004,250.783943 C363.057919,250.823453 364.074232,250.877481 365.07015,250.945844 C363.89618,250.248253 362.86535,249.303676 362.060164,248.155114 C362.040135,248.126997 362.003385,248.074807 362.003385,248.074807 C361.610163,247.515043 361.175782,246.922202 360.675251,246.261733 C360.634458,246.207704 360.594401,246.153308 360.555079,246.098361 C358.280823,243.129926 355.962834,240.770688 353.659178,239.079269 C353.535883,238.998411 353.414057,238.913693 353.294253,238.824381 C353.234167,238.779724 353.081472,238.663949 353.080737,238.663398 C352.908014,238.542478 352.729226,238.42266 352.549153,238.306701 C352.539782,238.30082 352.521039,238.288691 352.521039,238.288691 C352.332697,238.168138 352.141047,238.050342 351.951419,237.938977 C351.913566,237.916741 351.876265,237.894321 351.838781,237.87135 C349.674773,236.613077 347.433224,235.93368 345.167788,235.848778 C345.04045,235.855394 344.912377,235.858886 344.78357,235.858886 C344.7674,235.858886 344.751781,235.858702 344.735795,235.858702 C344.613602,235.857783 344.491593,235.855761 344.369768,235.853556 C344.297738,235.852086 344.225709,235.850616 344.153496,235.850616 L344.162499,235.850065 C344.149453,235.850432 344.136223,235.850983 344.122993,235.851167 C343.90764,235.858334 343.596921,235.885532 343.268011,235.914568 L343.165663,235.923756 C343.089407,235.930372 343.013152,235.935885 342.93708,235.940296 C340.443611,236.21007 337.606533,237.076729 334.497691,238.518771 C334.460757,238.536964 334.42364,238.55479 334.386523,238.572432 L334.197262,238.661928 C333.850528,238.825667 333.523272,238.980401 333.230377,239.127968 C333.223394,239.13146 333.216412,239.134952 333.209429,239.138443 C333.134827,239.1763 333.05949,239.21967 332.983051,239.261569 C332.795811,239.365215 332.607836,239.467759 332.41931,239.565525 C332.27176,239.641973 332.122005,239.713276 331.970596,239.779249 C329.251668,241.226621 326.29056,243.072406 322.722529,245.543376 L322.722529,245.543376 Z M401.101228,294.365712 C397.366354,294.365528 393.917393,292.199616 392.291953,288.841037 C392.276334,288.809061 392.260899,288.776901 392.245648,288.744925 C391.974619,288.171012 391.663716,287.568614 391.295852,286.903735 C391.239992,286.802845 391.186705,286.701037 391.135807,286.598125 C390.021739,284.628847 388.74928,282.900675 387.350586,281.456611 C386.847114,280.935256 386.312039,280.437423 385.751238,279.967707 C385.605525,279.868287 385.462385,279.762987 385.322185,279.651623 C384.804014,279.240713 384.32884,278.892653 383.868917,278.587595 C383.73129,278.496445 383.597337,278.401069 383.466875,278.301465 C382.599582,277.754566 381.683595,277.264268 380.73729,276.841046 C379.185533,276.14566 377.467667,275.576893 375.620259,275.14632 C375.465359,275.122981 375.310091,275.09468 375.154824,275.061234 C374.486346,274.917159 373.795819,274.787601 373.102719,274.676604 C372.938632,274.650325 372.776014,274.618716 372.615418,274.581595 C370.317642,274.244377 367.854125,274.08027 365.103776,274.08027 C364.15306,274.08027 363.156224,274.100669 362.139359,274.141466 C362.080744,274.145325 362.022312,274.148633 361.963512,274.151389 C361.218595,274.184652 360.437296,274.230227 359.574964,274.290503 C359.525352,274.293995 359.475372,274.297119 359.42576,274.299508 C355.836048,274.560094 351.968323,275.04249 347.616422,275.772424 C347.531346,275.789882 347.445535,275.805686 347.359174,275.820388 C346.544984,275.95748 345.725097,276.101188 344.852291,276.259598 C344.793492,276.270256 344.73506,276.28018 344.676077,276.289368 C343.183119,276.562818 341.606373,276.866957 339.986077,277.193884 C337.724867,277.652206 335.316658,278.1686 332.434194,278.812897 C332.340298,278.83789 332.246035,278.860861 332.150486,278.882178 C331.292931,279.07385 330.435193,279.26589 329.575801,279.461053 C329.517185,279.474285 329.458753,279.486965 329.399953,279.498726 C327.17439,280.007401 324.899215,280.537026 322.696988,281.049377 C320.706623,281.512477 318.710195,281.977415 316.705865,282.437207 C308.834443,284.23852 300.427393,286.097536 291.748396,287.310418 C291.742332,287.311336 291.735901,287.312255 291.729837,287.313174 C286.612439,288.014808 282.230402,288.378672 277.939138,288.458244 C277.420967,288.466514 276.919333,288.470741 276.415127,288.470741 C271.360019,288.470741 266.808015,288.030796 262.498927,287.125361 C256.221523,285.807731 250.586138,283.451985 245.74914,280.122809 C240.592787,276.61409 235.986944,271.575303 232.777408,265.931545 C231.508072,263.71969 230.396944,261.391142 229.431529,258.914107 C226.89929,264.800441 223.685895,269.906672 219.851245,274.135585 C214.791911,279.780997 208.010669,284.217754 200.750762,286.632123 C195.013764,288.570895 188.831358,289.513451 181.852403,289.513451 C181.54297,289.513451 181.233905,289.511797 180.926494,289.508306 L180.864203,289.507203 C168.790818,289.266097 158.123844,286.722721 148.231922,284.128625 C148.205462,284.12201 148.17937,284.115578 148.15291,284.108778 C148.079595,284.090401 148.00683,284.070554 147.934433,284.049788 C140.526425,282.054047 133.281034,279.823264 126.272679,277.665438 C123.942011,276.947632 121.532149,276.205753 119.175757,275.491072 C118.424592,275.262462 117.678205,275.036977 116.93237,274.812226 C116.835167,274.787417 116.738148,274.760403 116.641863,274.731551 L116.12112,274.575163 C115.444741,274.372097 114.7702,274.169399 114.094373,273.96909 C113.993679,273.939319 113.894271,273.907527 113.795965,273.873897 C109.360825,272.559207 105.61511,271.503449 102.086218,270.574859 C101.889975,270.539576 101.694466,270.49639 101.500244,270.445118 L100.77407,270.251792 C100.170272,270.090626 99.6000998,269.93828 99.0385641,269.797329 C98.9459548,269.77399 98.854448,269.749181 98.7634925,269.722718 C96.2360305,269.091652 93.8950734,268.546958 91.6156721,268.059417 C90.0628127,267.728999 88.5224482,267.422103 87.0372083,267.146999 C86.9223654,267.131746 86.8077063,267.113921 86.6932309,267.093155 C85.7719155,266.926108 85.0027438,266.789199 84.2425759,266.664603 C84.1444541,266.648431 84.0468836,266.630422 83.9504156,266.610575 C79.8351821,265.938896 76.0661308,265.513836 72.4484885,265.312975 C72.3632291,265.311505 72.2781535,265.308565 72.1927104,265.304338 C71.3952415,265.263174 70.5793978,265.239468 69.8164736,265.220172 C69.6645135,265.216129 69.5134721,265.207859 69.3639008,265.194628 C68.8435248,265.184704 68.3260887,265.179559 67.8204126,265.179559 C66.9255569,265.179559 66.0351112,265.195547 65.1738815,265.226787 C63.0030756,265.301582 60.8726944,265.488476 58.8231626,265.783059 C58.6938035,265.810257 58.563342,265.833963 58.4319618,265.853994 C57.7695481,265.955619 56.9917403,266.079296 56.244986,266.226496 C56.1385956,266.247262 56.0320214,266.265822 55.9258147,266.281994 C52.5801202,266.956246 49.430853,267.945296 46.5498588,269.226356 C46.3668452,269.330737 46.1788704,269.427768 45.9859344,269.516896 C45.2897109,269.838493 44.6765419,270.141346 44.1111474,270.442729 C43.9391587,270.53443 43.7651488,270.61878 43.5894852,270.695596 C43.1387499,270.943869 42.6983045,271.198207 42.2749477,271.454933 C42.2587778,271.464489 42.2427917,271.474229 42.2268056,271.483785 C39.9459342,272.842396 37.7269862,274.505698 35.6276585,276.429585 C35.5537915,276.504196 35.4784546,276.57752 35.4012802,276.64919 C34.8939503,277.12056 34.376698,277.646509 33.8475021,278.189182 C33.7084044,278.331787 33.5650805,278.467226 33.4177141,278.596048 C31.1397828,280.980095 29.0024191,283.703566 27.0541327,286.704712 C26.9775096,286.844745 26.8961089,286.982572 26.8099308,287.117827 L26.6969255,287.295165 C26.2886361,287.936338 25.9029478,288.542043 25.5591541,289.12441 C25.5440868,289.149771 25.5290194,289.174947 25.5137682,289.200124 C23.7552942,292.132908 20.5499837,293.951495 17.1274823,293.951495 C15.3873831,293.951495 13.6735599,293.483984 12.1714152,292.599683 C7.83476453,290.05888 6.14960615,284.58952 8.26804372,280.047831 C8.33658195,279.896037 8.41044888,279.745713 8.49019577,279.596859 C14.0471208,268.618996 21.6917974,259.580089 30.6078306,253.44732 C33.4428877,251.480431 36.4651846,249.745826 39.6453215,248.257841 C39.4748028,248.26703 39.3031817,248.27144 39.131193,248.27144 C38.2262311,248.27144 37.325128,248.145742 36.4526897,247.897101 C34.0779228,247.218439 32.0678969,245.688187 30.7853317,243.58641 C29.5117702,241.498968 29.0665474,239.028549 29.5321663,236.629984 C29.5340038,236.620428 29.5448449,236.565113 29.5448449,236.565113 C30.5580347,231.453553 32.0263697,227.033887 34.0338232,223.053431 C36.5489739,218.037063 40.0866857,213.702483 44.2585138,210.531533 C48.2045149,207.49547 53.0896551,205.259909 58.3898834,204.064853 C58.667895,204.001453 58.9459066,203.940992 59.224102,203.884575 C62.4646922,203.219512 65.8370302,202.894423 69.5176984,202.894423 C70.8765192,202.894423 72.3022246,202.940917 73.7553085,203.03225 C73.7665172,203.032985 73.7777258,203.03372 73.7889345,203.034455 C83.2584184,203.673791 91.8799026,205.91413 99.0646564,208.021419 C99.0723739,208.023808 99.0800913,208.026014 99.0879925,208.028403 C106.972094,210.36908 114.675202,213.152092 121.825044,215.810875 C124.077434,216.649601 126.290502,217.484467 128.364289,218.267695 L129.267229,218.608772 C133.08332,220.050263 137.026014,221.539718 140.867462,222.94225 C140.959153,222.971653 141.050843,223.00271 141.142166,223.035972 C141.467953,223.154137 141.794106,223.274138 142.12026,223.393773 C142.529652,223.544464 142.938676,223.694971 143.346966,223.841252 L143.45501,223.879293 C143.560114,223.914209 143.663748,223.95133 143.766647,223.990841 C148.473919,225.669212 152.100381,226.876764 155.467758,227.886947 C155.53795,227.905875 155.608142,227.925906 155.678334,227.946856 C156.41535,228.167931 157.174415,228.386985 157.999079,228.61633 C158.084889,228.64022 158.170149,228.66558 158.254673,228.692594 C160.181645,229.227732 161.95243,229.673007 163.660189,230.05194 C164.98961,230.343032 166.260232,230.584689 167.455333,230.774156 C156.854692,222.802217 147.81371,212.845012 140.890798,201.43529 C131.043343,185.205466 125.838113,166.543264 125.838113,147.46611 C125.838113,133.662968 128.496588,120.250521 133.739487,107.601087 C138.802128,95.3870036 146.062402,84.3672409 155.318738,74.847592 C164.562211,65.3411746 175.359095,57.7799616 187.409144,52.3741859 C197.690981,47.7615612 208.530862,44.8855621 219.7206,43.7934175 L219.7206,42.5184218 C215.825313,39.4939366 213.436949,34.7956751 213.436949,29.6251249 C213.436949,20.622237 220.761352,13.2979034 229.764298,13.2979034 C238.767061,13.2979034 246.091463,20.622237 246.091463,29.6251249 C246.091463,34.7953076 243.703467,39.4930178 239.80818,42.5176868 L239.80818,43.7469237 C251.042937,44.7922069 261.930041,47.6343924 272.262408,52.2269862 C284.36942,57.6085043 295.221061,65.1621827 304.515616,74.6785237 C313.821012,84.2060747 321.120977,95.2455008 326.213018,107.490641 C331.486235,120.172051 334.159961,133.621804 334.159961,147.46611 C334.159961,166.715457 328.866531,185.522102 318.852049,201.853182 C311.024726,214.617473 300.550872,225.531568 288.2105,233.862042 C289.276426,233.355021 290.446353,232.762546 291.764566,232.063302 C291.835125,232.024159 291.906603,231.986118 291.979,231.949181 C292.470712,231.684552 292.9672,231.410367 293.463689,231.136183 L294.04213,230.817158 C294.139884,230.763313 294.238741,230.711858 294.337965,230.662975 C296.122715,229.675396 297.913345,228.654186 299.802832,227.576559 C301.917411,226.370478 304.103835,225.123599 306.332338,223.898221 C311.1607,221.247891 316.943452,218.229654 323.263853,215.918013 C329.83654,213.532312 335.783012,212.375664 341.460292,212.375664 C342.580975,212.375664 343.705884,212.42179 344.803782,212.51294 C348.863891,212.851444 352.92988,213.886069 356.564427,215.505633 C360.036908,217.045625 363.32564,219.166881 366.327725,221.805449 C371.029852,225.939905 374.945534,231.039152 378.651743,237.854443 C378.699518,237.942285 378.745639,238.031413 378.789739,238.121277 C379.925305,240.357205 380.158482,242.900213 379.443516,245.315318 C378.702458,247.817161 377.031999,249.882184 374.739368,251.129798 C374.182059,251.432283 373.598289,251.678902 372.997983,251.867634 C374.016685,252.039826 375.017564,252.231682 376.002456,252.443569 C381.295702,253.589558 386.102198,255.337026 390.297913,257.639295 C395.029072,260.217771 399.298471,263.736965 402.646554,267.817392 C405.753191,271.568503 408.287636,275.995153 410.18043,280.974766 C410.231328,281.101567 410.278735,281.229287 410.322284,281.357926 C412.068631,286.345442 409.515628,291.860928 404.547066,293.7363 C403.444206,294.153274 402.283467,294.365712 401.101779,294.365712 L401.101228,294.365712 Z" id="Fill-10" fill="#FEFEFE"></path>
                        <g id="Group-14" transform="translate(0.000000, 5.846824)" fill-opacity="0.5" fill="#FEFEFE">
                            <path d="M343.590931,237.416997 C343.664614,237.411667 343.738665,237.405603 343.812532,237.399171 L343.908816,237.390718 C344.03156,237.379875 344.18646,237.366093 344.295974,237.357455 C344.426987,237.359661 344.558183,237.361682 344.68938,237.362417 C344.720985,237.362601 344.752773,237.362785 344.784378,237.362785 C344.88838,237.362785 344.992749,237.361682 345.096383,237.359477 C345.788013,237.411851 346.497099,237.595437 347.216107,237.907662 C344.398138,238.105031 341.71743,238.358266 339.248584,238.623446 C340.881925,237.972717 342.336295,237.568423 343.590931,237.416997 M64.236286,227.398964 C64.7509658,227.354308 65.2992716,227.331888 65.8716485,227.331888 C67.1933521,227.331888 68.6616872,227.451338 70.2356776,227.686748 C70.5754288,227.738019 70.9508272,227.800134 71.3740002,227.875296 C71.5059317,227.903412 71.6382307,227.929875 71.7716322,227.954684 C72.2287987,228.039402 72.6631803,228.124855 73.0846996,228.212513 C69.5774902,228.240263 66.1287128,228.422379 62.819768,228.755002 C62.8109481,228.755737 62.8021282,228.756656 62.793492,228.757575 C61.7644998,228.862875 60.7437764,228.983979 59.7320566,229.12052 C59.7476752,229.105635 59.7634776,229.090933 59.77928,229.076048 C59.9222364,228.942631 60.0624366,228.806458 60.199513,228.668079 C60.302596,228.589058 60.4043927,228.517571 60.5045357,228.453987 C60.533568,228.43561 60.5624165,228.417049 60.5912651,228.398488 C61.0405304,228.108867 61.6299959,227.873642 62.3482691,227.697222 C62.4899393,227.673332 62.6314257,227.647421 62.7734634,227.619304 C63.1775265,227.53918 63.5461262,227.480374 63.8691563,227.444355 C63.9919003,227.430756 64.1142769,227.415503 64.236286,227.398964 M229.764372,0.100393502 C226.574128,0.100393502 223.471533,0.728702826 220.542581,1.96767956 C217.721856,3.16126513 215.191454,4.86646613 213.021934,7.03623747 C210.852599,9.20582503 209.147595,11.7361529 207.954332,14.5570211 C206.715315,17.4859459 206.087079,20.5883495 206.087079,23.7784114 C206.087079,26.7444578 206.627116,29.6281752 207.673748,32.3281227 C199.686196,33.9509948 191.90573,36.4535734 184.401069,39.820422 C177.980893,42.700464 171.797753,46.2150635 166.023453,50.2662712 C160.301706,54.2805411 154.927243,58.859536 150.049453,63.876087 C145.167988,68.8964972 140.739095,74.4007736 136.886255,80.2363871 C132.992438,86.133931 129.649316,92.4263966 126.949866,98.939386 C121.335244,112.485801 118.488243,126.845398 118.488243,141.619213 C118.488243,151.972809 119.908987,162.23103 122.710969,172.109214 C125.427876,181.687301 129.430288,190.869732 134.607405,199.401986 C136.730803,202.9017 139.041442,206.27498 141.523334,209.506023 C138.346321,208.333938 135.167287,207.133002 131.837395,205.875097 L131.353952,205.692613 C131.315365,205.677544 131.27641,205.662843 131.237639,205.648141 L131.032024,205.570958 L130.939783,205.536041 C128.958238,204.78773 126.657522,203.919785 124.393188,203.076465 C117.115457,200.370269 109.271597,197.537272 101.179676,195.134664 C101.164058,195.13007 101.148623,195.125476 101.13282,195.120882 C94.0088873,193.031418 84.5190073,190.54446 74.2840267,189.853485 C74.2614256,189.852015 74.2390083,189.850544 74.216591,189.849074 C72.610077,189.748001 71.0291041,189.696913 69.5175881,189.696913 C65.3396963,189.696913 61.4875907,190.07015 57.7420593,190.83794 C57.426563,190.902076 57.1000417,190.972644 56.7707642,191.047989 C50.4393388,192.475698 44.5667337,195.174359 39.7815528,198.854903 C34.7427987,202.69257 30.4875487,207.891788 27.4711318,213.896653 L27.470948,213.896653 C25.1610444,218.477302 23.4819498,223.508187 22.3377472,229.276725 L22.3377472,229.276725 L22.3303973,229.313295 C22.3259873,229.336266 22.3213936,229.359238 22.3167999,229.382209 C21.5011399,233.584843 22.2806014,237.912624 24.5114931,241.568727 C24.7022242,241.881503 24.9021427,242.186745 25.1108811,242.48482 C20.3273539,245.954396 15.9072814,250.144901 11.9539303,254.960959 C8.16981172,259.571011 4.80574242,264.760857 1.95322921,270.389178 C1.84426629,270.597022 1.74044833,270.807438 1.64195908,271.019325 C-0.151610967,274.81546 -0.489524636,279.105752 0.695653811,283.148139 C1.92842314,287.352978 4.68906206,290.888344 8.46932193,293.103139 C11.0939869,294.642028 14.0872515,295.455394 17.1275558,295.455394 C20.0533847,295.455394 22.9492626,294.699181 25.5018981,293.268716 C28.0933045,291.816566 30.2677854,289.707255 31.8008,287.161123 C31.8301997,287.112607 31.859232,287.063908 31.8880805,287.015025 C32.1695834,286.538143 32.5238507,285.982239 32.8986978,285.39344 L33.0098657,285.218675 C33.1239736,285.039683 33.234039,284.858302 33.3396945,284.675267 C34.9530071,282.212015 36.7017425,279.977924 38.5500697,278.018753 C38.739147,277.844172 38.9245493,277.664077 39.1062767,277.477735 C39.5709769,277.001587 40.0200584,276.544367 40.4064817,276.185281 C40.5053385,276.093212 40.6030927,275.999857 40.6991932,275.905583 C42.3973978,274.361181 44.1753492,273.032157 45.9887641,271.951773 C46.0200014,271.933213 46.0512386,271.914468 46.0822921,271.89554 C46.3489113,271.734006 46.6236155,271.573759 46.9041996,271.416084 C47.1276379,271.310784 47.3492387,271.199787 47.5695533,271.082174 C48.0101824,270.847133 48.4995049,270.606026 49.0652668,270.344706 C49.3144299,270.229666 49.5597343,270.10801 49.8006287,269.979922 C52.0807651,268.990138 54.5780922,268.214261 57.2417119,267.668832 C57.3822796,267.645309 57.523031,267.619765 57.6635987,267.592016 C58.2764002,267.471279 58.958475,267.363223 59.5450005,267.273359 C59.7160705,267.24708 59.8860379,267.218044 60.0554541,267.185885 C61.7856309,266.944227 63.5852647,266.78986 65.4139307,266.726827 C65.4227506,266.726644 65.4319381,266.726276 65.4409418,266.725909 C66.2141559,266.697792 67.0152997,266.683641 67.8219561,266.683641 C68.2149943,266.683641 68.6163013,266.686949 69.0203644,266.693565 C69.2217529,266.70698 69.4247951,266.716352 69.6282048,266.721498 C70.3428031,266.739875 71.102236,266.761744 71.8146293,266.798498 C71.9296559,266.804378 72.0448663,266.808973 72.1597092,266.81228 C75.4442153,266.999174 78.8832541,267.388399 82.6469766,267.99925 C82.7812968,268.024978 82.9158008,268.049052 83.051591,268.071288 C83.8316038,268.199376 84.6638012,268.349148 85.3828094,268.479441 C85.5393632,268.507742 85.6961008,268.533653 85.8532058,268.556808 C87.2261754,268.812432 88.6504107,269.097092 90.0939397,269.404171 C92.2561094,269.866904 94.4759762,270.38293 96.8674642,270.978896 C96.9936995,271.014179 97.1203023,271.047809 97.2480076,271.079785 C97.7555212,271.207322 98.298682,271.352316 98.8738151,271.505764 C99.1229782,271.572289 99.3723251,271.638813 99.6214882,271.704787 C99.8963761,271.777376 100.172366,271.841879 100.449459,271.898296 C103.80085,272.783332 107.371636,273.790391 111.581684,275.037638 C111.722068,275.083764 111.863003,275.127869 112.005776,275.170136 C112.675907,275.368607 113.344936,275.569652 114.015618,275.771064 L114.529196,275.925246 C114.664067,275.965676 114.799306,276.004268 114.934912,276.040654 C115.63426,276.251622 116.333974,276.463141 117.034056,276.67613 C119.38218,277.388239 121.782488,278.127361 124.103784,278.842042 C131.159914,281.014754 138.454733,283.26079 145.972807,285.287221 C146.119622,285.328569 146.266988,285.367712 146.415089,285.40465 C156.278714,287.990109 167.863879,290.752905 180.717461,291.009632 C180.758253,291.010551 180.799046,291.011102 180.839654,291.011654 C181.175914,291.015513 181.514195,291.017534 181.852476,291.017534 C189.639926,291.017534 196.587644,289.949831 203.091242,287.753597 C211.528793,284.943204 219.414181,279.782577 225.306814,273.214457 C226.713594,271.662152 228.045771,270.010244 229.299488,268.264614 C232.711148,273.021866 236.896941,277.141436 241.603477,280.346015 C247.241068,284.221539 253.763225,286.955668 260.989689,288.472872 C265.79986,289.483423 270.846699,289.974824 276.416486,289.974824 C276.948439,289.974824 277.494539,289.970413 278.040273,289.961592 C278.052033,289.961408 278.063609,289.961225 278.075553,289.961041 C282.662101,289.875955 287.318291,289.490774 292.728401,288.748895 C292.740712,288.747057 292.753023,288.745403 292.765518,288.743749 C301.735389,287.490254 310.31847,285.59283 318.341117,283.756785 C320.374296,283.290377 322.410965,282.816434 324.380566,282.357928 C326.546962,281.853848 328.784285,281.333227 330.967954,280.834108 C331.0477,280.817385 331.127264,280.799927 331.206827,280.781734 C332.052622,280.589511 332.896763,280.400779 333.74072,280.212047 L333.755052,280.208739 C333.888821,280.178785 334.022223,280.147176 334.154338,280.11373 C336.923246,279.495345 339.249319,278.996961 341.44438,278.55187 C342.995402,278.23891 344.503059,277.947818 345.929316,277.68613 C346.007592,277.673266 346.086053,277.659667 346.16433,277.645517 C347.005164,277.492988 347.795099,277.354425 348.579338,277.222478 C348.702082,277.201712 348.823907,277.17966 348.945549,277.156137 C352.994082,276.479864 356.580303,276.032017 359.88888,275.789257 C359.955213,275.785398 360.021363,275.781355 360.087696,275.776577 C360.886819,275.720711 361.608767,275.678627 362.294701,275.647754 C362.368016,275.644446 362.440964,275.640587 362.514096,275.63636 C363.405645,275.601628 364.276062,275.58417 365.104217,275.58417 C367.368183,275.58417 369.457405,275.715933 371.325209,275.976151 C371.528435,276.017499 371.733315,276.054988 371.938929,276.087883 C372.504691,276.178481 373.065859,276.283782 373.606999,276.400292 C373.795709,276.440905 373.984051,276.477659 374.172577,276.510737 C375.474069,276.82627 376.667516,277.225602 377.72701,277.70028 C377.730501,277.70175 377.733809,277.703404 377.737116,277.704874 C378.292037,277.952964 378.830053,278.23505 379.342528,278.546173 C379.494672,278.655516 379.649388,278.76247 379.806125,278.866484 C380.087077,279.052827 380.406248,279.287501 380.755003,279.564074 C380.91266,279.689222 381.072705,279.810877 381.233852,279.92849 C381.52197,280.179336 381.796307,280.439554 382.053738,280.706021 C382.059802,280.712453 382.065866,280.718701 382.071929,280.724765 C383.004821,281.687903 383.874319,282.866604 384.659845,284.232565 C384.726178,284.36102 384.794349,284.488741 384.864357,284.615358 C385.156517,285.143329 385.397595,285.609369 385.601189,286.040126 C385.634631,286.110878 385.668624,286.181445 385.703169,286.251462 C387.111235,289.13573 389.290309,291.556348 392.01622,293.260813 C394.745438,294.967485 397.887171,295.869611 401.101853,295.869611 C403.173435,295.869611 405.207348,295.497845 407.147182,294.76497 C415.849148,291.479164 420.321037,281.813418 417.257581,273.076629 C417.185735,272.868234 417.109112,272.661493 417.027711,272.455854 C414.851577,266.748328 411.920603,261.64706 408.314169,257.290059 C404.371475,252.489989 399.354955,248.355349 393.804645,245.332151 C391.472508,244.054398 388.987492,242.928256 386.365767,241.959789 C386.409131,241.825637 386.450842,241.690566 386.491083,241.554944 C387.741492,237.33136 387.33651,232.884496 385.356436,228.972402 C385.276689,228.811971 385.194186,228.653194 385.108559,228.495703 C381.033566,221.002301 376.478255,215.095936 371.181885,210.439023 C367.623226,207.311443 363.712872,204.790854 359.555744,202.944151 C355.113622,200.964949 350.356738,199.752619 345.416841,199.340974 C344.113144,199.232733 342.783723,199.17797 341.46055,199.17797 C335.775736,199.17797 329.92518,200.15875 323.655311,202.169377 C324.151432,201.403056 324.639468,200.628833 325.117398,199.849465 C330.379958,191.267594 334.449622,182.021395 337.213568,172.36741 C340.064428,162.409103 341.509978,152.063959 341.509978,141.619213 C341.509978,126.80111 338.646624,112.401818 332.999294,98.8212219 C330.284409,92.2922445 326.922728,85.98618 323.007597,80.0781612 C319.133258,74.2315215 314.680662,68.7195268 309.773288,63.6952574 C304.869222,58.6742959 299.466829,54.0949335 293.716417,50.0845228 C287.911982,46.036623 281.698156,42.5302931 275.247478,39.6629312 C267.712867,36.3139083 259.902633,33.8339334 251.888989,32.2389943 C252.913204,29.5645908 253.441297,26.7119305 253.441297,23.7784114 C253.441297,20.5877982 252.812877,17.4848433 251.573309,14.5555509 C250.379862,11.7350503 248.674675,9.20490618 246.505155,7.03550239 C244.335819,4.86628236 241.805968,3.16126513 238.985611,1.96786333 C236.056842,0.728702826 232.954247,0.100393502 229.764372,0.100393502 M229.764372,14.8019863 C234.720806,14.8019863 238.741409,18.8230558 238.741409,23.7784114 C238.741409,27.7981944 236.099104,31.2023482 232.45831,32.3477861 L232.45831,44.8272332 C284.788073,46.1325509 326.81009,88.9672955 326.81009,141.619213 C326.81009,178.666308 306.003685,210.852321 275.440965,227.131211 C275.547356,227.645767 275.658891,228.153523 275.777776,228.650621 C276.306054,230.865967 276.982248,232.918677 277.7279,234.441211 C277.818856,234.629575 277.909076,234.805994 277.997827,234.972306 L278.007382,234.965874 C278.24699,235.410046 278.475206,235.793941 278.685414,236.095507 L278.681372,236.099367 C279.043356,236.619987 279.351319,236.947281 279.559139,237.133624 C279.771185,237.32015 280.003259,237.478927 280.463733,237.595989 C280.758282,237.670599 281.144338,237.715255 281.604077,237.715255 C281.855077,237.715255 282.12776,237.702024 282.419369,237.672988 C282.50518,237.664535 282.593012,237.65406 282.681579,237.643034 L282.678822,237.630905 C283.238153,237.56144 283.846728,237.439049 284.49187,237.278067 L284.495912,237.290012 C285.725558,236.978522 287.082358,236.511746 288.457716,235.945551 C290.674826,235.039382 292.98032,233.894863 295.311355,232.655886 L295.311171,232.655518 C295.325871,232.64633 295.340571,232.639163 295.356924,232.631812 C296.093389,232.237074 296.841062,231.820284 297.584876,231.410845 L297.589286,231.417828 C301.581592,229.216265 305.656401,226.811635 309.873615,224.492643 C314.888665,221.739953 320.111903,219.051032 325.788448,216.974799 C330.637574,215.214651 335.941844,213.879563 341.460366,213.879563 C342.366614,213.879563 343.279293,213.915582 344.196015,213.991663 C347.419884,214.260518 350.636403,215.064695 353.573441,216.373321 C356.515807,217.678271 359.169504,219.453304 361.475917,221.480286 C366.105463,225.55079 369.464571,230.498795 372.194891,235.519756 L372.200404,235.534458 C372.84187,236.711504 372.4051,238.184604 371.226352,238.826328 C370.857201,239.026454 370.459386,239.121646 370.067082,239.121646 C369.292582,239.121646 368.540132,238.750247 368.075431,238.084265 C368.056138,238.056516 368.036293,238.029318 368.016999,238.001753 C367.533924,237.314086 367.036333,236.638915 366.533046,235.974771 L366.535802,235.972933 C363.918119,232.526879 360.988064,229.430908 357.685183,227.072589 L357.680038,227.078837 C357.551965,226.983828 357.426098,226.883306 357.29435,226.79381 C357.029568,226.608386 356.76203,226.429394 356.492471,226.256466 C356.490082,226.254996 356.487694,226.253526 356.485305,226.252056 C356.217583,226.080599 355.948024,225.915022 355.676995,225.75551 L355.67773,225.754407 C352.257985,223.735143 348.546263,222.661192 344.784194,222.642264 L344.782724,222.661192 C344.572148,222.659722 344.362675,222.652922 344.152099,222.652922 C344.064635,222.652922 343.976987,222.654209 343.888971,222.657333 C343.43401,222.672034 342.978681,222.714118 342.521882,222.754363 L342.521882,222.747564 C338.741438,223.096543 334.945927,224.345627 331.243025,226.079128 L331.24376,226.080782 C330.803315,226.289177 330.361032,226.495919 329.922424,226.71681 C329.626405,226.864929 329.333877,227.038591 329.037858,227.192039 L329.02959,227.173662 C325.352964,229.089831 321.762333,231.40864 318.188606,233.895782 L318.194854,233.905889 C317.627989,234.296767 317.06333,234.682501 316.500508,235.082935 C312.065,238.226871 307.660363,241.604378 302.872058,244.916647 C302.850192,244.929327 302.832001,244.943845 302.808114,244.960384 L302.808114,244.9602 C300.426181,246.597774 297.945942,248.22377 295.199819,249.747406 C292.416396,251.262589 289.382522,252.73771 285.57911,253.675488 C283.907366,254.074269 282.064551,254.356907 280.061691,254.356907 C279.787538,254.356907 279.510262,254.351578 279.230229,254.340735 C276.918304,254.260428 274.401683,253.730252 272.106112,252.708491 C269.7997,251.699594 267.78214,250.253693 266.151922,248.710944 C265.060823,247.674849 264.126829,246.59759 263.303452,245.514818 C263.264129,245.463179 263.225358,245.411355 263.186588,245.359716 C262.822398,244.874196 262.477869,244.387941 262.154839,243.903891 C260.02997,240.682588 258.656817,237.536999 257.510226,234.474289 C255.819188,234.974511 254.108672,235.428974 252.380516,235.837862 C252.488193,237.125538 252.638867,238.386016 252.83658,239.610658 L252.84687,239.608453 C252.961897,240.335998 253.093461,241.048842 253.245421,241.748821 L253.239541,241.750475 C253.717104,243.950936 254.365552,246.004381 255.22274,247.835464 C255.717207,248.897654 256.274149,249.877516 256.900181,250.783501 L256.92076,250.767329 C257.258674,251.260752 257.62415,251.730651 258.009838,252.18199 L257.988891,252.202205 C258.626682,252.949413 259.325662,253.638367 260.093364,254.273108 C261.632074,255.549941 263.489589,256.611764 265.607843,257.451409 L265.608945,257.448101 C266.245083,257.702071 266.913928,257.925168 267.59931,258.138892 L267.596554,258.149734 C267.699086,258.181527 267.800882,258.214054 267.904516,258.244927 C271.265462,259.246106 275.02698,259.760294 278.975921,259.954171 L278.976104,259.946637 C279.780188,259.985228 280.589968,260.014264 281.408752,260.028965 L281.408752,260.033927 C281.913693,260.042564 282.420839,260.046791 282.929823,260.046791 C285.030069,260.046791 287.162104,259.975305 289.298366,259.851627 C290.894038,259.757537 292.498715,259.634963 294.110374,259.491071 L294.10872,259.478575 C294.974911,259.401943 295.843123,259.314284 296.713173,259.224605 L296.715561,259.241144 C301.050191,258.795502 305.433146,258.208541 309.84201,257.573616 L309.840724,257.566816 C310.723452,257.44075 311.600668,257.318359 312.483396,257.188434 L312.483396,257.188618 C312.571228,257.175754 312.658876,257.163074 312.746524,257.150026 C320.6784,255.978309 328.701598,254.686223 336.849011,253.695519 C343.74087,252.865063 350.737649,252.215253 357.846882,252.215253 C359.140288,252.215253 360.438288,252.236754 361.739045,252.282512 C365.960852,252.443495 370.224739,252.873149 374.457388,253.783177 C378.679195,254.697249 382.886487,256.108234 386.773689,258.243089 C390.662728,260.361405 394.180962,263.238507 396.971736,266.641926 C399.778863,270.027151 401.869738,273.920317 403.351854,277.850236 L403.361042,277.870083 L403.359756,277.870635 L403.364533,277.883131 C403.838053,279.138831 403.205591,280.53879 401.952058,281.012181 C401.672025,281.118033 401.384826,281.168018 401.101853,281.168018 C400.181824,281.168018 399.309385,280.638577 398.89981,279.774675 C398.89687,279.76861 398.89393,279.762546 398.89099,279.756298 L398.890622,279.756482 C398.525146,278.983178 398.134129,278.233948 397.726391,277.497398 L397.734844,277.493171 C396.308587,274.906242 394.620121,272.550128 392.629205,270.495029 C391.77312,269.607972 390.86283,268.785418 389.90697,268.025713 L389.889697,268.045744 C389.253743,267.541296 388.60309,267.06037 387.93057,266.61436 L387.943616,266.596535 C386.610152,265.711866 385.203741,264.939665 383.737978,264.283974 C381.49551,263.27912 379.139118,262.538895 376.708492,262.009821 L376.70353,262.028566 C375.897793,261.854903 375.086175,261.703109 374.265554,261.57153 L374.269597,261.551867 C371.281109,261.075535 368.203137,260.882577 365.104217,260.882577 C363.986106,260.882577 362.865056,260.907753 361.744741,260.953696 C361.708175,260.95535 361.671609,260.957739 361.635043,260.959209 L361.635043,260.961046 C360.779693,260.999454 359.922506,261.050726 359.061828,261.110819 L359.061644,261.108981 C354.770195,261.413672 350.458167,261.989239 346.138054,262.720276 L346.138789,262.72487 C345.270577,262.871151 344.406223,263.022945 343.539849,263.180068 L343.539481,263.177679 C341.871044,263.482002 340.201688,263.804702 338.532332,264.141552 C335.874041,264.680549 333.213178,265.258322 330.546618,265.855942 L330.547537,265.861455 C329.681346,266.055148 328.814971,266.248842 327.946759,266.446394 L327.946392,266.444005 C323.676258,267.418721 319.387566,268.433131 315.062124,269.425672 C307.146785,271.237092 299.116237,273.011758 290.731421,274.183475 C286.533317,274.759226 282.243889,275.179508 277.80287,275.261837 C277.342579,275.269372 276.880635,275.273231 276.41667,275.273231 C272.408378,275.273231 268.266869,274.979383 264.009781,274.084975 C259.28193,273.09225 254.341849,271.269987 249.900829,268.210218 C245.448784,265.185182 241.727691,260.957371 239.161826,256.442696 C236.561232,251.915156 234.962068,247.177568 233.898348,242.560533 C233.580095,241.163146 233.310536,239.773111 233.081034,238.390426 C232.057187,238.422402 231.029848,238.440595 229.9981,238.440595 C228.821558,238.440595 227.65016,238.418359 226.483724,238.376643 C225.759938,241.4592 224.85516,244.555907 223.69295,247.652797 C221.6425,253.077685 218.725675,258.592252 214.393985,263.364573 C210.108417,268.153433 204.334852,271.849414 198.419066,273.814282 C192.782945,275.722181 187.167221,276.315941 181.852476,276.315941 C181.571341,276.315941 181.290389,276.314287 181.011091,276.31098 C169.862697,276.08825 159.763323,273.70843 149.973197,271.139143 L149.973014,271.140062 C149.965664,271.138224 149.956476,271.13657 149.949126,271.132895 C140.165983,268.500942 130.715426,265.463042 121.308784,262.60983 C120.457293,262.350898 119.606169,262.093804 118.755413,261.837629 L118.75376,261.843877 C117.894735,261.586048 117.039385,261.328402 116.182382,261.074432 L116.184035,261.068184 C111.915188,259.800356 107.652221,258.583431 103.385027,257.469234 L103.380066,257.491838 C102.530228,257.267087 101.680391,257.034986 100.828716,256.821078 L100.829819,256.815565 C98.2736922,256.174392 95.7153605,255.572545 93.1526188,255.024359 C91.4397144,254.659944 89.7235025,254.318315 88.0058206,254.004436 L88.0043507,254.013441 C87.1473472,253.858156 86.29016,253.704708 85.4327891,253.56394 L85.4337078,253.558243 C81.1451993,252.849259 76.8504434,252.336173 72.5703873,252.111055 L72.5702036,252.116384 C71.7150376,252.07228 70.8595041,252.046736 70.0043381,252.024867 L70.0041544,252.00943 C69.2761425,251.991421 68.5486818,251.982049 67.8219561,251.982049 C66.8490073,251.982049 65.8771609,251.998772 64.9071521,252.034055 C62.3594778,252.121897 59.8215422,252.348853 57.3164976,252.728338 L57.3188863,252.741386 C56.4837489,252.86929 55.6502653,253.004728 54.8243154,253.167365 L54.8226616,253.160197 C50.6951169,253.965293 46.6813126,255.210335 42.8902115,256.968645 L42.9045439,256.996578 C42.144376,257.347579 41.3932117,257.714935 40.6528886,258.109672 L40.6398424,258.086885 C39.9052156,258.477764 39.1799599,258.888673 38.4653616,259.321635 C35.5713212,261.045764 32.8806905,263.099393 30.3927345,265.41177 L30.3982469,265.417283 C29.7769929,265.994872 29.1810962,266.599842 28.587037,267.208488 L28.5679272,267.190846 C25.5919349,270.23132 22.9325415,273.649072 20.5939731,277.314179 L20.6097754,277.323552 C20.1419515,278.058448 19.6721064,278.791322 19.2296397,279.540919 L19.229456,279.540736 C19.2266998,279.545697 19.223576,279.550475 19.2206361,279.555437 C18.768247,280.325433 17.9588344,280.753801 17.127372,280.753801 C16.7097115,280.753801 16.286171,280.64556 15.8997477,280.418053 C14.7924786,279.769345 14.3920904,278.374716 14.9604249,277.243244 L14.9747572,277.21476 L14.9732873,277.213841 L14.9824747,277.199323 C19.5295174,268.173832 26.0559001,259.648745 34.7863472,253.647923 C39.1176691,250.641263 43.9188362,248.283312 48.9212079,246.610822 C53.9232122,244.929327 59.1080464,243.912896 64.2893893,243.382903 C67.5478032,243.055425 70.7977646,242.910247 74.0352311,242.910247 C81.1174533,242.910431 88.1353634,243.605265 95.0187696,244.607546 C105.061365,246.089834 114.877399,248.274123 124.556356,250.546254 C128.078633,251.371932 131.584557,252.215069 135.075596,253.045158 L135.076147,253.043136 C135.946013,253.24951 136.816063,253.456067 137.682254,253.660787 L137.681886,253.662257 C142.037647,254.689714 146.370255,255.683542 150.681732,256.586036 L150.685591,256.570599 C151.537265,256.747937 152.390778,256.941815 153.238777,257.111618 C157.525816,257.961554 161.821491,258.724199 166.04532,259.26338 L166.046606,259.255662 C166.887439,259.360043 167.726252,259.458544 168.565064,259.546386 L168.56341,259.557963 C171.643221,259.884155 174.675256,260.074908 177.628464,260.074908 C178.681159,260.074908 179.7243,260.05065 180.75513,259.999746 C180.783427,259.998276 180.811357,259.996254 180.83947,259.9946 C181.604048,259.951966 182.348781,259.879193 183.096454,259.800356 L183.097741,259.822224 C186.512708,259.479126 189.697806,258.770509 192.437314,257.616067 C192.749319,257.484855 193.053423,257.346292 193.353668,257.204422 L193.340071,257.171895 C193.92678,256.894218 194.507793,256.614521 195.046912,256.294761 L195.053343,256.30689 C197.225251,255.03024 199.055755,253.420599 200.612289,251.443603 C201.006246,250.947424 201.381828,250.425701 201.740322,249.88211 L201.716067,249.864284 C202.074193,249.323449 202.410453,248.756703 202.734034,248.170109 L202.762332,248.187384 C204.378952,245.261399 205.578463,241.818837 206.438774,238.102275 L206.433077,238.100621 C206.604882,237.360396 206.756659,236.603631 206.904576,235.843191 L206.914315,235.845397 C206.924789,235.789898 206.935262,235.734032 206.945552,235.67835 C205.157495,235.241529 203.389466,234.753619 201.641649,234.218849 C201.078459,235.429893 200.429643,236.643509 199.676458,237.853818 C198.163288,240.272046 196.158407,242.622647 193.745788,244.539919 C191.338865,246.466562 188.562791,247.905113 185.8231,248.796949 C182.341248,249.92015 179.022197,250.300003 175.90435,250.300003 C174.065027,250.300003 172.295344,250.167688 170.604673,249.977854 C166.022902,249.431322 161.852177,248.365457 157.855461,247.142652 C149.88904,244.65698 142.596794,241.493013 135.44732,238.259582 C130.537557,236.024021 125.718015,233.728183 120.929527,231.452377 L120.928608,231.454766 C120.115337,231.069033 119.300228,230.6833 118.48714,230.299404 L118.489162,230.294259 C117.133648,229.651248 115.779237,229.010258 114.425929,228.374782 C111.736401,227.112834 109.049629,225.866874 106.360284,224.654544 L106.35716,224.662446 C105.549402,224.298949 104.74348,223.925896 103.9337,223.57122 L103.934068,223.570485 C100.495948,222.050524 97.0504778,220.595986 93.585898,219.248401 C92.9718102,219.01097 92.3564362,218.777582 91.7406946,218.546216 L91.7399596,218.548421 C90.9266883,218.241342 90.1097421,217.945105 89.2927958,217.65291 L89.2940821,217.648316 C85.1977746,216.182751 81.0711486,214.906469 76.9360702,213.994052 L76.9344165,214.002689 C76.1084665,213.819838 75.2823328,213.65371 74.4543617,213.499894 L74.4554641,213.49236 C73.7741244,213.367396 73.0927846,213.249783 72.411261,213.147056 C70.226674,212.820129 68.0294082,212.630295 65.8716485,212.630295 C64.6462291,212.630295 63.4333046,212.69149 62.2427974,212.823621 L62.2442674,212.832809 C61.4565372,212.920468 60.6798319,213.046718 59.9141515,213.198512 L59.910109,213.182707 C57.3001439,213.703328 54.8349728,214.61795 52.6255796,216.042535 C51.5980575,216.694918 50.6306211,217.452785 49.7262105,218.299781 L49.7524866,218.325325 C49.1823147,218.857338 48.6397051,219.420226 48.1224528,220.021705 L48.0969117,220.001674 C47.2127135,221.026558 46.4029334,222.142409 45.6751052,223.333606 C44.2626298,225.634773 43.1423146,228.164182 42.236434,230.836013 L42.239374,230.836748 C41.9712848,231.627326 41.7210192,232.424887 41.4878422,233.237701 C41.4808598,233.26251 41.4733261,233.286952 41.4663436,233.311761 C41.160586,234.377075 40.1887396,235.07393 39.1310827,235.07393 C38.9111357,235.07393 38.6875136,235.043792 38.4653616,234.980575 C37.2445359,234.631412 36.5097252,233.408424 36.7474959,232.183781 L36.7546621,232.147395 C37.5276925,228.246694 38.7029485,224.271384 40.5961103,220.516965 C42.4749397,216.769896 45.1800865,213.213029 48.720187,210.526313 C52.054489,207.955189 56.0260312,206.283985 60.0245844,205.384799 C60.2447152,205.334446 60.4650298,205.286482 60.6851606,205.24201 C63.6402055,204.635385 66.5991092,204.398322 69.5175881,204.398506 C70.7850859,204.398506 72.0454176,204.443162 73.2939893,204.521632 C81.5529374,205.079373 89.39349,206.998482 96.996272,209.228346 C104.599054,211.485592 111.978949,214.14511 119.263662,216.854063 C121.43998,217.664488 123.606927,218.481529 125.767811,219.297651 C125.86336,219.33367 125.959461,219.369689 126.05501,219.405708 L126.05501,219.406075 C130.270203,220.998442 134.460038,222.583825 138.634071,224.105256 L138.636276,224.099559 C139.381928,224.369884 140.129418,224.649766 140.873232,224.916416 C140.962717,224.947657 141.046874,224.978714 141.13636,225.008117 L141.135809,225.009955 C145.292202,226.49353 149.44933,227.914622 153.564931,229.143492 L153.566034,229.140735 C154.388309,229.387354 155.20893,229.623131 156.029551,229.851557 L156.028081,229.856151 C158.055379,230.423082 160.07055,230.938189 162.068081,231.381442 C164.101076,231.827084 166.115879,232.192051 168.063982,232.439405 L168.066187,232.427092 C168.841054,232.525777 169.601406,232.606084 170.352387,232.661032 L170.350917,232.67316 C170.917046,232.716346 171.478031,232.75163 172.026704,232.768721 C172.36425,232.780849 172.697386,232.786914 173.026112,232.786914 C175.67687,232.786914 178.012314,232.395668 179.577485,231.682824 L179.576382,231.679516 C179.600086,231.668674 179.625811,231.661139 179.647677,231.652135 C180.036856,231.463771 180.3733,231.270077 180.685856,231.065357 L180.687878,231.069217 C181.781733,230.34939 182.454804,229.472624 183.176936,228.076891 C183.382735,227.663409 183.574568,227.200492 183.752437,226.698984 C153.629978,210.286677 133.188131,178.340667 133.188131,141.619213 C133.188131,89.1244188 174.96025,46.3900125 227.070433,44.8415672 L227.070433,32.3479699 C223.428536,31.2028996 220.786966,27.7983782 220.786966,23.7784114 C220.786966,18.8230558 224.805916,14.8019863 229.764372,14.8019863" id="Fill-12"></path>
                        </g>
                        <path d="M248.623354,18.1665013 L245.138194,20.2173735 C241.939866,14.7776004 236.047416,11.3980717 229.764316,11.3980717 C224.390956,11.3980717 219.357898,13.7944314 215.951383,17.9709701 C215.728312,18.2451548 215.512592,18.5246689 215.307896,18.8098798 C215.12525,19.0640335 214.947748,19.3235167 214.772452,19.5903506 L211.374757,17.4044075 C211.584965,17.0771133 211.806199,16.7573536 212.030923,16.4410856 C212.285047,16.0900851 212.546338,15.748273 212.818653,15.4173034 C216.996729,10.2939821 223.173806,7.35678762 229.764316,7.35678762 C237.474775,7.35678762 244.699402,11.4985939 248.623354,18.1665013" id="Fill-15" fill="#FEDD11"></path>
                        <path d="M244.90046,23.2331664 L241.17753,24.8106473 C239.22759,20.2081299 234.748166,17.2360191 229.764169,17.2360191 C225.315983,17.2360191 221.187336,19.6470803 218.979597,23.5292197 L215.467059,21.531457 C218.387375,16.3899424 223.864737,13.194735 229.764169,13.194735 C236.374525,13.194735 242.31622,17.1336593 244.90046,23.2331664" id="Fill-17" fill="#FEDD11"></path>
                        <path d="M220.786966,29.6251249 C220.786966,34.5839722 224.805916,38.6068793 229.764188,38.6068793 C234.720806,38.6068793 238.741409,34.5839722 238.741409,29.6251249 C238.741409,24.6697693 234.720806,20.6486999 229.764188,20.6486999 C224.805916,20.6486999 220.786966,24.6697693 220.786966,29.6251249" id="Fill-19" fill="#ED247B"></path>
                        <polygon id="Fill-21" fill="#ED247B" points="227.070452 66.6401154 232.458144 66.6401154 232.458144 37.2580633 227.070452 37.2580633"></polygon>
                        <path d="M326.810017,147.466128 C326.810017,200.938946 283.464825,244.287327 229.99821,244.287327 C176.533616,244.287327 133.188057,200.938946 133.188057,147.466128 C133.188057,93.9916571 176.533616,50.6432755 229.99821,50.6432755 C283.464825,50.6432755 326.810017,93.9916571 326.810017,147.466128" id="Fill-23" fill="#F2682B"></path>
                        <path d="M36.7546805,237.9942 C37.5277108,234.093684 38.7029669,230.118189 40.5963124,226.36377 C42.4749581,222.616885 45.1801049,219.059835 48.7200216,216.373119 C52.2380722,213.660491 56.4653924,211.947939 60.6853627,211.088815 C64.9237078,210.218848 69.1708729,210.109138 73.2940076,210.368621 C81.5529558,210.926179 89.3933247,212.845288 96.9962903,215.075336 C104.599072,217.332581 111.978783,219.991916 119.26368,222.700868 C126.542881,225.411658 133.727267,228.198896 140.873434,230.763405 C148.004533,233.313029 155.141329,235.691012 162.0681,237.228247 C165.520368,237.985012 168.925046,238.518863 172.026722,238.615526 C175.126194,238.727074 177.891242,238.32131 179.647695,237.49894 C181.407639,236.652496 182.250127,235.714902 183.176955,233.923696 C184.066849,232.135983 184.710153,229.460109 184.967952,226.44959 C185.443126,220.902312 190.326429,216.789725 195.873064,217.264954 C201.423741,217.742021 205.534014,222.626074 205.058656,228.173352 C205.031278,228.48962 204.989199,228.800375 204.932605,229.109109 L204.899714,229.288284 C204.060718,233.883451 202.71384,238.82043 199.676476,243.700623 C198.163123,246.118852 196.158425,248.469452 193.745806,250.386724 C191.338883,252.313368 188.56281,253.751919 185.823118,254.643754 C180.287324,256.429446 175.160922,256.336275 170.604692,255.824659 C166.022737,255.278128 161.852195,254.212262 157.855295,252.989641 C149.888875,250.503785 142.596812,247.339819 135.447154,244.106387 C128.310359,240.8566 121.361722,237.478725 114.425947,234.221588 C107.492194,230.968125 100.578285,227.815001 93.5859164,225.09539 C86.602551,222.393789 79.5078339,220.061565 72.4110956,218.994045 C65.365807,217.939573 58.1871168,218.30307 52.625598,221.88934 C49.8476867,223.653164 47.5063621,226.18294 45.6751236,229.180411 C43.8328602,232.181742 42.485983,235.570642 41.466362,239.158566 C41.0970273,240.445323 39.7556626,241.194737 38.4653799,240.827381 C37.2443705,240.478218 36.5097436,239.255413 36.7473306,238.03077 L36.7546805,237.9942 Z" id="Fill-24" fill="#ED247B"></path>
                        <path d="M14.9824196,283.046165 C19.5294623,274.02049 26.055845,265.495588 34.786292,259.494765 C39.1177977,256.488105 43.918781,254.130154 48.9211528,252.457664 C53.9231571,250.776169 59.1079913,249.759738 64.2893342,249.229745 C74.6757236,248.186116 84.9887973,248.994152 95.0187145,250.454388 C105.06131,251.936676 114.877344,254.120965 124.556301,256.393096 C134.231584,258.661368 143.784489,261.06122 153.238906,262.95846 C162.652898,264.824827 172.108784,266.274221 180.755258,265.846588 C185.053689,265.623492 189.079988,264.877753 192.437259,263.462909 C195.803717,262.04641 198.466602,260.015753 200.612234,257.290445 C204.932715,251.849202 207.085697,243.433826 207.891435,234.63088 C208.395825,229.090952 213.295665,225.009422 218.835134,225.515709 C224.374603,226.021995 228.457496,230.924241 227.951269,236.464352 C227.931057,236.685427 227.903862,236.906686 227.86895,237.122432 L227.854434,237.215604 C226.989896,242.591241 225.739855,248.045348 223.693079,253.499639 C221.642445,258.924527 218.72562,264.439094 214.394114,269.211415 C210.108362,274.000275 204.334981,277.696072 198.419011,279.661124 C192.48485,281.669913 186.572555,282.221957 181.011036,282.157822 C169.853454,281.934909 159.746914,279.551413 149.949255,276.979737 C140.165928,274.347784 130.715371,271.3097 121.308912,268.456672 C111.911274,265.599601 102.561227,262.883666 93.1525637,260.871202 C83.755293,258.871417 74.2644942,257.540923 64.907097,257.880898 C55.5790995,258.202495 46.3769698,260.37392 38.4653064,265.168477 C30.5134022,269.906066 24.0893675,277.120505 19.2207647,285.402279 C18.5408949,286.559295 17.05492,286.944844 15.8998763,286.264895 C14.7924235,285.616188 14.3922191,284.221558 14.9605535,283.090086 L14.9824196,283.046165 Z" id="Fill-25" fill="#ED247B"></path>
                        <path d="M398.899846,285.621609 C397.254929,282.128694 395.191432,278.986596 392.629242,276.34178 C390.07973,273.700638 387.060557,271.616871 383.738015,270.130724 C377.069227,267.142442 369.394967,266.486199 361.744594,266.800446 C354.057839,267.134907 346.295931,268.421848 338.532369,269.988303 C330.761273,271.563946 322.971986,273.457511 315.062161,275.272423 C307.146638,277.083843 299.116274,278.858692 290.731274,280.030409 C286.533353,280.605977 282.243926,281.026442 277.802906,281.108771 C273.365378,281.180074 268.759719,280.929595 264.009818,279.931725 C259.281967,278.939184 254.341702,277.116921 249.900866,274.056968 C245.448821,271.032116 241.727728,266.804305 239.161863,262.28963 C236.561269,257.761907 234.961921,253.024318 233.898384,248.407283 C232.843667,243.77573 232.313736,239.224301 232.063287,234.757038 L232.055937,234.667726 C231.743381,229.109053 235.994588,224.353272 241.550595,224.040679 C247.104396,223.726433 251.863668,227.975928 252.176225,233.534417 C252.192578,233.803088 252.196069,234.091791 252.188903,234.356971 C252.006257,241.514625 252.788475,248.482261 255.222776,253.682215 C256.434415,256.285132 258.013366,258.399956 260.0934,260.119858 C262.165901,261.839761 264.815923,263.170623 267.904553,264.091861 C274.114705,265.941689 281.686433,266.138874 289.298402,265.698562 C296.9598,265.247039 304.820381,264.164818 312.746561,262.99696 C320.678436,261.825243 328.701451,260.532973 336.848864,259.54227 C344.994623,258.560754 353.2883,257.831372 361.739081,258.129446 C365.960889,258.290429 370.224592,258.719899 374.457424,259.630112 C378.679232,260.543999 382.886524,261.955168 386.773725,264.090023 C390.662764,266.208339 394.180999,269.085257 396.971589,272.488676 C399.7789,275.873901 401.869591,279.767251 403.351891,283.696987 L403.36457,283.729881 C403.83809,284.985581 403.205627,286.38554 401.951911,286.858932 C400.762138,287.3088 399.43529,286.751242 398.899846,285.621609" id="Fill-26" fill="#ED247B"></path>
                        <path d="M368.075468,243.930997 C364.981325,239.504164 361.426709,235.491915 357.294387,232.640541 C353.180439,229.767299 348.558611,228.319743 343.889008,228.504248 C339.208564,228.659534 334.484203,230.278914 329.922461,232.563726 C325.351531,234.85405 320.921536,237.791245 316.500545,240.929667 C312.064853,244.073603 307.6604,247.451294 302.872095,250.763379 C300.470684,252.415654 297.970417,254.057087 295.199856,255.594138 C292.416432,257.109505 289.382559,258.584626 285.579147,259.52222 C283.678452,259.975581 281.556706,260.278985 279.230265,260.187467 C276.918157,260.10716 274.40172,259.577167 272.106149,258.555407 C269.799736,257.546326 267.782177,256.100424 266.151959,254.55786 C264.51972,253.007944 263.233113,251.366512 262.154876,249.750807 C260.014756,246.506349 258.636825,243.338707 257.485273,240.255231 C256.350442,237.168081 255.493254,234.148374 254.754769,231.163766 L254.731065,231.068574 C253.395213,225.660225 256.695705,220.193254 262.105631,218.857063 C267.509861,217.520872 272.977852,220.823769 274.312051,226.230463 C274.408886,226.610683 274.476506,227.003583 274.525934,227.381965 C274.841982,229.86047 275.246045,232.273185 275.777813,234.497536 C276.30609,236.712883 276.982285,238.765593 277.727753,240.288126 C278.48443,241.852743 279.184328,242.64424 279.558992,242.980539 C279.771038,243.167066 280.003112,243.325843 280.46377,243.442904 C280.918915,243.558128 281.593272,243.602049 282.419406,243.51972 C284.082331,243.3569 286.246338,242.702679 288.457753,241.792467 C290.689195,240.880417 293.010308,239.727077 295.356777,238.478544 C300.061109,235.968982 304.867788,233.092064 309.873651,230.339375 C314.888518,227.586685 320.111939,224.897764 325.788485,222.821531 C331.433793,220.772497 337.697048,219.299214 344.195868,219.838578 C347.419921,220.10725 350.63644,220.911611 353.573478,222.220236 C356.515844,223.525186 359.169541,225.300036 361.475954,227.327018 C366.105316,231.397706 369.464424,236.34571 372.194928,241.366672 L372.20044,241.38119 C372.841907,242.558236 372.405136,244.031519 371.226205,244.67306 C370.12794,245.268842 368.775366,244.934381 368.075468,243.930997" id="Fill-27" fill="#ED247B"></path>
                        <path d="M168.066095,238.273824 L165.160294,254.898018 C166.158049,255.109721 167.170688,255.298085 168.203355,255.468072 L170.352479,238.507763 C169.601498,238.453 168.841146,238.372693 168.066095,238.273824" id="Fill-28" fill="#544741"></path>
                        <path d="M140.873342,230.763332 C140.129344,230.496682 139.381855,230.2168 138.636387,229.946291 L133.217273,243.066544 C133.964946,243.410193 134.695898,243.764685 135.447246,244.106314 C135.531219,244.144722 135.61703,244.181476 135.701187,244.219884 L141.13647,230.854849 C141.046801,230.825446 140.962828,230.794389 140.873342,230.763332" id="Fill-29" fill="#544741"></path>
                        <path d="M123.516597,224.298343 L118.48703,236.146357 C119.300118,236.530252 120.11541,236.915801 120.928498,237.301534 L126.055084,225.252477 C125.210575,224.934555 124.366434,224.618287 123.516597,224.298343" id="Fill-30" fill="#544741"></path>
                        <path d="M179.647659,237.498958 C179.625792,237.507963 179.600068,237.515498 179.576364,237.52634 L185.609382,254.705887 C185.68233,254.68218 185.751787,254.667479 185.823081,254.643772 C187.027553,254.250872 188.2357,253.735398 189.421798,253.137594 L180.685838,236.912181 C180.373282,237.116901 180.036838,237.310594 179.647659,237.498958" id="Fill-31" fill="#544741"></path>
                        <path d="M153.565978,234.987522 L148.486984,249.653831 C149.364383,249.997481 150.239761,250.342968 151.131493,250.673754 L156.029496,235.698344 C155.208875,235.470102 154.388253,235.234141 153.565978,234.987522" id="Fill-32" fill="#544741"></path>
                        <path d="M108.148121,218.685165 L103.933847,229.418063 C104.743444,229.772555 105.549365,230.145608 106.357124,230.509288 L110.730524,219.60089 C109.868008,219.295648 109.012658,218.985077 108.148121,218.685165" id="Fill-33" fill="#544741"></path>
                        <path d="M60.6853076,211.08876 C59.818933,211.26426 58.9527421,211.487173 58.0920636,211.737651 L59.9141147,219.045262 C60.6797951,218.893468 61.4565004,218.767402 62.2442307,218.679744 L61.0362674,211.031975 C60.9192195,211.054211 60.8023554,211.065054 60.6853076,211.08876" id="Fill-34" fill="#544741"></path>
                        <path d="M36.7546805,237.9942 L36.7511893,238.014415 L41.4716907,239.138351 C41.7094614,238.306793 41.9652395,237.491589 42.2393924,236.683737 L37.3706058,235.263379 C37.1420225,236.175429 36.9356729,237.087479 36.7546805,237.9942" id="Fill-35" fill="#544741"></path>
                        <path d="M43.2316348,222.035474 L48.1222874,225.868547 C48.6395397,225.267068 49.1823331,224.704181 49.752505,224.172167 L45.1341677,219.679544 C44.4544817,220.432633 43.822019,221.223946 43.2316348,222.035474" id="Fill-36" fill="#544741"></path>
                        <path d="M75.6643278,210.577034 L74.4543433,219.346718 C75.2823145,219.500533 76.1084481,219.666661 76.9345818,219.849513 L78.5082048,210.911495 C77.5668608,210.783408 76.616513,210.670205 75.6643278,210.577034" id="Fill-37" fill="#544741"></path>
                        <path d="M92.3011095,213.760958 L89.2927774,223.499661 C90.1099074,223.792039 90.92667,224.088092 91.740125,224.395355 L94.9913727,214.501367 C94.0974357,214.249051 93.2001913,214.002432 92.3011095,213.760958" id="Fill-38" fill="#544741"></path>
                        <path d="M180.790005,265.844659 L181.047621,282.157914 C182.062097,282.16894 183.089068,282.150563 184.123388,282.116014 L183.096418,265.647106 C182.332391,265.727597 181.572039,265.802575 180.790005,265.844659" id="Fill-39" fill="#544741"></path>
                        <path d="M166.046606,265.102541 L163.608629,280.18031 C164.538949,280.361324 165.474596,280.531127 166.417778,280.691926 L168.565064,265.393265 C167.726252,265.305423 166.887439,265.206738 166.046606,265.102541" id="Fill-40" fill="#544741"></path>
                        <path d="M153.238832,262.958515 C152.390833,262.788528 151.53732,262.594835 150.685646,262.417497 L147.31,276.241221 C148.189054,276.486186 149.060941,276.742178 149.949181,276.979608 C149.956531,276.983467 149.965719,276.985121 149.972885,276.986959 L153.258861,262.964028 C153.251511,262.962191 153.246182,262.960353 153.238832,262.958515" id="Fill-41" fill="#544741"></path>
                        <path d="M226.013989,246.058538 L206.904686,241.68996 C206.756585,242.450584 206.604809,243.207164 206.433004,243.94739 L225.191714,249.030649 C225.491224,248.039945 225.756374,247.049242 226.013989,246.058538" id="Fill-42" fill="#544741"></path>
                        <path d="M135.076074,258.88985 L131.61278,271.613159 C132.477134,271.879993 133.341855,272.143152 134.207862,272.408332 L137.682364,259.507684 C136.815989,259.302964 135.946123,259.096223 135.076074,258.88985" id="Fill-43" fill="#544741"></path>
                        <path d="M193.340071,263.018792 L200.067658,279.052349 C201.133033,278.63758 202.193078,278.171356 203.234749,277.650552 L195.047096,262.141474 C194.507793,262.461418 193.92678,262.741116 193.340071,263.018792" id="Fill-44" fill="#544741"></path>
                        <path d="M201.715994,255.711181 L216.62021,266.511707 C217.316433,265.601494 217.976274,264.676764 218.588341,263.733657 L202.734145,254.017007 C202.410563,254.6036 202.07412,255.170347 201.715994,255.711181" id="Fill-45" fill="#544741"></path>
                        <path d="M69.9183622,248.856895 L70.0041728,257.871728 C70.8595225,257.893596 71.715056,257.91914 72.5702219,257.963245 L72.7438643,248.776587 C71.8025203,248.78743 70.86136,248.820324 69.9183622,248.856895" id="Fill-46" fill="#544741"></path>
                        <path d="M24.2411255,269.077998 L28.5869635,273.05533 C29.1810227,272.446685 29.7769194,271.841714 30.3981734,271.264125 L26.1252836,266.959683 C25.4764673,267.64882 24.8570508,268.361479 24.2411255,269.077998" id="Fill-47" fill="#544741"></path>
                        <path d="M14.9824196,283.046165 L14.9732321,283.060683 L19.2297684,285.387578 C19.6720512,284.638164 20.1418964,283.90529 20.6097203,283.170394 L16.2855646,280.611398 C15.8414442,281.421272 15.3954864,282.227287 14.9824196,283.046165" id="Fill-48" fill="#544741"></path>
                        <path d="M37.1987825,257.952145 L40.6528886,263.95646 C41.3930279,263.561722 42.144376,263.194366 42.9045439,262.843365 L39.6915159,256.51194 C38.8490286,256.972468 38.0157287,257.449351 37.1987825,257.952145" id="Fill-49" fill="#544741"></path>
                        <path d="M53.0405575,251.238608 L54.8242051,259.014096 C55.6503388,258.85146 56.4836387,258.716205 57.3189598,258.588118 L55.8166313,250.584203 C54.8883334,250.785247 53.9615054,250.999156 53.0405575,251.238608" id="Fill-50" fill="#544741"></path>
                        <path d="M103.18068,251.818071 L100.828698,262.667847 C101.680373,262.881755 102.53021,263.113856 103.380047,263.338607 L105.874618,252.34255 C104.975353,252.169072 104.081783,251.984199 103.18068,251.818071" id="Fill-51" fill="#544741"></path>
                        <path d="M119.256385,255.171945 L116.182271,266.921275 C117.039459,267.175245 117.894625,267.43289 118.753649,267.690719 L121.90457,255.782429 C121.023679,255.577709 120.139114,255.374827 119.256385,255.171945" id="Fill-52" fill="#544741"></path>
                        <path d="M86.7342436,249.434483 L85.4327523,259.410801 C86.2901233,259.551568 87.1473105,259.705016 88.0044977,259.860302 L89.497455,249.737888 C88.5781608,249.630015 87.6570291,249.525817 86.7342436,249.434483" id="Fill-53" fill="#544741"></path>
                        <path d="M391.658921,267.34163 L387.930662,272.461276 C388.602998,272.907285 389.253651,273.388028 389.889605,273.892476 L393.903226,269.271765 C393.181094,268.599167 392.437463,267.952114 391.658921,267.34163" id="Fill-54" fill="#544741"></path>
                        <path d="M265.608964,263.294869 L260.34916,278.997457 C261.414718,279.3174 262.472926,279.586256 263.525622,279.820195 L267.599328,263.985661 C266.913946,263.771936 266.245101,263.548839 265.608964,263.294869" id="Fill-55" fill="#544741"></path>
                        <path d="M309.840687,263.413713 L312.141587,275.93065 C313.026336,275.729422 313.918068,275.532053 314.802634,275.331008 L312.483359,263.035331 C311.600631,263.165073 310.723415,263.287647 309.840687,263.413713" id="Fill-56" fill="#544741"></path>
                        <path d="M294.108757,265.325453 L295.945508,279.205962 C296.862781,279.052331 297.771234,278.887857 298.681341,278.723566 L296.713026,265.071483 C295.842976,265.161163 294.974948,265.248638 294.108757,265.325453" id="Fill-57" fill="#544741"></path>
                        <path d="M403.351854,283.696968 C403.022761,282.825164 402.653793,281.955013 402.262776,281.092397 L397.726391,283.34413 C398.134129,284.080864 398.525146,284.830093 398.890622,285.603213 L403.361042,283.716999 L403.351854,283.696968 Z" id="Fill-58" fill="#544741"></path>
                        <path d="M256.920687,256.614264 L242.860979,267.602969 C243.624822,268.522554 244.42909,269.412551 245.284256,270.253483 L258.009949,258.028924 C257.624077,257.577402 257.258601,257.107686 256.920687,256.614264" id="Fill-59" fill="#544741"></path>
                        <path d="M358.805921,258.069133 L359.061699,266.957716 C359.922377,266.89744 360.779748,266.846168 361.634914,266.80776 L361.620398,258.127572 C360.680892,258.094861 359.743406,258.078322 358.805921,258.069133" id="Fill-60" fill="#544741"></path>
                        <path d="M325.835947,261.04117 L327.946667,272.293218 C328.814879,272.095666 329.681254,271.901972 330.547445,271.708279 L328.533377,260.653783 C327.636132,260.781504 326.733375,260.909591 325.835947,261.04117" id="Fill-61" fill="#544741"></path>
                        <path d="M342.132684,258.953875 L343.53983,269.026855 C344.406021,268.869732 345.270558,268.717938 346.138771,268.571657 L344.879541,258.69237 C343.962085,258.774516 343.046465,258.862358 342.132684,258.953875" id="Fill-62" fill="#544741"></path>
                        <path d="M252.846907,245.455295 L234.144975,249.419947 C234.400937,250.447037 234.684093,251.481662 234.998487,252.514265 L253.245274,247.595663 C253.093498,246.895684 252.961934,246.18284 252.846907,245.455295" id="Fill-63" fill="#544741"></path>
                        <path d="M375.78069,259.957277 L374.265499,267.418335 C375.08612,267.549915 375.897738,267.701709 376.703475,267.875371 L378.58598,260.719371 C377.655661,260.435998 376.718359,260.183865 375.78069,259.957277" id="Fill-64" fill="#544741"></path>
                        <path d="M278.976104,265.793368 L278.84454,281.072183 C279.836967,281.040942 280.82388,280.997204 281.803444,280.936928 L281.408568,265.875697 C280.589785,265.86118 279.780188,265.83196 278.976104,265.793368" id="Fill-65" fill="#544741"></path>
                        <path d="M372.200367,241.38119 L372.194854,241.366672 C371.756246,240.558636 371.291914,239.752621 370.815086,238.951935 L366.533009,241.821686 C367.053752,242.508802 367.569167,243.207128 368.068228,243.919971 L372.200367,241.38119 Z" id="Fill-66" fill="#544741"></path>
                        <path d="M309.873633,230.339393 C309.699991,230.434218 309.528186,230.533087 309.354543,230.628279 L316.045381,241.254958 C316.197157,241.149107 316.34875,241.035721 316.500526,240.929685 C317.063348,240.529435 317.628008,240.143702 318.194688,239.752639 L311.805382,229.301093 C311.162078,229.648418 310.511424,229.990046 309.873633,230.339393" id="Fill-67" fill="#544741"></path>
                        <path d="M361.475935,227.32711 C360.880222,226.802447 360.255109,226.296161 359.611806,225.808252 L355.677013,231.602333 C356.223482,231.923931 356.764437,232.269418 357.294368,232.640633 C357.426116,232.730129 357.551984,232.830651 357.680057,232.92566 L361.909214,227.729199 C361.762767,227.595782 361.625874,227.458689 361.475935,227.32711" id="Fill-68" fill="#544741"></path>
                        <path d="M325.788393,222.821587 C325.415567,222.956657 325.059095,223.115802 324.691781,223.258408 L329.037803,233.03901 C329.333822,232.885378 329.62635,232.711716 329.922553,232.563781 C330.360977,232.342706 330.80326,232.135964 331.243705,231.927753 L327.440477,222.251348 C326.886842,222.435853 326.333024,222.624034 325.788393,222.821587" id="Fill-69" fill="#544741"></path>
                        <path d="M295.356851,238.478581 C295.340497,238.485932 295.325797,238.493099 295.311097,238.502287 L302.80804,250.807153 C302.831927,250.790613 302.850302,250.776096 302.872168,250.763415 C303.630499,250.236915 304.365126,249.710598 305.107103,249.184097 L297.584803,237.257613 C296.840988,237.667053 296.093499,238.083843 295.356851,238.478581" id="Fill-70" fill="#544741"></path>
                        <path d="M344.195941,219.838505 C343.563663,219.785579 342.93855,219.76904 342.309946,219.752684 L342.521992,228.601205 C342.978791,228.56096 343.433936,228.518876 343.889081,228.504175 C344.188592,228.493149 344.484794,228.506013 344.782651,228.508034 L345.433305,219.99379 C345.020421,219.942702 344.607355,219.873237 344.195941,219.838505" id="Fill-71" fill="#544741"></path>
                        <path d="M282.678804,243.477674 L286.206226,259.337568 C287.399489,259.015971 288.514476,258.644939 289.574338,258.2355 L284.491851,243.124835 C283.84671,243.285818 283.238135,243.408209 282.678804,243.477674" id="Fill-72" fill="#544741"></path>
                        <path d="M278.007437,240.812771 L262.973494,250.920667 C263.735867,251.964297 264.61492,253.004251 265.618188,254.014985 L278.685469,241.942405 C278.475261,241.640838 278.247045,241.256943 278.007437,240.812771" id="Fill-73" fill="#544741"></path>
                        <path d="M201.531455,227.645106 C201.531455,231.225862 198.630983,234.128508 195.048804,234.128508 C191.468647,234.128508 188.566338,231.225862 188.566338,227.645106 C188.566338,224.064349 191.468647,221.163725 195.048804,221.163725 C198.630983,221.163725 201.531455,224.064349 201.531455,227.645106" id="Fill-74" fill="#544741"></path>
                        <path d="M271.612637,228.60115 C271.612637,232.181723 268.710511,235.084369 265.132191,235.084369 C261.55185,235.084369 258.651378,232.181723 258.651378,228.60115 C258.651378,225.022047 261.55185,222.119769 265.132191,222.119769 C268.710511,222.119769 271.612637,225.022047 271.612637,228.60115" id="Fill-75" fill="#544741"></path>
                        <path d="M248.606871,234.689558 C248.606871,238.270314 245.7064,241.17296 242.126242,241.17296 C238.547738,241.17296 235.643592,238.270314 235.643592,234.689558 C235.643592,231.108801 238.547738,228.206155 242.126242,228.206155 C245.7064,228.206155 248.606871,231.108801 248.606871,234.689558" id="Fill-76" fill="#544741"></path>
                        <path d="M223.930482,235.800777 C223.930482,239.379697 221.026519,242.28418 217.448199,242.28418 C213.867858,242.28418 210.967386,239.379697 210.967386,235.800777 C210.967386,232.220021 213.867858,229.319397 217.448199,229.319397 C221.026519,229.319397 223.930482,232.220021 223.930482,235.800777" id="Fill-77" fill="#544741"></path>
                        <path d="M259.177671,113.551024 C259.177671,129.66691 246.110389,142.730194 230.001885,142.730194 C213.887868,142.730194 200.820403,129.66691 200.820403,113.551024 C200.820403,97.4353214 213.887868,84.3718536 230.001885,84.3718536 C246.110389,84.3718536 259.177671,97.4353214 259.177671,113.551024" id="Fill-78" fill="#FEFEFE"></path>
                        <path d="M230.001922,135.261821 C218.025556,135.261821 208.287983,125.521465 208.287983,113.55106 C208.287983,101.578818 218.025556,91.8421372 230.001922,91.8421372 C241.968917,91.8421372 251.710165,101.578818 251.710165,113.55106 C251.710165,125.521465 241.968917,135.261821 230.001922,135.261821" id="Fill-79" fill="#04B3BE"></path>
                        <path d="M230.001922,127.793431 C222.152182,127.793431 215.763059,121.405221 215.763059,113.551079 C215.763059,105.698774 222.152182,99.308727 230.001922,99.308727 C237.845966,99.308727 244.236926,105.698774 244.236926,113.551079 C244.236926,121.405221 237.845966,127.793431 230.001922,127.793431" id="Fill-80" fill="#020302"></path>
                        <path d="M251.775836,99.9337836 C251.775836,105.155973 247.537675,109.389113 242.318112,109.389113 C237.096712,109.389113 232.865533,105.155973 232.865533,99.9337836 C232.865533,94.7099401 237.096712,90.478638 242.318112,90.478638 C247.537675,90.478638 251.775836,94.7099401 251.775836,99.9337836" id="Fill-81" fill="#FEFEFE"></path>
                        <path d="M231.182396,183.614883 C217.689369,183.614883 201.304874,179.465726 183.511212,166.120906 C180.535771,163.885529 179.931054,159.663047 182.166172,156.687445 C184.397615,153.711659 188.621076,153.106872 191.596517,155.338574 C209.907433,169.074456 228.3003,173.309617 246.254559,167.919462 C259.417022,163.971349 267.601184,156.042413 267.681666,155.963759 C270.309639,153.335298 274.578854,153.335298 277.20701,155.963759 C279.838841,158.595712 279.838841,162.863768 277.20701,165.495721 C276.786777,165.914349 266.720294,175.848582 250.12559,180.827461 C244.78898,182.428648 238.399674,183.614883 231.182396,183.614883" id="Fill-82" fill="#A41F63"></path>
                        <path d="M190.865602,167.98165 C188.955719,166.736792 187.023787,165.386084 185.128604,163.964072 L189.979015,157.497209 C191.733631,158.811347 193.515624,160.059696 195.275569,161.205869 L190.865602,167.98165 Z M269.849201,168.083826 L265.100954,161.536655 C267.986726,159.445721 269.575048,157.879266 269.591402,157.864565 L275.302676,163.587527 C275.220357,163.669673 273.295958,165.583452 269.849201,168.083826 L269.849201,168.083826 Z M200.65977,173.556494 C198.594436,172.549251 196.505398,171.421639 194.449435,170.207838 L198.55787,163.245715 C200.431187,164.35348 202.331882,165.377079 204.203362,166.287291 L200.65977,173.556494 Z M260.053196,174.004157 L256.449151,166.76252 C258.329634,165.828418 260.18476,164.784788 261.96657,163.660668 L266.283376,170.496541 C264.273166,171.766942 262.176962,172.947848 260.053196,174.004157 L260.053196,174.004157 Z M211.203081,177.795147 C208.984316,177.093146 206.740195,176.259749 204.528597,175.321971 L207.686684,167.87929 C209.66437,168.716362 211.667413,169.460262 213.643078,170.085448 L211.203081,177.795147 Z M249.407354,178.228292 L247.077238,170.487536 C249.067419,169.887895 251.061275,169.167701 253.007724,168.347168 L256.151111,175.795546 C253.93988,176.729465 251.673525,177.546506 249.407354,178.228292 L249.407354,178.228292 Z M222.362317,180.333928 C220.024851,180.006818 217.658353,179.54629 215.326215,178.963005 L217.292877,171.119889 C219.344981,171.635363 221.425015,172.041127 223.473628,172.3245 L222.362317,180.333928 Z M238.152936,180.547836 L237.244667,172.512864 C239.30798,172.280579 241.38783,171.926087 243.429277,171.452696 L245.242141,179.33422 C242.902837,179.873401 240.51778,180.280819 238.152936,180.547836 L238.152936,180.547836 Z M231.122163,180.942758 C229.641885,180.942758 228.139556,180.889465 226.651744,180.783613 L227.223937,172.719238 C229.32547,172.867357 231.458423,172.894738 233.498033,172.80708 L233.84348,180.884135 C232.94789,180.924381 232.03962,180.942758 231.122163,180.942758 L231.122163,180.942758 Z" id="Fill-83" fill="#FEFEFE"></path>
                    </g>
                </g>
            </g>
        </g>
    </g>
</svg>