<?xml version="1.0" encoding="UTF-8"?>
<svg width="122px" height="194px" viewBox="0 0 122 194" version="1.1" xmlns="http://www.w3.org/2000/svg" xmlns:xlink="http://www.w3.org/1999/xlink">
    <!-- Generator: Sketch 40.3 (33839) - http://www.bohemiancoding.com/sketch -->
    <title>robot-energy</title>
    <desc>Created with Sketch.</desc>
    <defs></defs>
    <g id="Page-1" stroke="none" stroke-width="1" fill="none" fill-rule="evenodd">
        <g id="robot-energy">
            <g id="Page-1">
                <g id="robot-energy">
                    <g id="Page-1">
                        <g id="Start-Screen-1">
                            <g id="Group-8">
                                <g id="Page-1" transform="translate(0.277218, 0.000000)">
                                    <polygon id="Fill-10" fill="#EFC92C" points="27.7026952 148.127998 38.6442325 148.127998 38.6442325 100.777049 27.7026952 100.777049"></polygon>
                                    <polygon id="Fill-12" fill="#277A7C" points="21.2197497 184.251585 43.0997755 184.251585 43.0997755 133.516293 21.2197497 133.516293"></polygon>
                                    <polygon id="Fill-13" fill="#7ACCCA" points="21.2197497 171.696751 43.0997755 171.696751 43.0997755 165.705647 21.2197497 165.705647"></polygon>
                                    <polygon id="Fill-14" fill="#7ACCCA" points="21.2197497 161.191493 43.0997755 161.191493 43.0997755 155.203782 21.2197497 155.203782"></polygon>
                                    <polygon id="Fill-15" fill="#EF462F" points="49.7655091 193.840643 14.9514345 193.840643 18.2853852 175.152355 46.4315583 175.152355"></polygon>
                                    <polygon id="Fill-16" fill="#EFC92C" points="79.650099 148.127998 90.588757 148.127998 90.588757 100.777049 79.650099 100.777049"></polygon>
                                    <polygon id="Fill-17" fill="#277A7C" points="73.1664763 184.251585 95.0443 184.251585 95.0443 133.516293 73.1664763 133.516293"></polygon>
                                    <polygon id="Fill-18" fill="#7ACCCA" points="73.1664763 171.696751 95.0443 171.696751 95.0443 165.705647 73.1664763 165.705647"></polygon>
                                    <polygon id="Fill-19" fill="#7ACCCA" points="73.1664763 161.191493 95.0443 161.191493 95.0443 155.203782 73.1664763 155.203782"></polygon>
                                    <polygon id="Fill-20" fill="#EF462F" points="101.712913 193.840643 66.8981611 193.840643 70.2327894 175.152355 98.378454 175.152355"></polygon>
                                    <path d="M92.397549,9.744469 C92.397549,14.6475 88.429464,18.622962 83.531178,18.622962 L35.5559243,18.622962 C30.6581467,18.622962 26.6895529,14.6475 26.6895529,9.744469 C26.6895529,4.837705 30.6581467,0.862242 35.5559243,0.862242 L83.531178,0.862242 C88.429464,0.862242 92.397549,4.837705 92.397549,9.744469" id="Fill-58" fill="#4D2D12"></path>
                                    <path d="M17.4080298,112.918609 L17.3983755,112.918609 L17.3877049,112.918609 C10.3353252,112.918609 4.5928813,107.19473 4.5449485,100.145075 L0.4748999,32.587999 L0.4696493,32.486877 L0.4696493,32.385756 C0.4696493,25.291139 6.2303857,19.520432 13.3125751,19.520432 L107.975334,19.520432 C115.059556,19.520432 120.822156,25.291139 120.822156,32.385756 L120.822156,32.548636 L120.807251,32.711346 L114.305335,99.724301 C114.201171,106.727467 108.47414,112.39349 101.459022,112.39349 L17.4080298,112.918609 L17.4080298,112.918609 L17.4080298,112.918609 Z" id="Fill-59" fill="#FEFEFE"></path>
                                    <path d="M110.96942,99.52803 C110.96942,104.790246 106.713568,109.053803 101.460445,109.053803 L17.3896358,109.577225 C12.1346492,109.577225 7.8767652,105.313668 7.8767652,100.051452 L3.8016354,32.38579 C3.8016354,27.123744 8.05935,22.85849 13.3126429,22.85849 L107.975233,22.85849 C113.230389,22.85849 117.488273,27.123744 117.488273,32.38579 L110.96942,99.52803 L110.96942,99.52803 L110.96942,99.52803 Z" id="Fill-60" fill="#277A7C"></path>
                                    <path d="M44.5036798,95.719147 C44.5036798,99.444011 41.4906921,102.460178 37.7736181,102.460178 C34.0572217,102.460178 31.0442339,99.444011 31.0442339,95.719147 C31.0442339,91.995978 34.0572217,88.977776 37.7736181,88.977776 C41.4906921,88.977776 44.5036798,91.995978 44.5036798,95.719147" id="Fill-72" fill="#EF8029"></path>
                                    <path d="M62.1643541,95.350545 C62.1643541,98.2152 59.8476614,100.534036 56.98982,100.534036 C54.1302848,100.534036 51.8118984,98.2152 51.8118984,95.350545 C51.8118984,92.487588 54.1302848,90.163323 56.98982,90.163323 C59.8476614,90.163323 62.1643541,92.487588 62.1643541,95.350545" id="Fill-73" fill="#7ACCCA"></path>
                                    <path d="M76.8029284,95.560084 C76.8029284,94.709375 77.4941423,94.019 78.343212,94.019 L85.93691,94.019 C85.278216,90.391524 82.114316,87.63919 78.303748,87.63919 C74.0162239,87.63919 70.5388137,91.122619 70.5388137,95.418073 C70.5388137,99.713188 74.0162239,103.196956 78.303748,103.196956 C82.013539,103.196956 85.110536,100.590365 85.882711,97.104391 L78.343212,97.104391 C77.4941423,97.104391 76.8029284,96.412829 76.8029284,95.560084" id="Fill-74" fill="#EF462F"></path>
                                    <path d="M85.936859,94.019068 L78.343162,94.019068 C77.4940915,94.019068 76.8028776,94.709442 76.8028776,95.560152 C76.8028776,96.412727 77.4940915,97.104459 78.343162,97.104459 L85.882829,97.104459 C86.000544,96.560677 86.069479,95.997553 86.069479,95.418141 C86.069479,94.939171 86.020869,94.475472 85.936859,94.019068" id="Fill-75" fill="#EFC92C"></path>
                                </g>
                            </g>
                        </g>
                    </g>
                </g>
            </g>
        </g>
    </g>
</svg>