<?xml version="1.0" encoding="UTF-8" standalone="no"?>
<svg width="194px" height="245px" viewBox="0 0 194 245" version="1.1" xmlns="http://www.w3.org/2000/svg" xmlns:xlink="http://www.w3.org/1999/xlink">
    <!-- Generator: Sketch 3.8.3 (29802) - http://www.bohemiancoding.com/sketch -->
    <title>Group 6</title>
    <desc>Created with Sketch.</desc>
    <defs></defs>
    <g id="Page-1" stroke="none" stroke-width="1" fill="none" fill-rule="evenodd">
        <g id="Group-6">
            <path d="M112.296303,27.568078 C111.679092,27.568078 111.059492,27.4903434 110.451651,27.3328526 C108.564553,26.8434733 106.949035,25.6241599 105.960836,23.9432166 C104.076861,20.7393719 100.613751,18.74896 96.92261,18.74896 C93.769116,18.74896 90.810213,20.1590266 88.804964,22.6175004 C88.671379,22.7817907 88.545327,22.9457135 88.435813,23.0982425 C88.318765,23.2610626 88.200064,23.4343577 88.071991,23.6293375 C86.660802,25.7752188 84.316353,26.9417902 81.92413,26.941974 C80.561818,26.941974 79.184255,26.5637755 77.954426,25.7724622 L74.55673,23.5865192 C71.144519,21.3912038 70.156503,16.8460226 72.348991,13.4319452 C72.594479,13.0497038 72.864222,12.6527608 73.198093,12.1830449 C73.210772,12.1652192 73.223451,12.1473935 73.236313,12.1295679 C73.591315,11.6392697 73.936028,11.1916062 74.289376,10.7614009 C79.868535,3.92607905 88.117193,0.00608308859 96.92261,0.00608308859 C107.223923,0.00608308859 116.877523,5.53608724 122.116012,14.4380855 C123.104763,16.1182938 123.385715,18.1226722 122.89676,20.0101729 C122.407805,21.8974899 121.189,23.5133787 119.508803,24.5018771 L116.023644,26.5529331 C114.884402,27.2233257 113.595957,27.568078 112.296303,27.568078 L112.296303,27.568078 L112.296303,27.568078 Z" id="Fill-1" fill="#FEFEFE"></path>
            <path d="M108.339259,32.1633182 C105.476456,32.1633182 102.755507,30.4805371 101.568307,27.6784135 C100.772859,25.800285 98.949154,24.5868523 96.922591,24.5868523 C95.114873,24.5868523 93.430633,25.574248 92.526774,27.1633064 C91.172363,29.5449645 88.687898,30.8813393 86.131036,30.8813393 C84.899737,30.8813393 83.651533,30.5713194 82.50439,29.91912 L78.991852,27.9211735 C75.46443,25.9149574 74.230191,21.4291339 76.23452,17.9005679 C80.458901,10.4637671 88.385999,5.84397534 96.922591,5.84397534 C106.491116,5.84397534 115.088896,11.5437829 118.826343,20.3652899 C119.586878,22.1603544 119.603232,24.1842124 118.871729,25.9914057 C118.140225,27.7984152 116.720951,29.241009 114.926095,30.0014489 L111.203165,31.5789298 C110.267517,31.9755053 109.295303,32.1633182 108.339259,32.1633182" id="Fill-6" fill="#FEFEFE"></path>
            <path d="M115.781739,18.1665013 L112.296579,20.2173735 C109.098251,14.7776004 103.205801,11.3980717 96.922701,11.3980717 C91.549341,11.3980717 86.516283,13.7944314 83.109768,17.9709701 C82.886697,18.2451548 82.670977,18.5246689 82.466281,18.8098798 C82.283635,19.0640335 82.106133,19.3235167 81.930837,19.5903506 L78.533142,17.4044075 C78.74335,17.0771133 78.964584,16.7573536 79.189308,16.4410856 C79.443432,16.0900851 79.704723,15.748273 79.977038,15.4173034 C84.155114,10.2939821 90.332191,7.35678762 96.922701,7.35678762 C104.63316,7.35678762 111.857787,11.4985939 115.781739,18.1665013" id="Fill-15" fill="#FEDD11"></path>
            <path d="M112.058845,23.2331664 L108.335915,24.8106473 C106.385975,20.2081299 101.906551,17.2360191 96.922554,17.2360191 C92.474368,17.2360191 88.345721,19.6470803 86.137982,23.5292197 L82.625444,21.531457 C85.54576,16.3899424 91.023122,13.194735 96.922554,13.194735 C103.53291,13.194735 109.474605,17.1336593 112.058845,23.2331664" id="Fill-17" fill="#FEDD11"></path>
            <path d="M87.945351,29.6251249 C87.945351,34.5839722 91.964301,38.6068793 96.922573,38.6068793 C101.879191,38.6068793 105.899794,34.5839722 105.899794,29.6251249 C105.899794,24.6697693 101.879191,20.6486999 96.922573,20.6486999 C91.964301,20.6486999 87.945351,24.6697693 87.945351,29.6251249" id="Fill-19" fill="#ED247B"></path>
            <polygon id="Fill-21" fill="#ED247B" points="94.228837 66.6401154 99.616529 66.6401154 99.616529 37.2580633 94.228837 37.2580633"></polygon>
            <g id="Group" transform="translate(0.000000, 50.000000)">
                <path d="M193.968402,97.466128 C193.968402,150.938946 150.62321,194.287327 97.156595,194.287327 C43.692001,194.287327 0.346442,150.938946 0.346442,97.466128 C0.346442,43.9916571 43.692001,0.6432755 97.156595,0.6432755 C150.62321,0.6432755 193.968402,43.9916571 193.968402,97.466128" id="Fill-23" fill="#F2682B"></path>
                <path d="M126.336056,63.551024 C126.336056,79.66691 113.268774,92.730194 97.16027,92.730194 C81.046253,92.730194 67.978788,79.66691 67.978788,63.551024 C67.978788,47.4353214 81.046253,34.3718536 97.16027,34.3718536 C113.268774,34.3718536 126.336056,47.4353214 126.336056,63.551024" id="Fill-78" fill="#FEFEFE"></path>
                <path d="M97.160307,85.261821 C85.183941,85.261821 75.446368,75.521465 75.446368,63.55106 C75.446368,51.578818 85.183941,41.8421372 97.160307,41.8421372 C109.127302,41.8421372 118.86855,51.578818 118.86855,63.55106 C118.86855,75.521465 109.127302,85.261821 97.160307,85.261821" id="Fill-79" fill="#04B3BE"></path>
                <path d="M97.160307,77.793431 C89.310567,77.793431 82.921444,71.405221 82.921444,63.551079 C82.921444,55.698774 89.310567,49.308727 97.160307,49.308727 C105.004351,49.308727 111.395311,55.698774 111.395311,63.551079 C111.395311,71.405221 105.004351,77.793431 97.160307,77.793431" id="Fill-80" fill="#020302"></path>
                <path d="M118.934221,49.9337836 C118.934221,55.155973 114.69606,59.389113 109.476497,59.389113 C104.255097,59.389113 100.023918,55.155973 100.023918,49.9337836 C100.023918,44.7099401 104.255097,40.478638 109.476497,40.478638 C114.69606,40.478638 118.934221,44.7099401 118.934221,49.9337836" id="Fill-81" fill="#FEFEFE"></path>
                <path d="M98.340781,133.614883 C84.847754,133.614883 68.463259,129.465726 50.669597,116.120906 C47.694156,113.885529 47.089439,109.663047 49.324557,106.687445 C51.556,103.711659 55.779461,103.106872 58.754902,105.338574 C77.065818,119.074456 95.458685,123.309617 113.412944,117.919462 C126.575407,113.971349 134.759569,106.042413 134.840051,105.963759 C137.468024,103.335298 141.737239,103.335298 144.365395,105.963759 C146.997226,108.595712 146.997226,112.863768 144.365395,115.495721 C143.945162,115.914349 133.878679,125.848582 117.283975,130.827461 C111.947365,132.428648 105.558059,133.614883 98.340781,133.614883" id="Fill-82" fill="#A41F63"></path>
                <path d="M58.023987,117.98165 C56.114104,116.736792 54.182172,115.386084 52.286989,113.964072 L57.1374,107.497209 C58.892016,108.811347 60.674009,110.059696 62.433954,111.205869 L58.023987,117.98165 L58.023987,117.98165 Z M137.007586,118.083826 L132.259339,111.536655 C135.145111,109.445721 136.733433,107.879266 136.749787,107.864565 L142.461061,113.587527 C142.378742,113.669673 140.454343,115.583452 137.007586,118.083826 L137.007586,118.083826 L137.007586,118.083826 Z M67.818155,123.556494 C65.752821,122.549251 63.663783,121.421639 61.60782,120.207838 L65.716255,113.245715 C67.589572,114.35348 69.490267,115.377079 71.361747,116.287291 L67.818155,123.556494 L67.818155,123.556494 Z M127.211581,124.004157 L123.607536,116.76252 C125.488019,115.828418 127.343145,114.784788 129.124955,113.660668 L133.441761,120.496541 C131.431551,121.766942 129.335347,122.947848 127.211581,124.004157 L127.211581,124.004157 L127.211581,124.004157 Z M78.361466,127.795147 C76.142701,127.093146 73.89858,126.259749 71.686982,125.321971 L74.845069,117.87929 C76.822755,118.716362 78.825798,119.460262 80.801463,120.085448 L78.361466,127.795147 L78.361466,127.795147 Z M116.565739,128.228292 L114.235623,120.487536 C116.225804,119.887895 118.21966,119.167701 120.166109,118.347168 L123.309496,125.795546 C121.098265,126.729465 118.83191,127.546506 116.565739,128.228292 L116.565739,128.228292 L116.565739,128.228292 Z M89.520702,130.333928 C87.183236,130.006818 84.816738,129.54629 82.4846,128.963005 L84.451262,121.119889 C86.503366,121.635363 88.5834,122.041127 90.632013,122.3245 L89.520702,130.333928 L89.520702,130.333928 Z M105.311321,130.547836 L104.403052,122.512864 C106.466365,122.280579 108.546215,121.926087 110.587662,121.452696 L112.400526,129.33422 C110.061222,129.873401 107.676165,130.280819 105.311321,130.547836 L105.311321,130.547836 L105.311321,130.547836 Z M98.280548,130.942758 C96.80027,130.942758 95.297941,130.889465 93.810129,130.783613 L94.382322,122.719238 C96.483855,122.867357 98.616808,122.894738 100.656418,122.80708 L101.001865,130.884135 C100.106275,130.924381 99.198005,130.942758 98.280548,130.942758 L98.280548,130.942758 L98.280548,130.942758 Z" id="Fill-83" fill="#FEFEFE"></path>
            </g>
        </g>
    </g>
</svg>