<?xml version="1.0" encoding="UTF-8" standalone="no"?>
<svg width="161px" height="447px" viewBox="0 0 161 447" version="1.1" xmlns="http://www.w3.org/2000/svg" xmlns:xlink="http://www.w3.org/1999/xlink">
    <!-- Generator: Sketch 3.8.3 (29802) - http://www.bohemiancoding.com/sketch -->
    <title>Group 10</title>
    <desc>Created with Sketch.</desc>
    <defs></defs>
    <g id="Page-1" stroke="none" stroke-width="1" fill="none" fill-rule="evenodd" stroke-dasharray="19">
        <g id="Artboard-1" transform="translate(-4981.000000, -785.000000)" stroke="#979797" stroke-width="6">
            <g id="Group-10" transform="translate(4984.000000, 788.000000)">
                <path d="M36.6271962,248 C36.4058543,246.940319 36.2895007,245.842763 36.2895007,244.718653 C36.2895007,237.740891 40.7706937,231.78599 47.016622,229.560439 C46.4058127,220.239853 42.4742082,212.152102 35.0902713,204.964017 C35.0860733,204.959835 35.0818752,204.955828 35.0776773,204.951819 C22.3647258,192.513336 14.2723759,183.063804 10.3381477,176.06304 C6.34742133,168.994317 3.37313642,160.998398 1.5048503,152.309129 C1.49155663,152.247269 1.47913754,152.185236 1.46741811,152.123028 C0.45062687,146.673285 -0.0422886115,141.124914 0.00283991799,135.632131 C0.00283991799,135.625335 0.00283991799,135.618713 0.00301483101,135.612092 C0.233904982,114.732299 7.92079775,96.6672062 22.8501198,81.9190077 C22.8616643,81.9078555 22.8730339,81.8965291 22.8847533,81.885377 C29.3477534,75.5884186 36.4862821,70.6122933 44.1787722,67.0341949 L43.8805391,66.2495364 C39.0684036,66.130522 34.4275116,64.6465887 30.4212177,61.9399264 C26.1373308,59.0455944 22.9015453,54.9605957 21.0636947,50.1264861 C18.6930477,43.8866825 18.9032976,37.102166 21.6554382,31.0214548 C24.4077537,24.9409179 29.3720669,20.2922128 35.6337377,17.9316158 C38.487505,16.854736 41.4735093,16.3084548 44.507091,16.3084548 C49.5427702,16.3084548 54.4138526,17.8014492 58.5940138,20.6260803 C62.8780756,23.5211095 66.1135112,27.6068051 67.9506622,32.4421345 C70.1091352,38.1222395 70.1168316,44.3798167 67.9725268,50.0618384 C66.5948822,53.7124259 64.3940793,56.9611873 61.5758202,59.5732305 L62.2600946,61.374129 C66.8072312,60.5751818 71.5166905,60.1717875 76.3281264,60.1717875 C76.5653136,60.1717875 76.8035503,60.172833 77.0417869,60.1747498 C77.3666073,60.1592414 77.630032,60.1592414 77.7633186,60.1592414 C77.9338624,60.1592414 78.1045812,60.1655144 78.2749501,60.1778863 C78.3029368,60.1785834 78.3309236,60.1789318 78.3585604,60.1794546 C78.4320255,60.1782349 78.5098634,60.1777121 78.5945232,60.1777121 C78.7178395,60.1777121 78.859522,60.1789318 79.0008548,60.1815456 C83.9996265,60.2331243 88.87928,60.7123184 93.5768449,61.610241 C93.9544903,60.53946 94.5086266,59.5484868 95.2039208,58.6758308 C95.2070694,57.5590473 95.3956296,56.4363391 95.7720505,55.3622475 C96.1488212,54.2810114 96.7073304,53.278886 97.4101457,52.3976917 C97.4125953,51.2769003 97.6015049,50.149836 97.9801998,49.0708652 C97.9829985,49.063198 97.9856226,49.0557052 97.9882458,49.0482124 C98.1752324,48.5210989 98.4050731,48.0133274 98.6730451,47.5294286 C96.3069461,44.8844517 94.4393596,41.7911233 93.1768103,38.3651473 C90.5404646,31.2112156 90.8581135,23.4629092 94.0713347,16.5477033 C96.4132954,11.5109382 100.137798,7.29803827 104.842535,4.36310539 C109.418533,1.50867713 114.685802,0 120.074988,0 C124.24448,0 128.28873,0.890081169 132.095444,2.64549968 C139.037016,5.84564468 144.311807,11.5485767 146.947802,18.7032053 C149.583624,25.8573112 149.26475,33.6054434 146.049955,40.5199523 C143.709743,45.555149 139.985415,49.768746 135.279979,52.7040273 C131.89324,54.8168375 128.127631,56.1925601 124.214393,56.7649792 C123.977906,57.1842304 123.713956,57.5860564 123.424469,57.9674948 C123.391935,59.0851497 123.18186,60.209426 122.800191,61.2856087 C122.428144,62.3555184 121.890274,63.3553785 121.213521,64.2438915 C121.181512,65.3751379 120.968812,66.5112634 120.582771,67.5944163 C120.212473,68.6545678 119.680551,69.644147 119.012893,70.5241216 C119.002224,70.886218 118.973012,71.2495343 118.92526,71.6116307 C123.904266,74.7689096 128.595009,78.5761499 132.93347,82.9866521 C132.940817,82.9939707 132.947988,83.0014635 132.955335,83.0087822 C147.631202,98.0620968 154.958116,116.278964 154.732823,137.1544 C154.689619,142.610939 154.095427,148.153035 152.966864,153.626826 C152.953221,153.693565 152.938352,153.760303 152.922609,153.826693 C150.881157,162.436852 147.754519,170.359759 143.629981,177.375509 C139.540252,184.296988 131.268088,193.583594 118.333166,205.778821 C118.324596,205.787011 118.315849,205.795202 118.307104,205.803391 C111.048583,212.57693 106.987364,220.251004 105.995937,229.127596 C112.970568,230.907932 118.141458,237.223012 118.141458,244.718653 C118.141458,245.842763 118.025107,246.940319 117.80377,248 L127.020549,248 C138.194233,248 147.284658,257.05398 147.284658,268.182956 L147.284658,268.350239 C147.284658,268.56213 147.274862,268.774194 147.255621,268.985214 C147.255621,268.985214 147.23778,269.17846 147.236556,269.191529 L140.546514,337.761236 C140.388389,342.965458 138.25283,347.836509 134.51206,351.509226 C130.699398,355.251993 125.659871,357.316187 120.318787,357.323331 L116.061838,357.349643 L116.061838,365.495768 C118.746286,366.470361 120.663199,369.035705 120.663199,372.046786 L120.663199,408.803758 C122.371786,409.808149 123.627513,411.521224 123.997112,413.581759 L127.440874,432.775136 C127.805226,434.806048 127.247591,436.893591 125.918399,438.475629 C124.589031,440.057666 122.624365,440.97162 120.553351,440.97162 L84.5992069,440.97162 C82.5281923,440.97162 80.5635269,440.057666 79.2341595,438.475629 C77.9049668,436.893591 77.3473322,434.806048 77.7116838,432.775136 L81.1554453,413.581759 C81.494609,411.691295 82.5796177,410.093226 84.0760308,409.066531 L84.0760308,372.046786 C84.0760308,368.297572 87.0471672,365.239965 90.7718452,365.082964 L90.7718452,357.506819 L62.4173105,357.682814 L62.4173105,365.495768 C65.1014084,366.470361 67.0184963,369.035705 67.0184963,372.046786 L67.0184963,408.804978 C68.7262089,409.809717 69.9808869,411.52227 70.3503112,413.581933 L73.793373,432.775485 C74.1577247,434.806221 73.6000899,436.893766 72.2707225,438.475629 C70.941355,440.057666 68.9768646,440.97162 66.9058499,440.97162 L30.9524056,440.97162 C28.881391,440.97162 26.9167257,440.057666 25.5873581,438.475629 C24.2579907,436.893766 23.7005309,434.806221 24.0648825,432.775485 L27.5077694,413.581933 C27.847108,411.69112 28.9322917,410.092877 30.4292295,409.066008 L30.4292295,372.046786 C30.4292295,368.297746 33.4000161,365.240314 37.1243441,365.082964 L37.1243441,357.840164 L33.4684085,357.862642 C22.4418297,357.862642 13.3974078,348.982915 13.2111214,338.026623 C13.2111214,338.026623 9.01609227,268.773149 9.01504281,268.754504 L9.00962037,268.650649 C9.00314848,268.529544 9,268.40809 9,268.28681 L9,268.182956 C9,257.05398 18.0885009,248 29.2599108,248 L36.6271962,248 Z" id="Combined-Shape"></path>
            </g>
        </g>
    </g>
</svg>