<?xml version="1.0" encoding="UTF-8" standalone="no"?>
<svg width="389px" height="283px" viewBox="0 0 389 283" version="1.1" xmlns="http://www.w3.org/2000/svg" xmlns:xlink="http://www.w3.org/1999/xlink">
    <!-- Generator: Sketch 3.8.3 (29802) - http://www.bohemiancoding.com/sketch -->
    <title>Group 5</title>
    <desc>Created with Sketch.</desc>
    <defs></defs>
    <g id="Page-1" stroke="none" stroke-width="1" fill="none" fill-rule="evenodd">
        <g id="Group-5" transform="translate(-2.000000, 0.000000)">
            <g id="Group-4" transform="translate(197.000000, 0.000000)">
                <path d="M37.248597,10.8097137 L33.763437,12.8605859 C30.565109,7.42081278 24.672659,4.04128408 18.389559,4.04128408 C13.016199,4.04128408 7.983141,6.43764378 4.576626,10.6141825 C4.353555,10.8883672 4.137835,11.1678813 3.933139,11.4530922 C3.750493,11.7072459 3.572991,11.9667291 3.397695,12.233563 L-2.84217094e-14,10.0476199 C0.210208,9.72032568 0.431442,9.40056598 0.656166,9.08429798 C0.91029,8.73329748 1.171581,8.39148538 1.443896,8.06051578 C5.621972,2.93719448 11.799049,-8.8817842e-16 18.389559,-8.8817842e-16 C26.100018,-8.8817842e-16 33.324645,4.14180628 37.248597,10.8097137" id="Fill-15" fill="#9B9B9B"></path>
                <path d="M33.433401,16.0384314 L29.710471,17.6159123 C27.760531,13.0133949 23.281107,10.0412841 18.29711,10.0412841 C13.848924,10.0412841 9.720277,12.4523453 7.512538,16.3344847 L4,14.336722 C6.920316,9.1952074 12.397678,6 18.29711,6 C24.907466,6 30.849161,9.9389243 33.433401,16.0384314" id="Fill-17" fill="#9B9B9B"></path>
                <path d="M9,22.976425 C9,27.9352723 13.01895,31.9581794 17.977222,31.9581794 C22.93384,31.9581794 26.954443,27.9352723 26.954443,22.976425 C26.954443,18.0210694 22.93384,14 17.977222,14 C13.01895,14 9,18.0210694 9,22.976425" id="Fill-19" stroke="#979797" stroke-width="4"></path>
                <polygon id="Fill-21" fill="#9B9B9B" points="16 46.3799992 21.387692 46.3799992 21.387692 30 16 30"></polygon>
            </g>
            <path d="M263.585962,234.301195 C263.489803,234.122732 263.392083,233.931825 263.293397,233.727768 C262.547929,232.205235 261.871734,230.152525 261.343457,227.937178 C261.227994,227.454204 261.118552,226.962351 261.014725,226.462871 C291.707819,210.224757 312.62196,177.966335 312.62196,140.822853 C312.62196,87.3483816 269.276768,44 215.810153,44 C162.345559,44 119,87.3483816 119,140.822853 C119,177.295504 139.165693,209.057955 168.953508,225.567454 C168.803234,225.967273 168.643115,226.338846 168.4741,226.678381 C167.547272,228.469587 166.704784,229.407181 164.94484,230.253625 C163.188387,231.075995 160.423339,231.481759 157.323867,231.370211 C156.947479,231.358481 156.56663,231.340313 156.181775,231.31609 L156.192185,231.233939 C155.441204,231.179176 154.680852,231.098869 153.905801,231 L153.88692,231.108019 C151.777673,230.862621 149.581263,230.468701 147.365245,229.982932 C140.438474,228.445697 133.301678,226.067714 126.170579,223.51809 C121.310189,221.773866 116.43212,219.92661 111.518564,218.070451 L111.568054,217.954134 C110.723545,217.636212 109.879404,217.319944 109.029567,217 L108.981601,217.112992 C107.511599,216.559031 106.038165,216.005717 104.560825,215.455553 C97.2759276,212.746601 89.8962166,210.087266 82.2934349,207.830021 C74.6904693,205.599973 66.8501004,203.680864 58.5911522,203.123306 C54.4680175,202.863823 50.2208524,202.973533 45.9825073,203.8435 C41.762537,204.702624 37.5352168,206.415176 34.0171662,209.127804 C30.4772495,211.81452 27.7721027,215.37157 25.893457,219.118455 C24.4415054,221.997609 23.4118558,225.006777 22.6620567,228.012439 L22.6194165,228 C22.3908332,228.91205 22.1844836,229.8241 22.0034912,230.730821 L22,230.751036 L22.0490457,230.762714 L22.0444752,230.785455 C21.8068882,232.010098 22.5415151,233.232903 23.7625245,233.582066 C25.0528072,233.949422 26.3941719,233.200008 26.7635066,231.913251 C27.7831276,228.325327 29.1300048,224.936427 30.9722682,221.935096 C31.672234,220.789354 32.4467257,219.711944 33.2916387,218.719523 L33.8906526,219.189003 C34.4079049,218.587524 34.9506983,218.024637 35.5208702,217.492623 L34.9667287,216.953566 C35.8871841,216.08522 36.8738409,215.310021 37.9227426,214.644025 C40.2818775,213.122769 42.9320002,212.181406 45.7394948,211.682182 L45.8220511,212.013287 C46.5877315,211.861493 47.3644368,211.735427 48.1521671,211.647769 L48.1076638,211.366013 C51.2235806,211.08009 54.4799155,211.265545 57.7082402,211.74873 C58.5006272,211.867924 59.292989,212.002885 60.0851735,212.152366 L60,212.769684 C60.8279712,212.923499 61.6541048,213.089627 62.4802385,213.272479 L62.5860925,212.671239 C66.7727957,213.616163 70.9500568,214.930529 75.0953642,216.429986 L75,216.738703 C75.81713,217.031081 76.6338926,217.327134 77.4473476,217.634397 L77.5448654,217.337637 C77.991365,217.506791 78.4374397,217.677681 78.883061,217.850075 C82.6307591,219.307704 86.3559186,220.889866 90.0736748,222.545263 L90,222.732898 C90.809597,223.08739 91.615518,223.460443 92.423277,223.824123 L92.498932,223.63542 C94.9073386,224.727608 97.3140174,225.845884 99.7230916,226.976273 C106.099121,229.970545 112.48602,233.066854 119.019977,236.071886 L119,236.120253 C119.747673,236.463902 120.478625,236.818394 121.229973,237.160023 C121.313946,237.198431 121.399757,237.235185 121.483914,237.273593 L121.510907,237.207219 C125.602955,239.051764 129.747715,240.866524 134.044467,242.537904 L134,242.666309 C134.877399,243.009959 135.752777,243.355446 136.644509,243.686232 L136.691944,243.541203 C138.801437,244.318791 140.951194,245.057445 143.15244,245.744326 C147.14934,246.966947 151.319882,248.032813 155.901837,248.579344 C160.402241,249.084691 165.458931,249.181785 170.916964,247.463233 L171.033018,247.793706 C171.105966,247.769999 171.175423,247.755298 171.246717,247.731591 C172.451189,247.338691 173.659336,246.823217 174.845434,246.225413 L174.685226,245.927857 C176.206835,245.161727 177.683752,244.229392 179.042951,243.141409 C181.45557,241.224137 183.460268,238.873537 184.973621,236.455308 C185.646503,235.374173 186.236421,234.290252 186.756231,233.207878 C188.520845,233.762431 190.307234,234.267809 192.113792,234.722407 C190.936372,240.631758 188.964807,245.968459 185.908828,249.81718 C183.763196,252.542488 181.100311,254.573145 177.733853,255.989644 C174.376582,257.404488 170.350283,258.150227 166.051852,258.373323 C157.530529,258.794767 148.223056,257.393127 138.944305,255.565972 L138.948861,255.546531 C138.941511,255.544694 138.936182,255.542856 138.928832,255.541018 C138.080833,255.371031 137.22732,255.177338 136.375646,255 L136.365498,255.041556 C127.6198,253.221805 118.788539,251.014703 109.852895,248.919831 C100.173938,246.6477 90.3579038,244.463411 80.3153083,242.981123 C70.2853911,241.520887 59.9723174,240.712851 49.585928,241.75648 C44.4045851,242.286473 39.2197509,243.302904 34.2177466,244.984399 C29.2153748,246.656889 24.4143915,249.01484 20.0828858,252.0215 C11.3524388,258.022323 4.82605614,266.547225 0.279013438,275.5729 L0.257147338,275.616821 C-0.311187062,276.748293 0.089017338,278.142923 1.19647014,278.79163 C2.23724879,279.404314 3.54672123,279.151885 4.29301987,278.24946 L5.2565363,278.77618 C5.6988191,278.026766 6.1686643,277.293892 6.6364882,276.558996 L5.69202452,276.000071 C8.0661376,272.236039 10.7752017,268.726018 13.816457,265.611155 L14.345838,266.095647 C14.9398972,265.487002 15.5357939,264.882031 16.1570479,264.304442 L15.6634286,263.807178 C18.1583038,261.485353 20.8582417,259.425155 23.7619002,257.695212 C24.6072221,257.182938 25.4672757,256.700609 26.3406406,256.247282 L26.4541061,256.44452 C27.1942454,256.049782 27.9455935,255.682426 28.7057614,255.331425 L28.6118141,255.146297 C32.4122413,253.429457 36.430704,252.220866 40.5584839,251.448333 L40.7836476,252.429893 C41.6097813,252.267257 42.4430812,252.132002 43.2784023,252.003915 L43.0955317,251.02964 C45.4437335,250.692861 47.8196011,250.489829 50.2036908,250.407633 C52.1570792,250.336663 54.116281,250.338487 56.0792318,250.404 L56.0858106,251.095141 C56.9411603,251.117009 57.7966938,251.142553 58.6518597,251.186658 L58.6643433,250.526204 C62.7701953,250.77607 66.8884511,251.286329 71.0003021,251.974002 L71,251.976318 C71.7593997,252.101 72.5186552,252.23563 73.2778942,252.372674 C75.0038564,252.687878 76.7280756,253.031683 78.4491575,253.397937 C81.0173057,253.947251 83.5810867,254.548976 86.1426604,255.191678 L86,255.849776 C86.851675,256.063684 87.701512,256.295785 88.551349,256.520536 L88.7039836,255.847723 C93.1491106,257.008772 97.5897541,258.281841 102.037218,259.607083 L102,259.74933 C102.857188,260.0033 103.712354,260.260945 104.571378,260.518774 L104.60852,260.378403 C105.273968,260.579229 105.939618,260.780964 106.605506,260.983407 C110.105445,262.044957 113.611489,263.132127 117.138508,264.214463 L117,264.723309 C117.864354,264.990143 118.729075,265.253302 119.595082,265.518482 L119.732578,265.007967 C124.837539,266.563536 129.993742,268.093528 135.245849,269.506472 C139.758662,270.690989 144.337004,271.835583 149.0534,272.747514 L149,273.077769 C149.93032,273.258783 150.865967,273.428586 151.809149,273.589385 L151.855716,273.257614 C156.486564,274.046159 161.260772,274.580033 166.244548,274.683274 L166.257616,275.510808 C167.272092,275.521834 168.299063,275.503457 169.333383,275.468908 L169.282712,274.656332 C173.956373,274.508508 178.828574,273.842182 183.715605,272.187859 C184.333184,271.982724 184.949209,271.758728 185.56215,271.516596 L185.727587,271.910875 C186.792962,271.496106 187.853007,271.029882 188.894678,270.509078 L188.685181,270.112248 C192.787431,268.038006 196.620733,265.168512 199.690708,261.73815 C200.397363,260.959579 201.066366,260.161253 201.700097,259.346783 L201.904216,259.4947 C202.600439,258.584487 203.26028,257.659757 203.872347,256.71665 L203.673472,256.594764 C205.922686,253.190379 207.642969,249.589038 208.989673,246.026374 C209.466525,244.75565 209.900131,243.484935 210.295693,242.21522 L210.75871,242.340689 C211.05822,241.349985 211.32337,240.359282 211.580985,239.368578 L211.148109,239.269618 C211.301545,238.697229 211.448045,238.1252 211.588086,237.553622 C212.987947,237.613703 214.395508,237.644051 215.810153,237.644051 C216.912491,237.644051 218.010527,237.625625 219.103969,237.589064 C219.3194,238.847612 219.569267,240.112274 219.858635,241.382968 C220.922172,246.000003 222.52152,250.737592 225.122114,255.265315 C226.140014,257.056324 227.339721,258.802187 228.694745,260.44571 L228,260.988705 C228.763843,261.90829 229.568111,262.798287 230.423277,263.639219 L231.049535,263.037623 C232.527783,264.513825 234.139817,265.863151 235.861117,267.032653 C240.301953,270.092606 245.242218,271.914869 249.970069,272.90741 C254.71997,273.90528 259.325629,274.155759 263.763157,274.084456 C263.842725,274.082981 263.922244,274.081397 264.001715,274.079706 L264,274.278815 C264.992427,274.247574 265.97934,274.203836 266.958904,274.14356 L266.954308,273.968261 C270.270184,273.790045 273.507181,273.442693 276.691525,273.006094 C285.076525,271.834377 293.106889,270.059528 301.022412,268.248108 C305.067283,267.320011 309.080634,266.371346 313.07615,265.455145 L313.11072,265.639435 C313.978932,265.441883 314.845307,265.248189 315.711498,265.054496 L315.676684,264.863413 C318.621596,264.199178 321.558404,263.55892 324.49262,262.963988 C326.116625,262.636312 327.740559,262.320867 329.363747,262.023813 L329.407146,262.334485 C330.273337,262.177362 331.137874,262.025568 332.006087,261.879287 L331.965921,261.564166 C337.231539,260.669467 342.485516,260.003231 347.704845,259.776131 C351.859273,259.605483 356.020746,259.721022 360.024426,260.340778 L360,260.461058 C360.820621,260.592638 361.632239,260.744432 362.437976,260.918094 L362.471993,260.788783 C364.972401,261.320595 367.395288,262.074445 369.698266,263.106409 C373.020808,264.592556 376.039981,266.676323 378.589493,269.317465 C380.497953,271.287469 382.129734,273.533371 383.517942,275.994641 L383,276.251733 C383.407738,276.988467 383.798755,277.737696 384.164231,278.510816 L384.709429,278.280779 C384.760037,278.38596 384.810259,278.491466 384.860097,278.597294 C385.395541,279.726927 386.722389,280.284485 387.912162,279.834617 C389.165878,279.361225 389.798341,277.961266 389.324821,276.705566 L389.312142,276.672672 C387.829842,272.742936 385.739151,268.849586 382.93184,265.464361 C381.967885,264.288717 380.917106,263.175896 379.794212,262.135464 L379.972564,261.930135 C379.250432,261.257537 378.506801,260.610484 377.728259,260 L377.558457,260.233172 C376.039572,259.047131 374.42169,257.984987 372.733976,257.065708 C368.846775,254.930853 364.639483,253.519684 360.417675,252.605797 C356.184843,251.695584 351.92114,251.266114 347.699332,251.105131 C347.404199,251.094721 347.109259,251.085564 346.814509,251.077628 L346.814477,251.058439 C345.874971,251.025728 344.937485,251.009189 344,251 L344.001089,251.037853 C336.825476,251.025825 329.76339,251.680006 322.809115,252.517955 C314.661702,253.508658 306.638687,254.800928 298.706812,255.972645 C298.359858,256.023766 298.01303,256.074722 297.666339,256.125469 L297.642672,256 C296.759944,256.129742 295.882728,256.252316 295,256.378382 L295.023802,256.507863 C290.856824,257.102741 286.713847,257.650303 282.614454,258.07064 L282.604269,258 C281.734219,258.08968 280.866191,258.177155 280,258.25397 L280.008798,258.320459 C278.417769,258.461895 276.834,258.581404 275.258653,258.674247 C267.646684,259.114559 260.074956,258.917374 253.864804,257.067546 C253.642906,257.001361 253.423272,256.933062 253.205953,256.862656 L253.250168,256.690792 C252.564786,256.477067 251.895941,256.25397 251.259804,256 L251.215631,256.131874 C249.243079,255.315665 247.506469,254.301191 246.053651,253.095543 C243.973617,251.375641 242.394666,249.260817 241.183027,246.6579 C239.635383,243.35195 238.755506,239.331507 238.3668,235.001991 C239.950764,234.623931 241.519621,234.206939 243.072305,233.752082 C244.219539,236.817526 245.593633,239.966053 247.72052,243.190449 C248.798757,244.806154 250.085364,246.447586 251.717603,247.997502 C253.347821,249.540066 255.36538,250.985968 257.671793,251.995049 C259.967364,253.016809 262.483801,253.546802 264.795909,253.627109 C267.12235,253.718627 269.244096,253.415223 271.144791,252.961862 C274.948203,252.024268 277.982076,250.549147 280.7655,249.03378 C283.536061,247.496729 286.036328,245.855296 288.437739,244.203021 C293.226044,240.890936 297.630497,237.513245 302.066189,234.369309 C306.48718,231.230887 310.917175,228.293692 315.488105,226.003368 C320.049847,223.718556 324.774208,222.099176 329.454652,221.94389 C334.124255,221.759385 338.746083,223.206941 342.860031,226.080183 C346.992353,228.931557 350.546969,232.943806 353.641112,237.370639 C354.34101,238.374023 355.693584,238.708484 356.791849,238.112702 C357.97078,237.471161 358.407551,235.997878 357.766084,234.820832 L357.760572,234.806314 C357.701617,234.697904 357.642368,234.589528 357.58282,234.481195 L357.667358,234.429255 L357.661845,234.414737 C357.223237,233.606701 356.758905,232.800686 356.282077,232 L356.193013,232.059689 C353.79656,228.06821 350.918328,224.21897 347.225386,220.92932 L347.232201,220.920947 C347.085754,220.78753 346.948861,220.650437 346.798922,220.518858 C346.203209,219.994195 345.578096,219.487909 344.934793,219 L344.90695,219.040999 C343.141242,217.731533 341.211803,216.579119 339.139122,215.659878 C336.611785,214.533799 333.8775,213.781112 331.109547,213.421841 L331.123359,213.241106 C330.710475,213.190018 330.297409,213.120553 329.885995,213.085821 C329.253717,213.032895 328.628604,213.016356 328,213 L328.004318,213.180203 C322.761766,213.028226 317.697513,214.118847 313.016594,215.681603 L312.748696,215 C312.195061,215.184505 311.641243,215.372686 311.096612,215.570239 C310.723786,215.705309 310.367314,215.864454 310,216.00706 L310.289901,216.659473 C305.885945,218.344887 301.750747,220.385286 297.76666,222.516616 L297.450839,222 C296.807535,222.347325 296.156881,222.688953 295.51909,223.0383 C295.345448,223.133125 295.173643,223.231994 295,223.327186 L295.324318,223.842282 C291.295439,226.060592 287.395259,228.357029 283.5732,230.474843 L283.273706,230 C282.529891,230.40944 281.782402,230.82623 281.045754,231.220968 C281.0294,231.228319 281.0147,231.235486 281,231.244674 L281.290374,231.721271 C281.167653,231.787153 281.045002,231.852794 280.922421,231.918186 C278.575952,233.166719 276.254839,234.320059 274.023397,235.232109 C272.629295,235.805917 271.254033,236.27799 270.011275,236.589348 L269.813047,236 C269.167906,236.160983 268.559331,236.283374 268,236.352839 L268.13146,236.943908 C268.08224,236.949471 268.033433,236.954624 267.98505,236.959362 C267.158916,237.041691 266.484559,236.99777 266.029414,236.882546 C265.568756,236.765485 265.336682,236.606708 265.124636,236.420181 C264.931127,236.246487 264.65086,235.951365 264.32082,235.491014 L264.711975,235.129634 C264.501767,234.828067 264.273551,234.444172 264.033943,234 L263.585962,234.301195 Z" id="Combined-Shape" stroke="#979797" stroke-width="6" stroke-linecap="round" stroke-linejoin="round" stroke-dasharray="20"></path>
        </g>
    </g>
</svg>